<svg width="393" height="56" viewBox="0 0 393 56" fill="none" xmlns="http://www.w3.org/2000/svg">
<rect width="393" height="56" fill="white"/>
<path d="M42 28C42 30.1756 41.3549 32.3023 40.1462 34.1113C38.9375 35.9202 37.2195 37.3301 35.2095 38.1627C33.1995 38.9952 30.9878 39.2131 28.854 38.7886C26.7202 38.3642 24.7602 37.3166 23.2218 35.7782C21.6835 34.2398 20.6358 32.2798 20.2114 30.146C19.7869 28.0122 20.0048 25.8005 20.8373 23.7905C21.6699 21.7805 23.0798 20.0625 24.8887 18.8538C26.6977 17.6451 28.8244 17 31 17C33.9174 17 36.7153 18.1589 38.7782 20.2218C40.8411 22.2847 42 25.0826 42 28ZM32.8398 22.83V28.3602L28.9898 22.83H25.83V33.1838H29.1575V27.637L33.0075 33.17H36.1783V22.83H32.8398Z" fill="black"/>
<path d="M81.4319 22.2194L78.3913 29.1478L74.9518 22.2194H72.3072L77.1783 31.8317L75.1703 36.3358H77.7384L84 22.2331L81.4319 22.2194ZM70.6171 32.9331H68.1037V31.9328C67.1894 32.7342 66.0108 33.1685 64.7953 33.1518C61.7901 33.1518 59.4379 30.692 59.4379 27.5763C59.4379 24.4606 61.7874 22.0008 64.7953 22.0008C66.0104 21.9833 67.189 22.4166 68.1037 23.217V22.2194H70.6171V32.9331ZM68.3987 27.5899C68.3987 25.5702 66.9891 24.0369 65.1204 24.0369C63.2517 24.0369 61.842 25.5702 61.842 27.5899C61.842 29.6097 63.249 31.1429 65.1204 31.1429C66.9918 31.1429 68.3987 29.596 68.3987 27.5899ZM47.0082 36.3358H49.6309V32.023C50.5282 32.7695 51.6631 33.1699 52.83 33.1518C55.8352 33.1518 58.1901 30.692 58.1901 27.5763C58.1901 24.4606 55.8379 22.0008 52.83 22.0008C51.6117 21.9789 50.429 22.4126 49.5134 23.217V22.2194H47L47.0082 36.3358ZM52.5186 24.0369C54.3872 24.0369 55.7969 25.5702 55.7969 27.5899C55.7969 29.6097 54.3872 31.1429 52.5186 31.1429C50.6499 31.1429 49.2402 29.6097 49.2402 27.5899C49.2402 25.5702 50.6335 24.0369 52.5186 24.0369Z" fill="black"/>
</svg>
