<svg width="393" height="44" viewBox="0 0 393 44" fill="none" xmlns="http://www.w3.org/2000/svg">
<rect width="393" height="44" fill="white"/>
<rect opacity="0.35" x="354.5" y="17.8334" width="21" height="10.3333" rx="2.16667" stroke="black"/>
<path opacity="0.4" d="M377 21V25C377.805 24.6612 378.328 23.8731 378.328 23C378.328 22.1269 377.805 21.3388 377 21Z" fill="black"/>
<rect x="356" y="19.3334" width="18" height="7.33333" rx="1.33333" fill="black"/>
<path d="M341.33 19.608C343.546 19.6081 345.678 20.4596 347.283 21.9863C347.404 22.1042 347.598 22.1027 347.717 21.983L348.873 20.8163C348.933 20.7556 348.967 20.6734 348.966 20.5878C348.966 20.5022 348.931 20.4204 348.87 20.3603C344.655 16.3208 338.005 16.3208 333.79 20.3603C333.729 20.4203 333.694 20.5021 333.694 20.5877C333.693 20.6733 333.727 20.7556 333.787 20.8163L334.943 21.983C335.062 22.1029 335.256 22.1044 335.377 21.9863C336.983 20.4595 339.114 19.608 341.33 19.608Z" fill="black"/>
<path d="M341.33 23.4037C342.548 23.4036 343.722 23.8562 344.624 24.6734C344.746 24.7894 344.939 24.7868 345.058 24.6677L346.212 23.501C346.273 23.4398 346.307 23.3568 346.306 23.2706C346.305 23.1843 346.27 23.102 346.208 23.042C343.459 20.4857 339.203 20.4857 336.455 23.042C336.393 23.102 336.358 23.1843 336.357 23.2706C336.356 23.3569 336.39 23.4399 336.451 23.501L337.605 24.6677C337.724 24.7868 337.917 24.7894 338.039 24.6734C338.94 23.8567 340.114 23.4042 341.33 23.4037Z" fill="black"/>
<path d="M343.549 26.188C343.611 26.1274 343.645 26.044 343.643 25.9575C343.642 25.871 343.604 25.7891 343.54 25.731C342.264 24.6522 340.396 24.6522 339.121 25.731C339.056 25.789 339.019 25.8709 339.017 25.9575C339.015 26.044 339.049 26.1274 339.111 26.188L341.109 28.2037C341.167 28.2629 341.247 28.2963 341.33 28.2963C341.414 28.2963 341.493 28.2629 341.552 28.2037L343.549 26.188Z" fill="black"/>
<path d="M312.667 24.3334H313.667C314.219 24.3334 314.667 24.7811 314.667 25.3334V27.3334C314.667 27.8857 314.219 28.3334 313.667 28.3334H312.667C312.114 28.3334 311.667 27.8857 311.667 27.3334V25.3334C311.667 24.7811 312.114 24.3334 312.667 24.3334Z" fill="black"/>
<path d="M317.333 22.3334H318.333C318.886 22.3334 319.333 22.7811 319.333 23.3334V27.3334C319.333 27.8857 318.886 28.3334 318.333 28.3334H317.333C316.781 28.3334 316.333 27.8857 316.333 27.3334V23.3334C316.333 22.7811 316.781 22.3334 317.333 22.3334Z" fill="black"/>
<path d="M322 20H323C323.552 20 324 20.4477 324 21V27.3333C324 27.8856 323.552 28.3333 323 28.3333H322C321.448 28.3333 321 27.8856 321 27.3333V21C321 20.4477 321.448 20 322 20Z" fill="black"/>
<path d="M326.667 17.6666H327.667C328.219 17.6666 328.667 18.1143 328.667 18.6666V27.3333C328.667 27.8856 328.219 28.3333 327.667 28.3333H326.667C326.114 28.3333 325.667 27.8856 325.667 27.3333V18.6666C325.667 18.1143 326.114 17.6666 326.667 17.6666V17.6666Z" fill="black"/>
<g clip-path="url(#clip0_3_146)">
<path d="M37.2146 18.1675C39.4705 18.1675 41.4334 19.7715 41.4334 23.5801V23.5947C41.4334 27.1543 39.8294 29.2637 37.1707 29.2637C35.2298 29.2637 33.7796 28.1138 33.4427 26.4951L33.428 26.4146H35.2884L35.3104 26.4878C35.5887 27.2275 36.2405 27.7109 37.1707 27.7109C38.8479 27.7109 39.5584 26.0703 39.639 24.0488C39.639 23.9683 39.6463 23.8877 39.6463 23.8071H39.4998C39.1116 24.6421 38.1888 25.3818 36.7386 25.3818C34.7098 25.3818 33.2889 23.9023 33.2889 21.8955V21.8809C33.2889 19.7349 34.9222 18.1675 37.2146 18.1675ZM37.2073 23.9316C38.4012 23.9316 39.3167 23.0674 39.3167 21.8735V21.8589C39.3167 20.6504 38.4012 19.7056 37.2293 19.7056C36.0647 19.7056 35.1346 20.6357 35.1346 21.8149V21.8296C35.1346 23.0527 36.0062 23.9316 37.2073 23.9316ZM44.4586 22.1519C43.7921 22.1519 43.294 21.6392 43.294 20.9946C43.294 20.3428 43.7921 19.8374 44.4586 19.8374C45.1324 19.8374 45.6231 20.3428 45.6231 20.9946C45.6231 21.6392 45.1324 22.1519 44.4586 22.1519ZM44.4586 27.5864C43.7921 27.5864 43.294 27.0811 43.294 26.4292C43.294 25.7773 43.7921 25.272 44.4586 25.272C45.1324 25.272 45.6231 25.7773 45.6231 26.4292C45.6231 27.0811 45.1324 27.5864 44.4586 27.5864ZM52.6107 29V26.9712H47.4398V25.4258C48.8095 23.0454 50.3109 20.6138 51.7465 18.4312H54.4198V25.4111H55.8407V26.9712H54.4198V29H52.6107ZM49.1977 25.4551H52.64V19.9399H52.5302C51.4462 21.5952 50.223 23.5508 49.1977 25.3452V25.4551ZM59.9206 29V20.2915H59.7961L57.1667 22.1519V20.3721L59.9279 18.4312H61.8103V29H59.9206Z" fill="black"/>
</g>
<defs>
<clipPath id="clip0_3_146">
<rect width="54" height="18" fill="white" transform="translate(21 15)"/>
</clipPath>
</defs>
</svg>
