<svg width="731" height="47" viewBox="0 0 731 47" fill="none" xmlns="http://www.w3.org/2000/svg">
<path fill-rule="evenodd" clip-rule="evenodd" d="M40.7378 5.6895C39.2192 4.17082 37.3094 3.04529 35.196 2.49948C33.9068 1.95468 30.0899 1.19359 23.2142 1.19359C16.3385 1.19359 12.5217 1.95468 11.2315 2.49948C9.11811 3.04529 7.20829 4.17082 5.68962 5.6895C4.17194 7.20817 3.04541 9.11799 2.5006 11.2314C1.9548 12.5215 1.19371 16.3864 1.19371 23.2131C1.19371 30.0398 1.9548 33.9067 2.5006 35.1959C3.04541 37.3092 4.17194 39.219 5.68962 40.7377C7.20829 42.2554 9.11811 43.3819 11.2315 43.9277C12.5217 44.4735 16.257 45.2336 23.2142 45.2336C30.1714 45.2336 33.9068 44.4735 35.196 43.9277C37.3094 43.3819 39.2192 42.2554 40.7378 40.7377C42.2565 39.219 43.382 37.3092 43.9279 35.1959C44.4737 33.9067 45.2338 30.0265 45.2338 23.2131C45.2338 16.3997 44.4737 12.5215 43.9279 11.2314C43.382 9.11799 42.2565 7.20817 40.7378 5.6895Z" fill="white"/>
<path d="M23.2147 0.596367C26.6734 0.596385 29.3727 0.788597 31.3774 1.05088C33.3248 1.30567 34.6488 1.63207 35.3791 1.93059C37.5868 2.50748 39.5772 3.68511 41.1597 5.26761C42.7412 6.84911 43.9175 8.8383 44.4948 11.0443C44.7946 11.7758 45.1225 13.1172 45.3774 15.0744C45.6395 17.0864 45.831 19.7851 45.831 23.2126C45.831 26.6405 45.6395 29.3404 45.3774 31.3528C45.1227 33.3086 44.7945 34.6494 44.4948 35.3809C43.9539 37.4491 42.8872 39.3267 41.453 40.8566L41.1597 41.1596C39.5782 42.7401 37.5886 43.9174 35.382 44.4947C33.9397 45.0868 30.1109 45.8308 23.2147 45.8308C16.3165 45.8308 12.4869 45.0868 11.0445 44.4947C8.97691 43.9536 7.1 42.8857 5.57074 41.4528L5.26773 41.1596C3.68702 39.5779 2.50884 37.588 1.93267 35.3809C1.63311 34.6497 1.30596 33.3126 1.051 31.3587C0.788628 29.3478 0.59649 26.6473 0.59649 23.2126C0.596507 19.7782 0.788638 17.079 1.051 15.0685C1.30609 13.1139 1.63307 11.7766 1.93267 11.0453C2.50893 8.83859 3.68724 6.84914 5.26773 5.26761L5.57074 4.97437C7.10117 3.53964 8.97933 2.47125 11.0484 1.93059C11.779 1.63211 13.1033 1.3057 15.051 1.05088C17.056 0.788593 19.7558 0.596367 23.2147 0.596367Z" stroke="black" stroke-opacity="0.07" stroke-width="1.19255"/>
<path d="M23.3132 35.4C29.9466 35.4 35.3241 30.0225 35.3241 23.3891C35.3241 16.7556 29.9466 11.3781 23.3132 11.3781C16.6797 11.3781 11.3023 16.7556 11.3023 23.3891C11.3023 30.0225 16.6797 35.4 23.3132 35.4Z" fill="#00DE5A"/>
<path d="M23.3132 11.6284C29.8084 11.6284 35.0739 16.8938 35.0739 23.3891C35.0739 29.8843 29.8084 35.1498 23.3132 35.1498C16.8179 35.1498 11.5525 29.8843 11.5525 23.3891C11.5525 16.8938 16.8179 11.6284 23.3132 11.6284Z" stroke="black" stroke-opacity="0.1" stroke-width="0.5"/>
<path d="M27.1554 22.477V19.2321H25.2504V24.5918L21.4889 19.2321H19.471V22.477H17.3077V24.3174H19.471V27.5461H21.3759V22.1864L25.1374 27.5461H27.1554V24.3174H29.3186V22.477H27.1554Z" fill="black"/>
<path d="M21.3583 19.4823L25.0452 24.7351L25.5007 25.3842V19.4823H26.9053V22.7274H29.0684V24.0675H26.9053V27.2961H25.2681L21.5811 22.0423L21.1257 21.3942V27.2961H19.7211V24.0675H17.558V22.7274H19.7211V19.4823H21.3583Z" stroke="black" stroke-opacity="0.1" stroke-width="0.5"/>
<path fill-rule="evenodd" clip-rule="evenodd" d="M116.807 5.6895C115.288 4.17082 113.379 3.04529 111.265 2.49948C109.976 1.95468 106.159 1.19359 99.2834 1.19359C92.4077 1.19359 88.5908 1.95468 87.3006 2.49948C85.1873 3.04529 83.2774 4.17082 81.7588 5.6895C80.2411 7.20817 79.1146 9.11799 78.5698 11.2314C78.024 12.5215 77.2629 16.3864 77.2629 23.2131C77.2629 30.0398 78.024 33.9067 78.5698 35.1959C79.1146 37.3092 80.2411 39.219 81.7588 40.7377C83.2774 42.2554 85.1873 43.3819 87.3006 43.9277C88.5908 44.4735 92.3262 45.2336 99.2834 45.2336C106.241 45.2336 109.976 44.4735 111.265 43.9277C113.379 43.3819 115.288 42.2554 116.807 40.7377C118.326 39.219 119.451 37.3092 119.997 35.1959C120.543 33.9067 121.303 30.0265 121.303 23.2131C121.303 16.3997 120.543 12.5215 119.997 11.2314C119.451 9.11799 118.326 7.20817 116.807 5.6895Z" fill="#00DE5A"/>
<path d="M105.145 16.1477C106.302 17.2725 106.88 18.6623 106.88 20.3174C106.88 21.9724 106.302 23.3623 105.145 24.487C104.004 25.5957 102.574 26.1501 100.854 26.1501H96.5506V31.5731H92.7183V14.4605H100.854C102.574 14.4605 104.004 15.0229 105.145 16.1477ZM103.168 20.3174C103.168 19.6746 102.943 19.1444 102.493 18.7266C102.06 18.2928 101.497 18.0759 100.806 18.0759H96.5506V22.5589H100.806C101.481 22.5589 102.044 22.3419 102.493 21.9081C102.943 21.4743 103.168 20.944 103.168 20.3174Z" fill="black"/>
<path fill-rule="evenodd" clip-rule="evenodd" d="M192.876 5.6895C191.357 4.17082 189.448 3.04529 187.334 2.49948C186.045 1.95468 182.228 1.19359 175.353 1.19359C168.477 1.19359 164.66 1.95468 163.37 2.49948C161.256 3.04529 159.347 4.17082 157.828 5.6895C156.31 7.20817 155.184 9.11799 154.639 11.2314C154.093 12.5215 153.332 16.3864 153.332 23.2131C153.332 30.0398 154.093 33.9067 154.639 35.1959C155.184 37.3092 156.31 39.219 157.828 40.7377C159.347 42.2554 161.256 43.3819 163.37 43.9277C164.66 44.4735 168.395 45.2336 175.353 45.2336C182.31 45.2336 186.045 44.4735 187.334 43.9277C189.448 43.3819 191.357 42.2554 192.876 40.7377C194.395 39.219 195.52 37.3092 196.066 35.1959C196.612 33.9067 197.372 30.0265 197.372 23.2131C197.372 16.3997 196.612 12.5215 196.066 11.2314C195.52 9.11799 194.395 7.20817 192.876 5.6895Z" fill="black"/>
<path d="M175.463 22.1622L180.248 15.5977H183.358V21.5288H186.362V24.8962H183.358V30.8293H179.927V21.4546L175.485 27.59L171.023 21.4331V30.8293H167.612V24.8962H164.342V21.5288H167.612V15.5977H170.723L175.463 22.1622Z" fill="#00DE5A"/>
<path fill-rule="evenodd" clip-rule="evenodd" d="M268.945 5.6895C267.427 4.17082 265.517 3.04529 263.403 2.49948C262.114 1.95468 258.297 1.19359 251.422 1.19359C244.546 1.19359 240.729 1.95468 239.439 2.49948C237.326 3.04529 235.416 4.17082 233.897 5.6895C232.379 7.20817 231.253 9.11799 230.708 11.2314C230.162 12.5215 229.401 16.3864 229.401 23.2131C229.401 30.0398 230.162 33.9067 230.708 35.1959C231.253 37.3092 232.379 39.219 233.897 40.7377C235.416 42.2554 237.326 43.3819 239.439 43.9277C240.729 44.4735 244.464 45.2336 251.422 45.2336C258.379 45.2336 262.114 44.4735 263.403 43.9277C265.517 43.3819 267.427 42.2554 268.945 40.7377C270.464 39.219 271.59 37.3092 272.135 35.1959C272.681 33.9067 273.441 30.0265 273.441 23.2131C273.441 16.3997 272.681 12.5215 272.135 11.2314C271.59 9.11799 270.464 7.20817 268.945 5.6895Z" fill="white"/>
<path d="M251.422 0.596367C254.881 0.596385 257.58 0.788597 259.585 1.05088C261.532 1.30567 262.856 1.63207 263.587 1.93059C265.794 2.50748 267.785 3.68512 269.367 5.26761C270.949 6.84911 272.125 8.8383 272.702 11.0443C273.002 11.7758 273.33 13.1172 273.585 15.0744C273.847 17.0864 274.038 19.7851 274.038 23.2126C274.038 26.6405 273.847 29.3404 273.585 31.3528C273.33 33.3086 273.002 34.6494 272.702 35.3809C272.161 37.4491 271.095 39.3267 269.66 40.8566L269.367 41.1596C267.786 42.7401 265.796 43.9174 263.589 44.4947C262.147 45.0868 258.318 45.8308 251.422 45.8308C244.524 45.8308 240.694 45.0868 239.252 44.4947C237.184 43.9536 235.307 42.8857 233.778 41.4528L233.475 41.1596C231.894 39.5779 230.716 37.588 230.14 35.3809C229.841 34.6497 229.513 33.3126 229.258 31.3587C228.996 29.3478 228.804 26.6473 228.804 23.2126C228.804 19.7782 228.996 17.079 229.258 15.0685C229.514 13.1139 229.841 11.7766 230.14 11.0453C230.716 8.83859 231.895 6.84914 233.475 5.26761L233.778 4.97437C235.309 3.53965 237.187 2.47125 239.256 1.93059C239.986 1.63211 241.311 1.3057 243.258 1.05088C245.263 0.788593 247.963 0.596367 251.422 0.596367Z" stroke="black" stroke-opacity="0.07" stroke-width="1.19255"/>
<g clip-path="url(#clip0_5_17205)">
<path d="M240.767 15.3614C240.767 14.8109 241.217 14.3605 241.768 14.3605H263.788C264.338 14.3605 264.789 14.8109 264.789 15.3614V29.3741C264.789 31.0356 263.448 32.3768 261.786 32.3768H243.77C242.108 32.3768 240.767 31.0356 240.767 29.3741V15.3614Z" fill="black"/>
<path d="M241.738 15.1337C241.738 14.712 242.063 14.3605 242.474 14.3605H264.023C264.424 14.3605 264.759 14.7019 264.759 15.1337V29.5448C264.759 31.1115 263.555 32.3768 262.064 32.3768H244.433C242.942 32.3768 241.738 31.1115 241.738 29.5448V15.1337Z" fill="black" fill-opacity="0.1"/>
<path d="M240.767 15.3614C240.767 14.8109 241.217 14.3605 241.768 14.3605H263.788C264.338 14.3605 264.789 14.8109 264.789 15.3614L262.787 29.3741C262.787 31.0356 261.446 32.3768 259.784 32.3768H240.767C239.105 32.3768 237.764 31.0356 237.764 29.3741L240.767 15.3614Z" fill="#1E1E23"/>
<path d="M241.017 15.3614C241.017 14.951 241.358 14.6107 241.768 14.6107H263.788C264.198 14.6107 264.539 14.951 264.539 15.3614L262.537 29.3741C262.537 30.8955 261.306 32.1266 259.784 32.1266H240.767C239.246 32.1266 238.014 30.8955 238.014 29.3741L241.017 15.3614Z" stroke="white" stroke-opacity="0.1" stroke-width="0.5"/>
<path d="M240.767 15.3614C240.767 14.8109 241.217 14.3605 241.768 14.3605H263.788C264.338 14.3605 264.789 14.8109 264.789 15.3614L264.358 18.3641H240.126L240.767 15.3614Z" fill="black"/>
<path d="M251.385 24.1219C251.413 24.1861 251.497 24.202 251.547 24.1526L254.052 21.6724C254.071 21.6539 254.096 21.6435 254.123 21.6435H255.189C255.255 21.6435 255.303 21.7069 255.285 21.7708L254.689 23.8814C254.671 23.9453 254.719 24.0087 254.785 24.0087H255.717C255.783 24.0087 255.831 24.072 255.813 24.1359L255.491 25.281C255.479 25.3242 255.44 25.354 255.395 25.354H254.351C254.306 25.354 254.266 25.3838 254.254 25.4269L253.627 27.6464C253.615 27.6895 253.576 27.7193 253.531 27.7193H252.376C252.309 27.7193 252.261 27.656 252.279 27.5922L253.187 24.3489C253.215 24.2499 253.093 24.1784 253.02 24.2511L250.94 26.3241C250.89 26.3736 250.806 26.3579 250.778 26.2938L249.859 24.2269C249.821 24.1413 249.697 24.1503 249.671 24.2405L248.712 27.6463C248.7 27.6895 248.66 27.7193 248.616 27.7193H247.478C247.412 27.7193 247.364 27.6559 247.382 27.592L247.978 25.4813C247.996 25.4175 247.948 25.354 247.882 25.354H246.836C246.77 25.354 246.722 25.2907 246.74 25.2269L247.062 24.0817C247.074 24.0386 247.113 24.0087 247.158 24.0087H248.308C248.353 24.0087 248.392 23.979 248.404 23.9358L249.031 21.7163C249.044 21.6732 249.083 21.6435 249.128 21.6435H250.226C250.266 21.6435 250.302 21.6669 250.318 21.7032L251.385 24.1219Z" fill="#00DE5A"/>
</g>
<path fill-rule="evenodd" clip-rule="evenodd" d="M345.014 5.6895C343.496 4.17082 341.586 3.04529 339.473 2.49948C338.183 1.95468 334.367 1.19359 327.491 1.19359C320.615 1.19359 316.798 1.95468 315.508 2.49948C313.395 3.04529 311.485 4.17082 309.966 5.6895C308.449 7.20817 307.322 9.11799 306.777 11.2314C306.231 12.5215 305.47 16.3864 305.47 23.2131C305.47 30.0398 306.231 33.9067 306.777 35.1959C307.322 37.3092 308.449 39.219 309.966 40.7377C311.485 42.2554 313.395 43.3819 315.508 43.9277C316.798 44.4735 320.534 45.2336 327.491 45.2336C334.448 45.2336 338.183 44.4735 339.473 43.9277C341.586 43.3819 343.496 42.2554 345.014 40.7377C346.533 39.219 347.659 37.3092 348.204 35.1959C348.75 33.9067 349.51 30.0265 349.51 23.2131C349.51 16.3997 348.75 12.5215 348.204 11.2314C347.659 9.11799 346.533 7.20817 345.014 5.6895Z" fill="white"/>
<path d="M327.491 0.596367C330.95 0.596385 333.649 0.788597 335.654 1.05088C337.601 1.30567 338.925 1.63207 339.656 1.93059C341.863 2.50748 343.854 3.68512 345.436 5.26761C347.018 6.84911 348.194 8.8383 348.771 11.0443C349.071 11.7758 349.399 13.1172 349.654 15.0744C349.916 17.0864 350.108 19.7851 350.108 23.2126C350.108 26.6405 349.916 29.3404 349.654 31.3528C349.399 33.3086 349.071 34.6494 348.771 35.3809C348.231 37.4491 347.164 39.3267 345.73 40.8566L345.436 41.1596C343.855 42.7401 341.865 43.9174 339.659 44.4947C338.216 45.0868 334.388 45.8308 327.491 45.8308C320.593 45.8308 316.763 45.0868 315.321 44.4947C313.254 43.9536 311.377 42.8857 309.847 41.4528L309.544 41.1596C307.964 39.5779 306.785 37.588 306.209 35.3809C305.91 34.6497 305.583 33.3126 305.328 31.3587C305.065 29.3478 304.873 26.6473 304.873 23.2126C304.873 19.7782 305.065 17.079 305.328 15.0685C305.583 13.1139 305.91 11.7766 306.209 11.0453C306.786 8.83859 307.964 6.84914 309.544 5.26761L309.847 4.97437C311.378 3.53965 313.256 2.47125 315.325 1.93059C316.056 1.63211 317.38 1.3057 319.328 1.05088C321.333 0.788593 324.032 0.596367 327.491 0.596367Z" stroke="black" stroke-opacity="0.07" stroke-width="1.19255"/>
<rect x="314.979" y="32.2218" width="18.0164" height="25.0227" rx="2" transform="rotate(-90 314.979 32.2218)" fill="#00DE5A"/>
<rect x="315.229" y="31.9718" width="17.5164" height="24.5227" rx="1.75" transform="rotate(-90 315.229 31.9718)" stroke="black" stroke-opacity="0.1" stroke-width="0.5"/>
<rect x="314.979" y="17.2081" width="25.0227" height="2.00182" fill="#00DE5A"/>
<rect x="314.979" y="17.2081" width="25.0227" height="2.00182" fill="black" fill-opacity="0.1"/>
<path d="M323.987 26.7168C323.987 27.4097 323.782 28.087 323.397 28.6631C323.012 29.2392 322.465 29.6882 321.825 29.9533C321.184 30.2185 320.48 30.2878 319.801 30.1527C319.121 30.0175 318.497 29.6838 318.007 29.1939C317.517 28.704 317.183 28.0798 317.048 27.4002C316.913 26.7207 316.982 26.0163 317.247 25.3762C317.513 24.7361 317.962 24.1889 318.538 23.804C319.114 23.4191 319.791 23.2136 320.484 23.2136C321.413 23.2136 322.304 23.5827 322.961 24.2397C323.618 24.8966 323.987 25.7877 323.987 26.7168ZM321.07 25.0703V26.8315L319.844 25.0703H318.837V28.3677H319.897V26.6012L321.123 28.3633H322.133V25.0703H321.07Z" fill="black"/>
<path fill-rule="evenodd" clip-rule="evenodd" d="M421.084 5.6895C419.565 4.17082 417.655 3.04529 415.542 2.49948C414.253 1.95468 410.436 1.19359 403.56 1.19359C396.684 1.19359 392.867 1.95468 391.577 2.49948C389.464 3.04529 387.554 4.17082 386.035 5.6895C384.518 7.20817 383.391 9.11799 382.846 11.2314C382.301 12.5215 381.539 16.3864 381.539 23.2131C381.539 30.0398 382.301 33.9067 382.846 35.1959C383.391 37.3092 384.518 39.219 386.035 40.7377C387.554 42.2554 389.464 43.3819 391.577 43.9277C392.867 44.4735 396.603 45.2336 403.56 45.2336C410.517 45.2336 414.253 44.4735 415.542 43.9277C417.655 43.3819 419.565 42.2554 421.084 40.7377C422.602 39.219 423.728 37.3092 424.274 35.1959C424.819 33.9067 425.58 30.0265 425.58 23.2131C425.58 16.3997 424.819 12.5215 424.274 11.2314C423.728 9.11799 422.602 7.20817 421.084 5.6895Z" fill="white"/>
<path d="M403.56 0.596367C407.019 0.596385 409.718 0.788597 411.723 1.05088C413.671 1.30567 414.995 1.63207 415.725 1.93059C417.933 2.50748 419.923 3.68512 421.506 5.26761C423.087 6.84911 424.263 8.8383 424.841 11.0443C425.14 11.7758 425.468 13.1172 425.723 15.0744C425.985 17.0864 426.177 19.7851 426.177 23.2126C426.177 26.6405 425.985 29.3404 425.723 31.3528C425.468 33.3086 425.14 34.6494 424.841 35.3809C424.3 37.4491 423.233 39.3267 421.799 40.8566L421.506 41.1596C419.924 42.7401 417.934 43.9174 415.728 44.4947C414.286 45.0868 410.457 45.8308 403.56 45.8308C396.662 45.8308 392.833 45.0868 391.39 44.4947C389.323 43.9536 387.446 42.8857 385.917 41.4528L385.613 41.1596C384.033 39.5779 382.855 37.588 382.278 35.3809C381.979 34.6497 381.652 33.3126 381.397 31.3587C381.134 29.3478 380.942 26.6473 380.942 23.2126C380.942 19.7782 381.134 17.079 381.397 15.0685C381.652 13.1139 381.979 11.7766 382.278 11.0453C382.855 8.83859 384.033 6.84914 385.613 5.26761L385.917 4.97437C387.447 3.53965 389.325 2.47125 391.394 1.93059C392.125 1.63211 393.449 1.3057 395.397 1.05088C397.402 0.788593 400.102 0.596367 403.56 0.596367Z" stroke="black" stroke-opacity="0.07" stroke-width="1.19255"/>
<mask id="path-27-inside-1_5_17205" fill="white">
<path d="M413.982 14.9556C415.136 14.9556 416.071 15.8908 416.071 17.0444V30.0699C416.071 31.2235 415.136 32.1587 413.982 32.1588H393.137C391.983 32.1587 391.048 31.2235 391.048 30.0699V17.0444C391.048 15.8908 391.983 14.9556 393.137 14.9556H413.982Z"/>
</mask>
<path d="M413.982 14.9556C415.136 14.9556 416.071 15.8908 416.071 17.0444V30.0699C416.071 31.2235 415.136 32.1587 413.982 32.1588H393.137C391.983 32.1587 391.048 31.2235 391.048 30.0699V17.0444C391.048 15.8908 391.983 14.9556 393.137 14.9556H413.982Z" fill="#00DE5A"/>
<path d="M413.982 14.9556L413.982 14.4334H413.982V14.9556ZM416.071 17.0444H416.593V17.0444L416.071 17.0444ZM416.071 30.0699L416.593 30.0699V30.0699H416.071ZM413.982 32.1588V32.681H413.982L413.982 32.1588ZM393.137 32.1588L393.137 32.681H393.137V32.1588ZM391.048 30.0699H390.526V30.0699L391.048 30.0699ZM391.048 17.0444L390.526 17.0444V17.0444H391.048ZM393.137 14.9556V14.4334H393.137L393.137 14.9556ZM413.982 14.9556L413.982 15.4778C414.847 15.4778 415.549 16.1792 415.549 17.0444L416.071 17.0444L416.593 17.0444C416.593 15.6024 415.424 14.4334 413.982 14.4334L413.982 14.9556ZM416.071 17.0444H415.549V30.0699H416.071H416.593V17.0444H416.071ZM416.071 30.0699L415.549 30.0699C415.549 30.9351 414.847 31.6365 413.982 31.6365L413.982 32.1588L413.982 32.681C415.424 32.6809 416.593 31.512 416.593 30.0699L416.071 30.0699ZM413.982 32.1588V31.6365H393.137V32.1588V32.681H413.982V32.1588ZM393.137 32.1588L393.137 31.6365C392.272 31.6365 391.57 30.9351 391.57 30.0699L391.048 30.0699L390.526 30.0699C390.526 31.512 391.695 32.6809 393.137 32.681L393.137 32.1588ZM391.048 30.0699H391.57V17.0444H391.048H390.526V30.0699H391.048ZM391.048 17.0444L391.57 17.0444C391.57 16.1792 392.272 15.4778 393.137 15.4778L393.137 14.9556L393.137 14.4334C391.695 14.4334 390.526 15.6024 390.526 17.0444L391.048 17.0444ZM393.137 14.9556V15.4778H413.982V14.9556V14.4334H393.137V14.9556Z" fill="black" fill-opacity="0.07" mask="url(#path-27-inside-1_5_17205)"/>
<path d="M391.757 16.0632L403.895 23.7521L415.284 16.0632" stroke="#00CE54"/>
<path d="M406.561 22.8448V20.3097H405.073V24.497L402.134 20.3097H400.558V22.8448H398.868V24.2826H400.558V26.805H402.046V22.6178L404.985 26.805H406.561V24.2826H408.251V22.8448H406.561Z" fill="black"/>
<path d="M402.004 20.56L404.868 24.6408L405.323 25.2889V20.56H406.311V23.0955H408.001V24.0328H406.311V26.5547H405.115L402.251 22.4738L401.796 21.8257V26.5547H400.808V24.0328H399.118V23.0955H400.808V20.56H402.004Z" stroke="black" stroke-opacity="0.1" stroke-width="0.5"/>
<path fill-rule="evenodd" clip-rule="evenodd" d="M497.153 5.6895C495.634 4.17082 493.724 3.04529 491.611 2.49948C490.322 1.95468 486.505 1.19359 479.629 1.19359C472.753 1.19359 468.937 1.95468 467.646 2.49948C465.533 3.04529 463.623 4.17082 462.105 5.6895C460.587 7.20817 459.46 9.11798 458.916 11.2314C458.37 12.5215 457.609 16.3864 457.609 23.2131C457.609 30.0398 458.37 33.9067 458.916 35.1959C459.46 37.3092 460.587 39.219 462.105 40.7377C463.623 42.2554 465.533 43.3819 467.646 43.9277C468.937 44.4735 472.672 45.2336 479.629 45.2336C486.586 45.2336 490.322 44.4735 491.611 43.9277C493.724 43.3819 495.634 42.2554 497.153 40.7377C498.671 39.219 499.797 37.3092 500.343 35.1959C500.889 33.9067 501.649 30.0265 501.649 23.2131C501.649 16.3997 500.889 12.5215 500.343 11.2314C499.797 9.11798 498.671 7.20817 497.153 5.6895Z" fill="white"/>
<path d="M479.63 0.621781C483.087 0.621799 485.786 0.813196 487.789 1.07532C489.734 1.32977 491.055 1.65604 491.782 1.95307C493.988 2.52828 495.976 3.70438 497.557 5.2852C499.137 6.86481 500.312 8.8517 500.887 11.0551C501.186 11.7838 501.513 13.1219 501.768 15.0773C502.03 17.0881 502.22 19.7858 502.22 23.2126C502.22 26.6397 502.03 29.3387 501.768 31.3499C501.513 33.3047 501.186 34.6426 500.887 35.3711C500.348 37.4365 499.283 39.3121 497.85 40.84L497.557 41.142C495.978 42.7204 493.991 43.8965 491.787 44.4722C490.349 45.0623 486.525 45.8054 479.63 45.8054C472.734 45.8054 468.909 45.0623 467.47 44.4722C465.405 43.9326 463.53 42.8665 462.002 41.4353L461.7 41.142C460.122 39.5624 458.945 37.5752 458.37 35.3711C458.072 34.6429 457.745 33.3079 457.49 31.3548C457.228 29.3451 457.037 26.6463 457.037 23.2126C457.037 19.7793 457.228 17.0816 457.49 15.0724C457.745 13.1187 458.072 11.7835 458.37 11.0551C458.945 8.85138 460.122 6.86463 461.7 5.2852L462.002 4.99196C463.531 3.55893 465.407 2.49225 467.474 1.95307C468.202 1.65598 469.523 1.32989 471.469 1.07532C473.473 0.813184 476.172 0.621781 479.63 0.621781Z" stroke="black" stroke-opacity="0.07" stroke-width="1.14286"/>
<path d="M473.903 30.4312H467.744V31.9115L473.903 31.9115L472.403 33.3918L473.45 34.4385L475.955 31.9512C476.127 31.7808 476.303 31.5916 476.322 31.3505C476.327 31.2901 476.326 31.2289 476.32 31.1679C476.265 30.6399 475.674 30.4313 475.144 30.4312L473.903 30.4312Z" fill="black"/>
<path d="M470.166 29.5403H476.325V28.06L470.166 28.06L471.667 26.5797L470.62 25.533L468.114 28.0203C467.943 28.1907 467.767 28.3799 467.747 28.621C467.742 28.6814 467.743 28.7426 467.749 28.8036C467.804 29.3316 468.395 29.5403 468.926 29.5403L470.166 29.5403Z" fill="black"/>
<mask id="path-36-inside-2_5_17205" fill="white">
<path d="M479.901 12.1244C485.982 12.1244 490.911 17.0538 490.911 23.1344C490.911 29.2151 485.982 34.1444 479.901 34.1444C478.477 34.1444 477.117 33.8704 475.868 33.3781L476.763 32.4994C477.049 32.2173 477.21 31.8321 477.21 31.4301V28.2113C477.21 27.6587 476.762 27.2104 476.209 27.2104H473.338C472.942 27.2104 472.62 26.8899 472.62 26.4939C472.62 26.3709 472.573 26.2525 472.488 26.1636L471.355 24.9799C470.982 24.59 470.366 24.5669 469.964 24.9271L469.178 25.6299C468.993 24.8279 468.891 23.993 468.891 23.1344C468.891 17.0538 473.82 12.1244 479.901 12.1244Z"/>
</mask>
<path d="M479.901 12.1244C485.982 12.1244 490.911 17.0538 490.911 23.1344C490.911 29.2151 485.982 34.1444 479.901 34.1444C478.477 34.1444 477.117 33.8704 475.868 33.3781L476.763 32.4994C477.049 32.2173 477.21 31.8321 477.21 31.4301V28.2113C477.21 27.6587 476.762 27.2104 476.209 27.2104H473.338C472.942 27.2104 472.62 26.8899 472.62 26.4939C472.62 26.3709 472.573 26.2525 472.488 26.1636L471.355 24.9799C470.982 24.59 470.366 24.5669 469.964 24.9271L469.178 25.6299C468.993 24.8279 468.891 23.993 468.891 23.1344C468.891 17.0538 473.82 12.1244 479.901 12.1244Z" fill="#00DE5A"/>
<path d="M490.911 23.1344H491.412V23.1344H490.911ZM475.868 33.3781L475.517 33.0211L474.968 33.5612L475.685 33.8437L475.868 33.3781ZM476.763 32.4994L477.113 32.8564L477.114 32.8559L476.763 32.4994ZM477.21 31.4301L477.711 31.4301V31.4301H477.21ZM477.21 28.2113H477.711V28.2111L477.21 28.2113ZM476.209 27.2104V27.7109H476.209L476.209 27.2104ZM473.338 27.2104L473.338 27.7109H473.338V27.2104ZM472.62 26.4939H472.12V26.494L472.62 26.4939ZM472.488 26.1636L472.85 25.8179L472.85 25.8175L472.488 26.1636ZM471.355 24.9799L471.717 24.6338L471.717 24.6337L471.355 24.9799ZM469.964 24.9271L470.298 25.3001L470.298 25.2998L469.964 24.9271ZM469.178 25.6299L468.691 25.7429L468.882 26.5665L469.512 26.0029L469.178 25.6299ZM468.891 23.1344H468.391V23.1344H468.891ZM479.901 12.1244V12.6249C485.705 12.6249 490.411 17.3302 490.411 23.1344H490.911H491.412C491.412 16.7774 486.258 11.624 479.901 11.624V12.1244ZM490.911 23.1344H490.411C490.411 28.9387 485.705 33.644 479.901 33.644V34.1444V34.6449C486.258 34.6449 491.412 29.4915 491.412 23.1344H490.911ZM479.901 34.1444V33.644C478.542 33.644 477.244 33.3825 476.052 32.9125L475.868 33.3781L475.685 33.8437C476.991 34.3583 478.412 34.6449 479.901 34.6449V34.1444ZM475.868 33.3781L476.219 33.7351L477.113 32.8564L476.763 32.4994L476.412 32.1424L475.517 33.0211L475.868 33.3781ZM476.763 32.4994L477.114 32.8559C477.496 32.4797 477.711 31.9661 477.711 31.4301L477.21 31.4301L476.71 31.43C476.71 31.6981 476.602 31.9548 476.411 32.1428L476.763 32.4994ZM477.21 31.4301H477.711V28.2113H477.21H476.71V31.4301H477.21ZM477.21 28.2113L477.711 28.2111C477.71 27.3825 477.039 26.7099 476.209 26.71L476.209 27.2104L476.209 27.7109C476.485 27.7109 476.71 27.935 476.71 28.2116L477.21 28.2113ZM476.209 27.2104V26.71H473.338V27.2104V27.7109H476.209V27.2104ZM473.338 27.2104L473.338 26.71C473.217 26.7099 473.121 26.6127 473.121 26.4939L472.62 26.4939L472.12 26.494C472.12 27.1671 472.666 27.7109 473.338 27.7109L473.338 27.2104ZM472.62 26.4939H473.121C473.121 26.2435 473.025 26.0009 472.85 25.8179L472.488 26.1636L472.126 26.5093C472.121 26.5041 472.12 26.4983 472.12 26.4939H472.62ZM472.488 26.1636L472.85 25.8175L471.717 24.6338L471.355 24.9799L470.994 25.3259L472.127 26.5096L472.488 26.1636ZM471.355 24.9799L471.717 24.6337C471.156 24.0487 470.233 24.0143 469.63 24.5543L469.964 24.9271L470.298 25.2998C470.5 25.1195 470.807 25.1314 470.994 25.326L471.355 24.9799ZM469.964 24.9271L469.631 24.554L468.845 25.2568L469.178 25.6299L469.512 26.0029L470.298 25.3001L469.964 24.9271ZM469.178 25.6299L469.666 25.5169C469.488 24.7504 469.392 23.9534 469.392 23.1344H468.891H468.391C468.391 24.0326 468.497 24.9054 468.691 25.7429L469.178 25.6299ZM468.891 23.1344H469.392C469.392 17.3302 474.097 12.6249 479.901 12.6249V12.1244V11.624C473.544 11.624 468.391 16.7774 468.391 23.1344H468.891Z" fill="black" fill-opacity="0.1" mask="url(#path-36-inside-2_5_17205)"/>
<path d="M482.983 22.4029V19.8002H481.455V24.0992L478.438 19.8002H476.819V22.4029H475.084V23.879H476.819V26.4688H478.347V22.1698L481.364 26.4688H482.983V23.879H484.718V22.4029H482.983Z" fill="black"/>
<path d="M478.308 20.0505L481.25 24.2427L481.705 24.8918V20.0505H482.733V22.6534H484.468V23.6289H482.733V26.2182H481.494L478.552 22.0259L478.097 21.3778V26.2182H477.069V23.6289H475.334V22.6534H477.069V20.0505H478.308Z" stroke="black" stroke-opacity="0.1" stroke-width="0.5"/>
<path fill-rule="evenodd" clip-rule="evenodd" d="M573.222 5.6895C571.703 4.17082 569.793 3.04529 567.68 2.49948C566.391 1.95468 562.574 1.19359 555.698 1.19359C548.823 1.19359 545.006 1.95468 543.716 2.49948C541.602 3.04529 539.692 4.17082 538.174 5.6895C536.656 7.20817 535.529 9.11799 534.985 11.2314C534.439 12.5215 533.678 16.3864 533.678 23.2131C533.678 30.0398 534.439 33.9067 534.985 35.1959C535.529 37.3092 536.656 39.219 538.174 40.7377C539.692 42.2554 541.602 43.3819 543.716 43.9277C545.006 44.4735 548.741 45.2336 555.698 45.2336C562.656 45.2336 566.391 44.4735 567.68 43.9277C569.793 43.3819 571.703 42.2554 573.222 40.7377C574.741 39.219 575.866 37.3092 576.412 35.1959C576.958 33.9067 577.718 30.0265 577.718 23.2131C577.718 16.3997 576.958 12.5215 576.412 11.2314C575.866 9.11799 574.741 7.20817 573.222 5.6895Z" fill="white"/>
<path d="M555.699 0.596367C559.158 0.596385 561.857 0.788597 563.861 1.05088C565.809 1.30567 567.133 1.63207 567.863 1.93059C570.071 2.50748 572.061 3.68511 573.644 5.26761C575.225 6.84911 576.402 8.8383 576.979 11.0443C577.279 11.7758 577.607 13.1172 577.862 15.0744C578.124 17.0864 578.315 19.7851 578.315 23.2126C578.315 26.6405 578.124 29.3404 577.862 31.3528C577.607 33.3086 577.279 34.6494 576.979 35.3809C576.438 37.4491 575.371 39.3267 573.937 40.8566L573.644 41.1596C572.062 42.7401 570.073 43.9174 567.866 44.4947C566.424 45.0868 562.595 45.8308 555.699 45.8308C548.801 45.8308 544.971 45.0868 543.529 44.4947C541.461 43.9536 539.584 42.8857 538.055 41.4528L537.752 41.1596C536.171 39.5779 534.993 37.588 534.417 35.3809C534.117 34.6497 533.79 33.3126 533.535 31.3587C533.273 29.3478 533.081 26.6473 533.081 23.2126C533.081 19.7782 533.273 17.079 533.535 15.0685C533.79 13.1139 534.117 11.7766 534.417 11.0453C534.993 8.83859 536.171 6.84914 537.752 5.26761L538.055 4.97437C539.585 3.53964 541.463 2.47125 543.532 1.93059C544.263 1.63211 545.587 1.3057 547.535 1.05088C549.54 0.788593 552.24 0.596367 555.699 0.596367Z" stroke="black" stroke-opacity="0.07" stroke-width="1.19255"/>
<mask id="path-42-inside-3_5_17205" fill="white">
<path d="M564.311 12.2036C564.722 12.2036 565.056 12.5301 565.056 12.9328V33.4231L564.899 33.7408C564.75 34.0415 564.352 34.1128 564.107 33.8825L562.949 32.7907C562.758 32.6105 562.46 32.6087 562.267 32.7868L560.975 33.9793C560.597 34.3274 560.017 34.3331 559.633 33.9929L558.254 32.7731C558.06 32.6017 557.767 32.6063 557.579 32.7838L556.337 33.9548C555.956 34.3139 555.362 34.3195 554.975 33.9665L553.674 32.7789C553.483 32.6045 553.191 32.6045 553 32.7789L551.687 33.9763C551.305 34.3249 550.72 34.3248 550.338 33.9763L549.057 32.8073C548.853 32.6213 548.537 32.6353 548.351 32.8386L547.208 34.0829C546.919 34.3979 546.409 34.2256 546.346 33.8268L546.339 33.7447V12.9328C546.339 12.5302 546.673 12.2038 547.084 12.2036H564.311Z"/>
</mask>
<path d="M564.311 12.2036C564.722 12.2036 565.056 12.5301 565.056 12.9328V33.4231L564.899 33.7408C564.75 34.0415 564.352 34.1128 564.107 33.8825L562.949 32.7907C562.758 32.6105 562.46 32.6087 562.267 32.7868L560.975 33.9793C560.597 34.3274 560.017 34.3331 559.633 33.9929L558.254 32.7731C558.06 32.6017 557.767 32.6063 557.579 32.7838L556.337 33.9548C555.956 34.3139 555.362 34.3195 554.975 33.9665L553.674 32.7789C553.483 32.6045 553.191 32.6045 553 32.7789L551.687 33.9763C551.305 34.3249 550.72 34.3248 550.338 33.9763L549.057 32.8073C548.853 32.6213 548.537 32.6353 548.351 32.8386L547.208 34.0829C546.919 34.3979 546.409 34.2256 546.346 33.8268L546.339 33.7447V12.9328C546.339 12.5302 546.673 12.2038 547.084 12.2036H564.311Z" fill="#00DE5A"/>
<path d="M565.056 12.9328H565.557V12.9328L565.056 12.9328ZM565.056 33.4231L565.505 33.6452L565.557 33.5402V33.4231H565.056ZM564.899 33.7408L565.347 33.9635L565.347 33.9629L564.899 33.7408ZM564.107 33.8825L563.764 34.2467L563.764 34.2467L564.107 33.8825ZM562.949 32.7907L563.292 32.4265L563.292 32.4264L562.949 32.7907ZM562.267 32.7868L561.928 32.4188L561.927 32.419L562.267 32.7868ZM560.975 33.9793L561.314 34.3471L561.314 34.347L560.975 33.9793ZM559.633 33.9929L559.301 34.3677L559.301 34.3678L559.633 33.9929ZM558.254 32.7731L558.586 32.3983L558.586 32.3982L558.254 32.7731ZM557.579 32.7838L557.236 32.4196L557.236 32.4197L557.579 32.7838ZM556.337 33.9548L556.68 34.319L556.68 34.319L556.337 33.9548ZM554.975 33.9665L554.638 34.3362L554.638 34.3362L554.975 33.9665ZM553.674 32.7789L554.011 32.4093L554.011 32.4093L553.674 32.7789ZM553 32.7789L553.337 33.1487L553.337 33.1486L553 32.7789ZM551.687 33.9763L551.35 33.6066L551.35 33.6066L551.687 33.9763ZM550.338 33.9763L550.001 34.346L550.001 34.3461L550.338 33.9763ZM549.057 32.8073L548.719 33.1769L548.719 33.177L549.057 32.8073ZM548.351 32.8386L548.719 33.1771L548.72 33.177L548.351 32.8386ZM547.208 34.0829L547.577 34.4214L547.577 34.4214L547.208 34.0829ZM546.346 33.8268L545.847 33.8683L545.849 33.8864L545.852 33.9043L546.346 33.8268ZM546.339 33.7447H545.839V33.7655L545.84 33.7862L546.339 33.7447ZM546.339 12.9328L545.839 12.9328V12.9328H546.339ZM547.084 12.2036V11.7031L547.084 11.7031L547.084 12.2036ZM564.311 12.2036V12.7041C564.457 12.7041 564.556 12.8171 564.556 12.9328L565.056 12.9328L565.557 12.9328C565.557 12.243 564.988 11.7031 564.311 11.7031V12.2036ZM565.056 12.9328H564.556V33.4231H565.056H565.557V12.9328H565.056ZM565.056 33.4231L564.608 33.2009L564.451 33.5186L564.899 33.7408L565.347 33.9629L565.505 33.6452L565.056 33.4231ZM564.899 33.7408L564.451 33.518L564.451 33.5183L564.107 33.8825L563.764 34.2467C564.253 34.7076 565.048 34.5647 565.347 33.9635L564.899 33.7408ZM564.107 33.8825L564.451 33.5183L563.292 32.4265L562.949 32.7907L562.606 33.1548L563.764 34.2467L564.107 33.8825ZM562.949 32.7907L563.292 32.4264C562.91 32.0663 562.314 32.0625 561.928 32.4188L562.267 32.7868L562.606 33.1548L562.606 33.1549L562.949 32.7907ZM562.267 32.7868L561.927 32.419L560.635 33.6115L560.975 33.9793L561.314 34.347L562.606 33.1545L562.267 32.7868ZM560.975 33.9793L560.635 33.6114C560.447 33.7853 560.157 33.7884 559.964 33.6181L559.633 33.9929L559.301 34.3678C559.878 34.8779 560.748 34.8695 561.314 34.3471L560.975 33.9793ZM559.633 33.9929L559.964 33.6182L558.586 32.3983L558.254 32.7731L557.923 33.1478L559.301 34.3677L559.633 33.9929ZM558.254 32.7731L558.586 32.3982C558.198 32.0553 557.612 32.0647 557.236 32.4196L557.579 32.7838L557.922 33.148L557.923 33.148L558.254 32.7731ZM557.579 32.7838L557.236 32.4197L555.993 33.5906L556.337 33.9548L556.68 34.319L557.922 33.148L557.579 32.7838ZM556.337 33.9548L555.993 33.5906C555.802 33.7707 555.505 33.7729 555.312 33.5969L554.975 33.9665L554.638 34.3362C555.218 34.8662 556.109 34.8572 556.68 34.319L556.337 33.9548ZM554.975 33.9665L555.312 33.5969L554.011 32.4093L553.674 32.7789L553.337 33.1486L554.638 34.3362L554.975 33.9665ZM553.674 32.7789L554.011 32.4093C553.629 32.0605 553.044 32.0605 552.662 32.4093L553 32.7789L553.337 33.1486H553.337L553.674 32.7789ZM553 32.7789L552.662 32.4092L551.35 33.6066L551.687 33.9763L552.024 34.3461L553.337 33.1487L553 32.7789ZM551.687 33.9763L551.35 33.6066C551.159 33.7808 550.866 33.7808 550.675 33.6065L550.338 33.9763L550.001 34.3461C550.574 34.8688 551.451 34.8689 552.024 34.3461L551.687 33.9763ZM550.338 33.9763L550.675 33.6066L549.394 32.4376L549.057 32.8073L548.719 33.177L550.001 34.346L550.338 33.9763ZM549.057 32.8073L549.394 32.4376C548.986 32.0657 548.355 32.0938 547.982 32.5002L548.351 32.8386L548.72 33.177L548.719 33.1769L549.057 32.8073ZM548.351 32.8386L547.982 32.5001L546.84 33.7444L547.208 34.0829L547.577 34.4214L548.719 33.1771L548.351 32.8386ZM547.208 34.0829L546.84 33.7443C546.836 33.7481 546.835 33.7485 546.836 33.7477C546.837 33.747 546.839 33.7462 546.841 33.7457C546.845 33.7448 546.845 33.7459 546.841 33.7448C546.837 33.7436 546.836 33.7419 546.837 33.7428C546.837 33.7435 546.839 33.7448 546.839 33.7467C546.84 33.7488 546.841 33.75 546.84 33.7492L546.346 33.8268L545.852 33.9043C545.977 34.7036 546.995 35.0551 547.577 34.4214L547.208 34.0829ZM546.346 33.8268L546.845 33.7852L546.838 33.7031L546.339 33.7447L545.84 33.7862L545.847 33.8683L546.346 33.8268ZM546.339 33.7447H546.84V12.9328H546.339H545.839V33.7447H546.339ZM546.339 12.9328L546.84 12.9328C546.84 12.8167 546.939 12.7041 547.084 12.7041L547.084 12.2036L547.084 11.7031C546.406 11.7035 545.839 12.2437 545.839 12.9328L546.339 12.9328ZM547.084 12.2036V12.7041H564.311V12.2036V11.7031H547.084V12.2036Z" fill="black" fill-opacity="0.1" mask="url(#path-42-inside-3_5_17205)"/>
<path d="M555.749 21.7352L557.923 18.7511H559.337V21.4469H560.702V22.9776H559.337V25.6743H557.777V21.4136L555.758 24.2023L553.73 21.4039V25.6743H552.18V22.9776H550.693V21.4469H552.18V18.7511H553.593L555.749 21.7352Z" fill="black"/>
<path fill-rule="evenodd" clip-rule="evenodd" d="M649.291 5.6895C647.772 4.17082 645.863 3.04529 643.749 2.49948C642.46 1.95468 638.643 1.19359 631.767 1.19359C624.892 1.19359 621.075 1.95468 619.785 2.49948C617.671 3.04529 615.762 4.17082 614.243 5.6895C612.725 7.20817 611.599 9.11799 611.054 11.2314C610.508 12.5215 609.747 16.3864 609.747 23.2131C609.747 30.0398 610.508 33.9067 611.054 35.1959C611.599 37.3092 612.725 39.219 614.243 40.7377C615.762 42.2554 617.671 43.3819 619.785 43.9277C621.075 44.4735 624.81 45.2336 631.767 45.2336C638.725 45.2336 642.46 44.4735 643.749 43.9277C645.863 43.3819 647.772 42.2554 649.291 40.7377C650.81 39.219 651.935 37.3092 652.481 35.1959C653.027 33.9067 653.787 30.0265 653.787 23.2131C653.787 16.3997 653.027 12.5215 652.481 11.2314C651.935 9.11799 650.81 7.20817 649.291 5.6895Z" fill="white"/>
<path d="M631.768 0.621781C635.226 0.621799 637.924 0.813196 639.928 1.07532C641.872 1.32977 643.193 1.65604 643.921 1.95307C646.126 2.52827 648.115 3.70438 649.695 5.2852C651.275 6.86481 652.45 8.8517 653.026 11.0551C653.324 11.7838 653.652 13.1219 653.906 15.0773C654.168 17.0881 654.359 19.7858 654.359 23.2126C654.359 26.6397 654.168 29.3387 653.906 31.3499C653.652 33.3047 653.324 34.6426 653.026 35.3711C652.45 37.5749 651.275 39.5622 649.695 41.142C648.116 42.7204 646.129 43.8965 643.925 44.4722C642.488 45.0623 638.663 45.8054 631.768 45.8054C624.872 45.8054 621.047 45.0623 619.608 44.4722C617.543 43.9326 615.668 42.8665 614.141 41.4353L613.839 41.142C612.26 39.5624 611.083 37.5752 610.508 35.3711C610.21 34.6429 609.884 33.3079 609.629 31.3548C609.366 29.3451 609.175 26.6463 609.175 23.2126C609.175 19.7793 609.366 17.0816 609.629 15.0724C609.884 13.1187 610.21 11.7835 610.508 11.0551C611.083 8.85138 612.26 6.86463 613.839 5.2852L614.141 4.99196C615.669 3.55893 617.546 2.49225 619.612 1.95307C620.34 1.65598 621.661 1.32989 623.607 1.07532C625.611 0.813184 628.31 0.621781 631.768 0.621781Z" stroke="black" stroke-opacity="0.07" stroke-width="1.14286"/>
<path fill-rule="evenodd" clip-rule="evenodd" d="M649.291 5.6895C647.772 4.17082 645.863 3.04529 643.749 2.49948C642.46 1.95468 638.643 1.19359 631.767 1.19359C624.892 1.19359 621.075 1.95468 619.785 2.49948C617.671 3.04529 615.762 4.17082 614.243 5.6895C612.725 7.20817 611.599 9.11799 611.054 11.2314C610.508 12.5215 609.747 16.3864 609.747 23.2131C609.747 30.0398 610.508 33.9067 611.054 35.1959C611.599 37.3092 612.725 39.219 614.243 40.7377C615.762 42.2554 617.671 43.3819 619.785 43.9277C621.075 44.4735 624.81 45.2336 631.767 45.2336C638.725 45.2336 642.46 44.4735 643.749 43.9277C645.863 43.3819 647.772 42.2554 649.291 40.7377C650.81 39.219 651.935 37.3092 652.481 35.1959C653.027 33.9067 653.787 30.0265 653.787 23.2131C653.787 16.3997 653.027 12.5215 652.481 11.2314C651.935 9.11799 650.81 7.20817 649.291 5.6895Z" fill="white"/>
<path d="M631.768 0.621781C635.226 0.621799 637.924 0.813196 639.928 1.07532C641.872 1.32977 643.193 1.65604 643.921 1.95307C646.126 2.52827 648.115 3.70438 649.695 5.2852C651.275 6.86481 652.45 8.8517 653.026 11.0551C653.324 11.7838 653.652 13.1219 653.906 15.0773C654.168 17.0881 654.359 19.7858 654.359 23.2126C654.359 26.6397 654.168 29.3387 653.906 31.3499C653.652 33.3047 653.324 34.6426 653.026 35.3711C652.45 37.5749 651.275 39.5622 649.695 41.142C648.116 42.7204 646.129 43.8965 643.925 44.4722C642.488 45.0623 638.663 45.8054 631.768 45.8054C624.872 45.8054 621.047 45.0623 619.608 44.4722C617.543 43.9326 615.668 42.8665 614.141 41.4353L613.839 41.142C612.26 39.5624 611.083 37.5752 610.508 35.3711C610.21 34.6429 609.884 33.3079 609.629 31.3548C609.366 29.3451 609.175 26.6463 609.175 23.2126C609.175 19.7793 609.366 17.0816 609.629 15.0724C609.884 13.1187 610.21 11.7835 610.508 11.0551C611.083 8.85138 612.26 6.86463 613.839 5.2852L614.141 4.99196C615.669 3.55893 617.546 2.49225 619.612 1.95307C620.34 1.65598 621.661 1.32989 623.607 1.07532C625.611 0.813184 628.31 0.621781 631.768 0.621781Z" stroke="black" stroke-opacity="0.07" stroke-width="1.14286"/>
<circle cx="639.468" cy="29.8512" r="4.92495" fill="#CAD1DC"/>
<circle cx="639.468" cy="29.8512" r="4.67495" stroke="black" stroke-opacity="0.1" stroke-width="0.5"/>
<mask id="path-51-inside-4_5_17205" fill="white">
<path fill-rule="evenodd" clip-rule="evenodd" d="M621.032 19.4267C622.953 13.7836 629.082 10.7779 634.721 12.7107C636.315 13.2559 637.701 14.1425 638.823 15.255C641.201 17.6162 642.402 21.0061 641.932 24.4166C641.18 24.0768 640.346 23.8868 639.468 23.8868C636.16 23.8869 633.479 26.5681 633.479 29.8757C633.479 31.1195 633.858 32.2748 634.507 33.2322C632.385 33.9046 630.037 33.929 627.767 33.1511C626.371 32.6724 625.139 31.9364 624.101 31.0144C620.935 28.2084 619.584 23.6778 621.032 19.4267Z"/>
</mask>
<path fill-rule="evenodd" clip-rule="evenodd" d="M621.032 19.4267C622.953 13.7836 629.082 10.7779 634.721 12.7107C636.315 13.2559 637.701 14.1425 638.823 15.255C641.201 17.6162 642.402 21.0061 641.932 24.4166C641.18 24.0768 640.346 23.8868 639.468 23.8868C636.16 23.8869 633.479 26.5681 633.479 29.8757C633.479 31.1195 633.858 32.2748 634.507 33.2322C632.385 33.9046 630.037 33.929 627.767 33.1511C626.371 32.6724 625.139 31.9364 624.101 31.0144C620.935 28.2084 619.584 23.6778 621.032 19.4267Z" fill="#00DE5A"/>
<path d="M621.032 19.4267L621.506 19.5881L621.506 19.588L621.032 19.4267ZM634.721 12.7107L634.559 13.1841L634.559 13.1842L634.721 12.7107ZM638.823 15.255L639.175 14.8999L639.175 14.8997L638.823 15.255ZM641.932 24.4166L641.726 24.8726L642.336 25.1486L642.428 24.4849L641.932 24.4166ZM639.468 23.8868V23.3864H639.468L639.468 23.8868ZM633.479 29.8757L632.979 29.8757V29.8757H633.479ZM634.507 33.2322L634.658 33.7093L635.298 33.5067L634.921 32.9514L634.507 33.2322ZM627.767 33.1511L627.604 33.6245L627.604 33.6245L627.767 33.1511ZM624.101 31.0144L624.434 30.6403L624.433 30.6399L624.101 31.0144ZM621.032 19.4267L621.506 19.588C623.337 14.2071 629.182 11.341 634.559 13.1841L634.721 12.7107L634.884 12.2372C628.983 10.2148 622.568 13.3601 620.558 19.2655L621.032 19.4267ZM634.721 12.7107L634.559 13.1842C636.079 13.7042 637.401 14.5495 638.47 15.6103L638.823 15.255L639.175 14.8997C638.002 13.7355 636.551 12.8076 634.883 12.2371L634.721 12.7107ZM638.823 15.255L638.47 15.6101C640.739 17.863 641.884 21.0971 641.436 24.3483L641.932 24.4166L642.428 24.4849C642.919 20.9151 641.662 17.3694 639.175 14.8999L638.823 15.255ZM641.932 24.4166L642.138 23.9606C641.323 23.5922 640.419 23.3864 639.468 23.3864V23.8868V24.3873C640.273 24.3873 641.037 24.5614 641.726 24.8726L641.932 24.4166ZM639.468 23.8868L639.468 23.3864C635.884 23.3865 632.979 26.2917 632.979 29.8757L633.479 29.8757L633.979 29.8757C633.979 26.8445 636.437 24.3874 639.468 24.3873L639.468 23.8868ZM633.479 29.8757H632.979C632.979 31.2228 633.39 32.4754 634.093 33.5131L634.507 33.2322L634.921 32.9514C634.327 32.0742 633.979 31.0163 633.979 29.8757H633.479ZM634.507 33.2322L634.356 32.7552C632.332 33.3963 630.094 33.4196 627.929 32.6777L627.767 33.1511L627.604 33.6245C629.979 34.4384 632.438 34.4129 634.658 33.7093L634.507 33.2322ZM627.767 33.1511L627.929 32.6777C626.598 32.221 625.423 31.5192 624.434 30.6403L624.101 31.0144L623.769 31.3885C624.855 32.3536 626.145 33.1238 627.604 33.6245L627.767 33.1511ZM624.101 31.0144L624.433 30.6399C621.413 27.9628 620.125 23.6415 621.506 19.5881L621.032 19.4267L620.558 19.2654C619.043 23.7141 620.458 28.4541 623.769 31.3889L624.101 31.0144Z" fill="black" fill-opacity="0.1" mask="url(#path-51-inside-4_5_17205)"/>
<path d="M637.466 29.8512H641.47" stroke="black" stroke-linecap="round"/>
<path d="M639.468 27.8494L639.468 31.8531" stroke="black" stroke-linecap="round"/>
<path d="M631.513 22.7471L633.688 19.763H635.101V22.4588H636.467V23.9895H635.101V25.7753C634.845 26.0533 634.614 26.3543 634.413 26.6745L634.405 26.6862H633.541V22.4255L631.523 25.2142L629.494 22.4158V26.6862H627.944V23.9895H626.457V22.4588H627.944V19.763H629.358L631.513 22.7471Z" fill="black"/>
<path fill-rule="evenodd" clip-rule="evenodd" d="M725.36 5.6895C723.842 4.17082 721.932 3.04529 719.818 2.49948C718.529 1.95468 714.712 1.19359 707.837 1.19359C700.961 1.19359 697.144 1.95468 695.854 2.49948C693.74 3.04529 691.831 4.17082 690.312 5.6895C688.794 7.20817 687.668 9.11799 687.123 11.2314C686.577 12.5215 685.816 16.3864 685.816 23.2131C685.816 30.0398 686.577 33.9067 687.123 35.1959C687.668 37.3092 688.794 39.219 690.312 40.7377C691.831 42.2554 693.74 43.3819 695.854 43.9277C697.144 44.4735 700.879 45.2336 707.837 45.2336C714.794 45.2336 718.529 44.4735 719.818 43.9277C721.932 43.3819 723.842 42.2554 725.36 40.7377C726.879 39.219 728.004 37.3092 728.55 35.1959C729.096 33.9067 729.856 30.0265 729.856 23.2131C729.856 16.3997 729.096 12.5215 728.55 11.2314C728.004 9.11799 726.879 7.20817 725.36 5.6895Z" fill="white"/>
<path d="M707.837 0.621781C711.295 0.621799 713.993 0.813196 715.997 1.07532C717.942 1.32977 719.262 1.65604 719.99 1.95307C722.195 2.52827 724.184 3.70438 725.765 5.2852C727.344 6.86481 728.519 8.8517 729.095 11.0551C729.393 11.7838 729.721 13.1219 729.975 15.0773C730.237 17.0881 730.428 19.7858 730.428 23.2126C730.428 26.6397 730.237 29.3387 729.975 31.3499C729.721 33.3047 729.393 34.6426 729.095 35.3711C728.519 37.5749 727.344 39.5622 725.765 41.142C724.185 42.7204 722.198 43.8965 719.995 44.4722C718.557 45.0623 714.732 45.8054 707.837 45.8054C700.941 45.8054 697.116 45.0623 695.678 44.4722C693.612 43.9326 691.737 42.8665 690.21 41.4353L689.908 41.142C688.329 39.5624 687.152 37.5752 686.578 35.3711C686.279 34.6429 685.953 33.3079 685.698 31.3548C685.436 29.3451 685.244 26.6463 685.244 23.2126C685.244 19.7793 685.436 17.0816 685.698 15.0724C685.953 13.1187 686.279 11.7835 686.578 11.0551C687.152 8.85138 688.329 6.86463 689.908 5.2852L690.21 4.99196C691.738 3.55893 693.615 2.49225 695.682 1.95307C696.409 1.65598 697.731 1.32989 699.676 1.07532C701.68 0.813184 704.379 0.621781 707.837 0.621781Z" stroke="black" stroke-opacity="0.07" stroke-width="1.14286"/>
<mask id="path-58-inside-5_5_17205" fill="white">
<path d="M702.242 15.02C702.794 15.02 703.243 15.4681 703.243 16.0209V31.2222C703.243 31.775 702.794 32.2231 702.242 32.2231H698.828C697.675 32.2231 696.74 31.2879 696.74 30.1343V17.1088C696.74 15.9552 697.675 15.02 698.828 15.02H702.242ZM706.487 15.02C707.039 15.0201 707.488 15.4682 707.488 16.0209V31.2222C707.488 31.775 707.039 32.2231 706.487 32.2231H706.106C705.553 32.2231 705.105 31.775 705.105 31.2222V16.0209C705.105 15.4681 705.553 15.02 706.106 15.02H706.487ZM711.951 15.02C712.503 15.02 712.952 15.4681 712.952 16.0209V31.2222C712.952 31.775 712.503 32.2231 711.951 32.2231H710.155C709.602 32.2231 709.154 31.775 709.154 31.2222V16.0209C709.154 15.4681 709.602 15.02 710.155 15.02H711.951ZM716.917 15.02C718.071 15.02 719.007 15.9552 719.007 17.1088V30.1343C719.007 31.288 718.071 32.2231 716.917 32.2231H714.361V16.0209C714.361 15.4682 714.809 15.02 715.362 15.02H716.917Z"/>
</mask>
<path d="M702.242 15.02C702.794 15.02 703.243 15.4681 703.243 16.0209V31.2222C703.243 31.775 702.794 32.2231 702.242 32.2231H698.828C697.675 32.2231 696.74 31.2879 696.74 30.1343V17.1088C696.74 15.9552 697.675 15.02 698.828 15.02H702.242ZM706.487 15.02C707.039 15.0201 707.488 15.4682 707.488 16.0209V31.2222C707.488 31.775 707.039 32.2231 706.487 32.2231H706.106C705.553 32.2231 705.105 31.775 705.105 31.2222V16.0209C705.105 15.4681 705.553 15.02 706.106 15.02H706.487ZM711.951 15.02C712.503 15.02 712.952 15.4681 712.952 16.0209V31.2222C712.952 31.775 712.503 32.2231 711.951 32.2231H710.155C709.602 32.2231 709.154 31.775 709.154 31.2222V16.0209C709.154 15.4681 709.602 15.02 710.155 15.02H711.951ZM716.917 15.02C718.071 15.02 719.007 15.9552 719.007 17.1088V30.1343C719.007 31.288 718.071 32.2231 716.917 32.2231H714.361V16.0209C714.361 15.4682 714.809 15.02 715.362 15.02H716.917Z" fill="#181818"/>
<path d="M702.242 15.02V15.5422V15.5422V15.02ZM703.243 16.0209H703.765V16.0209L703.243 16.0209ZM703.243 31.2222H703.765V31.2222H703.243ZM702.242 32.2231V32.7454V32.7454V32.2231ZM698.828 32.2231L698.828 32.7454H698.828V32.2231ZM696.74 30.1343H696.217V30.1343L696.74 30.1343ZM696.74 17.1088L696.217 17.1088V17.1088H696.74ZM698.828 15.02V14.4978H698.828L698.828 15.02ZM706.487 15.02L706.487 14.4978H706.487V15.02ZM707.488 16.0209H708.01H707.488ZM707.488 31.2222H708.01V31.2222H707.488ZM706.487 32.2231V32.7454H706.487L706.487 32.2231ZM705.105 31.2222H704.582H705.105ZM705.105 16.0209L704.582 16.0209V16.0209H705.105ZM712.952 16.0209H713.474H712.952ZM712.952 31.2222H713.474V31.2222H712.952ZM710.155 32.2231L710.155 32.7454H710.155V32.2231ZM709.154 31.2222H708.632H709.154ZM709.154 16.0209L708.632 16.0209V16.0209H709.154ZM710.155 15.02V14.4978H710.155L710.155 15.02ZM716.917 15.02V14.4978V14.4978V15.02ZM719.007 17.1088H719.529V17.1088L719.007 17.1088ZM719.007 30.1343L719.529 30.1343V30.1343H719.007ZM716.917 32.2231V31.7009V31.7009V32.2231ZM714.361 32.2231H713.839V32.7454H714.361V32.2231ZM714.361 16.0209L713.839 16.0209V16.0209H714.361ZM715.362 15.02V14.4978H715.362L715.362 15.02ZM702.242 15.02V15.5422C702.506 15.5422 702.72 15.7565 702.72 16.0209L703.243 16.0209L703.765 16.0209C703.765 15.1797 703.083 14.4978 702.242 14.4978V15.02ZM703.243 16.0209H702.72V31.2222H703.243H703.765V16.0209H703.243ZM703.243 31.2222H702.72C702.72 31.4866 702.506 31.7009 702.242 31.7009V32.2231V32.7454C703.083 32.7454 703.765 32.0634 703.765 31.2222H703.243ZM702.242 32.2231V31.7009H698.828V32.2231V32.7454H702.242V32.2231ZM698.828 32.2231L698.828 31.7009C697.963 31.7009 697.262 30.9995 697.262 30.1343L696.74 30.1343L696.217 30.1343C696.217 31.5763 697.386 32.7453 698.828 32.7454L698.828 32.2231ZM696.74 30.1343H697.262V17.1088H696.74H696.217V30.1343H696.74ZM696.74 17.1088L697.262 17.1088C697.262 16.2436 697.963 15.5422 698.828 15.5422L698.828 15.02L698.828 14.4978C697.386 14.4978 696.217 15.6668 696.217 17.1088L696.74 17.1088ZM698.828 15.02V15.5422H702.242V15.02V14.4978H698.828V15.02ZM706.487 15.02L706.487 15.5422C706.751 15.5422 706.965 15.7566 706.965 16.0209H707.488H708.01C708.01 15.1797 707.328 14.4979 706.487 14.4978L706.487 15.02ZM707.488 16.0209H706.965V31.2222H707.488H708.01V16.0209H707.488ZM707.488 31.2222H706.965C706.965 31.4865 706.751 31.7009 706.487 31.7009L706.487 32.2231L706.487 32.7454C707.328 32.7453 708.01 32.0634 708.01 31.2222H707.488ZM706.487 32.2231V31.7009H706.106V32.2231V32.7454H706.487V32.2231ZM706.106 32.2231V31.7009C705.841 31.7009 705.627 31.4866 705.627 31.2222H705.105H704.582C704.582 32.0634 705.264 32.7454 706.106 32.7454V32.2231ZM705.105 31.2222H705.627V16.0209H705.105H704.582V31.2222H705.105ZM705.105 16.0209H705.627C705.627 15.7565 705.841 15.5422 706.106 15.5422V15.02V14.4978C705.264 14.4978 704.582 15.1797 704.582 16.0209L705.105 16.0209ZM706.106 15.02V15.5422H706.487V15.02V14.4978H706.106V15.02ZM711.951 15.02V15.5422C712.215 15.5422 712.429 15.7565 712.429 16.0209H712.952H713.474C713.474 15.1797 712.792 14.4978 711.951 14.4978V15.02ZM712.952 16.0209H712.429V31.2222H712.952H713.474V16.0209H712.952ZM712.952 31.2222H712.429C712.429 31.4866 712.215 31.7009 711.951 31.7009V32.2231V32.7454C712.792 32.7454 713.474 32.0634 713.474 31.2222H712.952ZM711.951 32.2231V31.7009H710.155V32.2231V32.7454H711.951V32.2231ZM710.155 32.2231L710.155 31.7009C709.891 31.7009 709.676 31.4866 709.676 31.2222H709.154H708.632C708.632 32.0634 709.314 32.7454 710.155 32.7454L710.155 32.2231ZM709.154 31.2222H709.676V16.0209H709.154H708.632V31.2222H709.154ZM709.154 16.0209H709.676C709.676 15.7565 709.891 15.5422 710.155 15.5422L710.155 15.02L710.155 14.4978C709.314 14.4978 708.632 15.1797 708.632 16.0209L709.154 16.0209ZM710.155 15.02V15.5422H711.951V15.02V14.4978H710.155V15.02ZM716.917 15.02V15.5422C717.783 15.5422 718.485 16.2439 718.485 17.1088L719.007 17.1088L719.529 17.1088C719.529 15.6665 718.359 14.4978 716.917 14.4978V15.02ZM719.007 17.1088H718.485V30.1343H719.007H719.529V17.1088H719.007ZM719.007 30.1343L718.485 30.1343C718.485 30.9992 717.783 31.7009 716.917 31.7009V32.2231V32.7454C718.359 32.7454 719.529 31.5767 719.529 30.1343L719.007 30.1343ZM716.917 32.2231V31.7009H714.361V32.2231V32.7454H716.917V32.2231ZM714.361 32.2231H714.883V16.0209H714.361H713.839V32.2231H714.361ZM714.361 16.0209L714.883 16.0209C714.883 15.7566 715.098 15.5422 715.362 15.5422L715.362 15.02L715.362 14.4978C714.521 14.4979 713.839 15.1797 713.839 16.0209L714.361 16.0209ZM715.362 15.02V15.5422H716.917V15.02V14.4978H715.362V15.02Z" fill="black" fill-opacity="0.07" mask="url(#path-58-inside-5_5_17205)"/>
<circle cx="716.474" cy="28.1553" r="5.98912" fill="white"/>
<circle cx="716.474" cy="28.1306" r="4.92495" fill="#CAD1DC"/>
<circle cx="716.474" cy="28.1306" r="4.67495" stroke="black" stroke-opacity="0.1" stroke-width="0.5"/>
<path d="M716.474 26.1287L716.474 30.1324" stroke="black" stroke-linecap="round"/>
<path d="M714.472 28.1306H718.476" stroke="black" stroke-linecap="round"/>
<defs>
<clipPath id="clip0_5_17205">
<rect width="28" height="28" fill="white" transform="translate(237.264 9.35592) scale(1.00091)"/>
</clipPath>
</defs>
</svg>
