<svg width="47" height="47" viewBox="0 0 47 47" fill="none" xmlns="http://www.w3.org/2000/svg">
<path fill-rule="evenodd" clip-rule="evenodd" d="M41.2402 5.7597C39.7028 4.2223 37.7694 3.08289 35.63 2.53035C34.3249 1.97883 30.461 1.20835 23.5005 1.20835C16.54 1.20835 12.6761 1.97883 11.37 2.53035C9.23055 3.08289 7.29718 4.2223 5.75978 5.7597C4.22339 7.2971 3.08297 9.23047 2.53144 11.3699C1.97891 12.676 1.20843 16.5885 1.20843 23.4994C1.20843 30.4103 1.97891 34.3249 2.53144 35.6299C3.08297 37.7694 4.22339 39.7027 5.75978 41.2401C7.29718 42.7765 9.23055 43.917 11.37 44.4695C12.6761 45.022 16.4575 45.7915 23.5005 45.7915C30.5435 45.7915 34.3249 45.022 35.63 44.4695C37.7694 43.917 39.7028 42.7765 41.2402 41.2401C42.7776 39.7027 43.917 37.7694 44.4696 35.6299C45.0221 34.3249 45.7916 30.3969 45.7916 23.4994C45.7916 16.602 45.0221 12.676 44.4696 11.3699C43.917 9.23047 42.7776 7.2971 41.2402 5.7597Z" fill="white"/>
<path d="M23.501 0.603764C27.0024 0.603782 29.7349 0.798365 31.7643 1.06388C33.7358 1.32182 35.0761 1.65223 35.8154 1.95444C38.0503 2.53844 40.0653 3.7306 41.6673 5.33261C43.2683 6.93361 44.4591 8.94734 45.0435 11.1806C45.347 11.9211 45.6789 13.279 45.937 15.2603C46.2023 17.2971 46.3961 20.0291 46.3962 23.4989C46.3962 26.969 46.2023 29.7023 45.937 31.7395C45.6792 33.7194 45.3469 35.0767 45.0435 35.8173C44.496 37.9109 43.416 39.8118 41.9642 41.3605L41.6673 41.6672C40.0663 43.2672 38.0521 44.4591 35.8183 45.0434C34.3583 45.6429 30.4823 46.396 23.501 46.3961C16.5177 46.3961 12.6409 45.6429 11.1807 45.0434C9.08762 44.4957 7.18756 43.4146 5.63944 41.9641L5.33269 41.6672C3.73249 40.066 2.53978 38.0516 1.9565 35.8173C1.65325 35.0771 1.32207 33.7235 1.06397 31.7455C0.798353 29.7097 0.603845 26.9759 0.603845 23.4989C0.603863 20.0222 0.798364 17.2896 1.06397 15.2544C1.3222 13.2757 1.65321 11.9219 1.9565 11.1816C2.53987 8.94762 3.73271 6.93364 5.33269 5.33261L5.63944 5.03576C7.18874 3.58334 9.09006 2.50177 11.1846 1.95444C11.9243 1.65228 13.2649 1.32184 15.2366 1.06388C17.2663 0.79836 19.9994 0.603764 23.501 0.603764Z" stroke="black" stroke-opacity="0.07" stroke-width="1.19255"/>
<g clip-path="url(#clip0_5_17108)">
<path d="M35.1524 14.6152C35.7097 14.6152 36.1657 15.0711 36.1657 15.6284V23.7671C35.2022 23.2186 34.0901 22.9053 32.9052 22.9052C29.2331 22.9052 26.256 25.91 26.2558 29.617C26.2558 30.7907 26.5547 31.8939 27.079 32.8537H14.8873C13.2053 32.8537 11.8476 31.4959 11.8476 29.8139V15.6284C11.8476 15.0711 12.3036 14.6152 12.8608 14.6152H35.1524Z" fill="#EDB219"/>
<path d="M35.3899 14.6152C35.7962 14.6152 36.1349 14.9608 36.135 15.3979V23.6978C35.2173 23.2153 34.1748 22.9409 33.0685 22.9408C29.3963 22.9408 26.4191 25.9465 26.419 29.6537C26.419 30.8122 26.7097 31.9025 27.2215 32.8537H15.5582C14.0492 32.8537 12.8303 31.5729 12.8302 29.9871V15.3979C12.8302 14.9709 13.1593 14.6152 13.5753 14.6152H35.3899Z" fill="black" fill-opacity="0.1"/>
<mask id="path-5-inside-1_5_17108" fill="white">
<path d="M35.1524 14.6152C35.7097 14.6152 36.1657 15.0711 36.1657 15.6284L35.0772 23.2407C34.4535 23.0451 33.7906 22.9399 33.1031 22.9399C29.431 22.9399 26.4539 25.9446 26.4537 29.6517C26.4537 30.811 26.7447 31.9021 27.2572 32.8537H11.8476C10.1656 32.8537 8.80783 31.4959 8.80783 29.8139L11.8476 15.6284C11.8476 15.0711 12.3036 14.6152 12.8608 14.6152H35.1524Z"/>
</mask>
<path d="M35.1524 14.6152C35.7097 14.6152 36.1657 15.0711 36.1657 15.6284L35.0772 23.2407C34.4535 23.0451 33.7906 22.9399 33.1031 22.9399C29.431 22.9399 26.4539 25.9446 26.4537 29.6517C26.4537 30.811 26.7447 31.9021 27.2572 32.8537H11.8476C10.1656 32.8537 8.80783 31.4959 8.80783 29.8139L11.8476 15.6284C11.8476 15.0711 12.3036 14.6152 12.8608 14.6152H35.1524Z" fill="#FFBF1B"/>
<path d="M36.1657 15.6284L36.6672 15.7001L36.6723 15.6644V15.6284H36.1657ZM35.0772 23.2407L34.9257 23.7241L35.4944 23.9024L35.5787 23.3124L35.0772 23.2407ZM33.1031 22.9399L33.1032 22.4332H33.1031V22.9399ZM26.4537 29.6517L25.947 29.6516V29.6517H26.4537ZM27.2572 32.8537V33.3603H28.1054L27.7032 32.6135L27.2572 32.8537ZM11.8476 32.8537V33.3603V33.3603V32.8537ZM8.80783 29.8139L8.31245 29.7078L8.3012 29.7603V29.8139H8.80783ZM11.8476 15.6284L12.343 15.7346L12.3542 15.6821V15.6284H11.8476ZM35.1524 14.6152V15.1218C35.4299 15.1218 35.659 15.3509 35.659 15.6284H36.1657H36.6723C36.6723 14.7913 35.9895 14.1085 35.1524 14.1085V14.6152ZM36.1657 15.6284L35.6641 15.5567L34.5757 23.169L35.0772 23.2407L35.5787 23.3124L36.6672 15.7001L36.1657 15.6284ZM35.0772 23.2407L35.2288 22.7572C34.5566 22.5465 33.8426 22.4333 33.1032 22.4332L33.1031 22.9399L33.1031 23.4465C33.7385 23.4465 34.3504 23.5438 34.9257 23.7241L35.0772 23.2407ZM33.1031 22.9399V22.4332C29.1467 22.4332 25.9472 25.6692 25.947 29.6516L26.4537 29.6517L26.9603 29.6517C26.9605 26.2199 29.7152 23.4465 33.1031 23.4465V22.9399ZM26.4537 29.6517H25.947C25.947 30.8967 26.2597 32.0701 26.8111 33.0939L27.2572 32.8537L27.7032 32.6135C27.2296 31.7341 26.9603 30.7253 26.9603 29.6517H26.4537ZM27.2572 32.8537V32.3471H11.8476V32.8537V33.3603H27.2572V32.8537ZM11.8476 32.8537V32.3471C10.4454 32.3471 9.31446 31.2161 9.31446 29.8139H8.80783H8.3012C8.3012 31.7758 9.88579 33.3603 11.8476 33.3603V32.8537ZM8.80783 29.8139L9.30321 29.9201L12.343 15.7346L11.8476 15.6284L11.3522 15.5223L8.31245 29.7078L8.80783 29.8139ZM11.8476 15.6284H12.3542C12.3542 15.3509 12.5834 15.1218 12.8608 15.1218V14.6152V14.1085C12.0238 14.1085 11.341 14.7913 11.341 15.6284H11.8476ZM12.8608 14.6152V15.1218H35.1524V14.6152V14.1085H12.8608V14.6152Z" fill="black" fill-opacity="0.1" mask="url(#path-5-inside-1_5_17108)"/>
<path d="M18.3668 22.1419L18.7482 24.1333H17.8009C17.757 24.1333 17.7181 24.1615 17.7045 24.2033L17.3431 25.3157C17.3218 25.3811 17.3706 25.4483 17.4395 25.4483H18.9979L19.5955 28.1439C19.6058 28.1903 19.6469 28.2233 19.6945 28.2233H20.4544C20.4935 28.2233 20.5291 28.2008 20.5459 28.1655L22.3571 24.3529L23.1617 28.143C23.1716 28.1898 23.2129 28.2233 23.2608 28.2233H24.0622C24.101 28.2233 24.1363 28.2012 24.1533 28.1664L25.4791 25.4483H26.765C26.8047 25.4483 26.8406 25.4252 26.8572 25.3892L27.3668 24.2768C27.3975 24.2097 27.3485 24.1333 27.2747 24.1333H26.1546L27.0564 22.165C27.0872 22.0979 27.0381 22.0215 26.9643 22.0215H25.871C25.8322 22.0215 25.7969 22.0435 25.7799 22.0783L24.0003 25.7221L23.1963 22.1008C23.186 22.0545 23.1449 22.0215 23.0974 22.0215H22.2381C22.1993 22.0215 22.1638 22.0437 22.1469 22.0787L20.3854 25.7221L19.63 22.1021C19.6202 22.0551 19.5788 22.0215 19.5308 22.0215H18.4663C18.4027 22.0215 18.3549 22.0794 18.3668 22.1419Z" fill="black"/>
<path d="M11.8475 15.6284C11.8475 15.0711 12.3034 14.6152 12.8607 14.6152H35.1523C35.7096 14.6152 36.1655 15.0711 36.1655 15.6284L35.7298 18.6682H11.199L11.8475 15.6284Z" fill="black" fill-opacity="0.1"/>
</g>
<mask id="mask0_5_17108" style="mask-type:alpha" maskUnits="userSpaceOnUse" x="27" y="24" width="12" height="12">
<path d="M33.2112 35.2216C36.2891 35.2216 38.7841 32.7265 38.7841 29.6487C38.7841 26.5709 36.2891 24.0758 33.2112 24.0758C30.1334 24.0758 27.6384 26.5709 27.6384 29.6487C27.6384 32.7265 30.1334 35.2216 33.2112 35.2216Z" fill="#2C74FF"/>
</mask>
<g mask="url(#mask0_5_17108)">
<path d="M33.2112 35.2216C36.2891 35.2216 38.7841 32.7265 38.7841 29.6487C38.7841 26.5709 36.2891 24.0758 33.2112 24.0758C30.1334 24.0758 27.6384 26.5709 27.6384 29.6487C27.6384 32.7265 30.1334 35.2216 33.2112 35.2216Z" fill="#CAD1DC"/>
<path d="M33.2112 24.3291C36.1492 24.3291 38.5308 26.7108 38.5308 29.6487C38.5308 32.5866 36.1492 34.9683 33.2112 34.9683C30.2733 34.9683 27.8917 32.5866 27.8917 29.6487C27.8917 26.7108 30.2733 24.3291 33.2112 24.3291Z" stroke="black" stroke-opacity="0.1" stroke-width="0.5"/>
<path d="M33.4666 26.8266L34.5935 27.9535C34.6152 27.9753 34.6152 28.0109 34.5935 28.0327L34.0924 28.5337L32.5833 30.0428C32.5616 30.0646 32.5259 30.0646 32.5041 30.0428L31.0347 28.5734C31.0129 28.5516 30.9772 28.5516 30.9554 28.5734L29.9692 29.5596L29.4483 30.0805L27.8997 31.6291L25.7311 33.7977C25.7093 33.8195 25.7093 33.8551 25.7311 33.8769L26.8976 35.0434C26.9193 35.0652 26.955 35.0652 26.9768 35.0434L29.1453 32.8748L30.8802 31.14C30.902 31.1182 30.9376 31.1182 30.9594 31.14L31.8308 32.0114L32.4289 32.6094C32.4507 32.6312 32.4863 32.6312 32.5081 32.6094L33.2349 31.8826L35.3361 29.7814L35.8372 29.2804C35.859 29.2586 35.8946 29.2586 35.9164 29.2804L37.0432 30.4072C37.0789 30.4429 37.1383 30.4171 37.1383 30.3676V26.789C37.1383 26.7573 37.1126 26.7335 37.0828 26.7335H33.5042C33.4547 26.7335 33.429 26.793 33.4646 26.8286L33.4666 26.8266Z" fill="black"/>
</g>
<defs>
<clipPath id="clip0_5_17108">
<rect width="28" height="28" fill="white" transform="translate(8.3012 9.54889) scale(1.01325)"/>
</clipPath>
</defs>
</svg>
