<svg width="47" height="47" viewBox="0 0 47 47" fill="none" xmlns="http://www.w3.org/2000/svg">
<path fill-rule="evenodd" clip-rule="evenodd" d="M41.2402 5.75972C39.7028 4.22232 37.7694 3.0829 35.63 2.53037C34.3249 1.97884 30.461 1.20837 23.5005 1.20837C16.54 1.20837 12.6761 1.97884 11.37 2.53037C9.23055 3.0829 7.29718 4.22232 5.75978 5.75972C4.22339 7.29712 3.08297 9.23049 2.53144 11.3699C1.97891 12.676 1.20843 16.5885 1.20843 23.4994C1.20843 30.4103 1.97891 34.3249 2.53144 35.6299C3.08297 37.7694 4.22339 39.7028 5.75978 41.2402C7.29718 42.7765 9.23055 43.917 11.37 44.4695C12.6761 45.022 16.4575 45.7915 23.5005 45.7915C30.5435 45.7915 34.3249 45.022 35.63 44.4695C37.7694 43.917 39.7028 42.7765 41.2402 41.2402C42.7776 39.7028 43.917 37.7694 44.4696 35.6299C45.0221 34.3249 45.7916 30.3969 45.7916 23.4994C45.7916 16.602 45.0221 12.676 44.4696 11.3699C43.917 9.23049 42.7776 7.29712 41.2402 5.75972Z" fill="white"/>
<path d="M23.501 0.603784C27.0024 0.603802 29.7349 0.798384 31.7643 1.0639C33.7358 1.32184 35.0761 1.65225 35.8154 1.95446C38.0503 2.53846 40.0653 3.73062 41.6673 5.33263C43.2683 6.93363 44.4591 8.94735 45.0435 11.1806C45.347 11.9211 45.6789 13.2791 45.937 15.2603C46.2023 17.2971 46.3961 20.0291 46.3962 23.4989C46.3962 26.9691 46.2023 29.7023 45.937 31.7395C45.6792 33.7194 45.3469 35.0767 45.0435 35.8173C44.496 37.9109 43.416 39.8118 41.9642 41.3605L41.6673 41.6672C40.0663 43.2672 38.0521 44.4591 35.8183 45.0434C34.3583 45.6429 30.4823 46.3961 23.501 46.3961C16.5177 46.3961 12.6409 45.6429 11.1807 45.0434C9.08762 44.4957 7.18756 43.4147 5.63944 41.9641L5.33269 41.6672C3.73249 40.066 2.53978 38.0516 1.9565 35.8173C1.65325 35.0771 1.32207 33.7235 1.06397 31.7455C0.798353 29.7098 0.603845 26.976 0.603845 23.4989C0.603863 20.0222 0.798364 17.2897 1.06397 15.2544C1.3222 13.2757 1.65321 11.9219 1.9565 11.1816C2.53987 8.94764 3.73271 6.93366 5.33269 5.33263L5.63944 5.03578C7.18874 3.58336 9.09006 2.50178 11.1846 1.95446C11.9243 1.6523 13.2649 1.32186 15.2366 1.0639C17.2663 0.79838 19.9994 0.603784 23.501 0.603784Z" stroke="black" stroke-opacity="0.07" stroke-width="1.19255"/>
<path d="M18.6871 13.3674H28.313L30.4521 23.2284H16.548L18.6871 13.3674Z" fill="#FFBF1B"/>
<path d="M28.1094 13.6207L30.1378 22.9755H16.8617L18.8911 13.6207H28.1094Z" stroke="black" stroke-opacity="0.1" stroke-width="0.5"/>
<path d="M12.1754 22.7583H21.8013L23.9404 32.6193H10.0363L12.1754 22.7583Z" fill="#FFBF1B"/>
<path d="M21.5977 23.0116L23.6262 32.3664H10.35L12.3794 23.0116H21.5977Z" stroke="black" stroke-opacity="0.1" stroke-width="0.5"/>
<path d="M25.1988 22.7583H34.8247L36.9638 32.6193H23.0597L25.1988 22.7583Z" fill="#FFBF1B"/>
<path d="M34.621 23.0116L36.6495 32.3664H23.3733L25.4028 23.0116H34.621Z" stroke="black" stroke-opacity="0.1" stroke-width="0.5"/>
</svg>
