<svg width="47" height="47" viewBox="0 0 47 47" fill="none" xmlns="http://www.w3.org/2000/svg">
<path fill-rule="evenodd" clip-rule="evenodd" d="M41.2402 5.75966C39.7028 4.22226 37.7694 3.08284 35.63 2.53031C34.3249 1.97878 30.461 1.20831 23.5005 1.20831C16.54 1.20831 12.6761 1.97878 11.37 2.53031C9.23055 3.08284 7.29718 4.22226 5.75978 5.75966C4.22339 7.29706 3.08297 9.23043 2.53144 11.3699C1.97891 12.6759 1.20843 16.5885 1.20843 23.4994C1.20843 30.4103 1.97891 34.3248 2.53144 35.6299C3.08297 37.7693 4.22339 39.7027 5.75978 41.2401C7.29718 42.7765 9.23055 43.9169 11.37 44.4694C12.6761 45.022 16.4575 45.7914 23.5005 45.7914C30.5435 45.7914 34.3249 45.022 35.63 44.4694C37.7694 43.9169 39.7028 42.7765 41.2402 41.2401C42.7776 39.7027 43.917 37.7693 44.4696 35.6299C45.0221 34.3248 45.7916 30.3968 45.7916 23.4994C45.7916 16.6019 45.0221 12.6759 44.4696 11.3699C43.917 9.23043 42.7776 7.29706 41.2402 5.75966Z" fill="white"/>
<path d="M23.501 0.603722C27.0024 0.60374 29.7349 0.798322 31.7643 1.06384C33.7358 1.32177 35.0761 1.65219 35.8154 1.9544C38.0503 2.5384 40.0653 3.73056 41.6673 5.33257C43.2683 6.93357 44.4591 8.94729 45.0435 11.1805C45.347 11.921 45.6789 13.279 45.937 15.2603C46.2023 17.2971 46.3961 20.0291 46.3962 23.4989C46.3962 26.969 46.2023 29.7022 45.937 31.7395C45.6792 33.7194 45.3469 35.0767 45.0435 35.8172C44.496 37.9109 43.416 39.8117 41.9642 41.3604L41.6673 41.6672C40.0663 43.2672 38.0521 44.459 35.8183 45.0434C34.3583 45.6428 30.4823 46.396 23.501 46.396C16.5177 46.396 12.6409 45.6428 11.1807 45.0434C9.08762 44.4957 7.18756 43.4146 5.63944 41.964L5.33269 41.6672C3.73249 40.0659 2.53978 38.0515 1.9565 35.8172C1.65325 35.077 1.32207 33.7234 1.06397 31.7454C0.798353 29.7097 0.603845 26.9759 0.603845 23.4989C0.603863 20.0221 0.798364 17.2896 1.06397 15.2543C1.3222 13.2756 1.65321 11.9219 1.9565 11.1815C2.53987 8.94758 3.73271 6.9336 5.33269 5.33257L5.63944 5.03571C7.18874 3.5833 9.09006 2.50172 11.1846 1.9544C11.9243 1.65223 13.2649 1.3218 15.2366 1.06384C17.2663 0.798318 19.9994 0.603722 23.501 0.603722Z" stroke="black" stroke-opacity="0.07" stroke-width="1.19255"/>
<path d="M23.9334 11.7827H23.878C17.1781 11.7827 11.7467 17.214 11.7467 23.914V23.9694C11.7467 30.6693 17.1781 36.1007 23.878 36.1007H23.9334C30.6333 36.1007 36.0647 30.6693 36.0647 23.9694V23.914C36.0647 17.214 30.6333 11.7827 23.9334 11.7827Z" fill="url(#paint0_linear_5_19030)"/>
<path d="M23.878 12.036H23.9334C30.4934 12.036 35.8114 17.3539 35.8114 23.914V23.9694C35.8114 30.5294 30.4934 35.8474 23.9334 35.8474H23.878C17.3179 35.8474 12 30.5294 12 23.9694V23.914C12 17.4565 17.153 12.2026 23.5712 12.0399L23.878 12.036Z" stroke="black" stroke-opacity="0.1" stroke-width="0.5"/>
<path d="M27.6685 16.7302H20.1438C18.065 16.7302 16.3738 18.4214 16.3738 20.5002V27.3842C16.3738 29.463 18.065 31.1542 20.1438 31.1542H27.6685C29.7474 31.1542 31.4385 29.463 31.4385 27.3842V20.5002C31.4385 18.4214 29.7474 16.7302 27.6685 16.7302ZM17.7038 20.5002C17.7038 19.1549 18.7986 18.0601 20.1438 18.0601H27.6685C29.0138 18.0601 30.1086 19.1549 30.1086 20.5002V27.3842C30.1086 28.7295 29.0138 29.8243 27.6685 29.8243H20.1438C18.7986 29.8243 17.7038 28.7295 17.7038 27.3842V20.5002Z" fill="white"/>
<path d="M23.9061 27.4481C25.8393 27.4481 27.4129 25.8754 27.4129 23.9414C27.4129 22.0074 25.8401 20.4346 23.9061 20.4346C21.9721 20.4346 20.3994 22.0074 20.3994 23.9414C20.3994 25.8754 21.9721 27.4481 23.9061 27.4481ZM23.9061 21.7654C25.1066 21.7654 26.0829 22.7418 26.0829 23.9422C26.0829 25.1427 25.1066 26.1191 23.9061 26.1191C22.7057 26.1191 21.7293 25.1427 21.7293 23.9422C21.7293 22.7418 22.7057 21.7654 23.9061 21.7654Z" fill="white"/>
<path d="M27.7374 21.0011C28.2578 21.0011 28.682 20.5777 28.682 20.0563C28.682 19.5349 28.2586 19.1114 27.7374 19.1114C27.2161 19.1114 26.7928 19.5349 26.7928 20.0563C26.7928 20.5777 27.2161 21.0011 27.7374 21.0011Z" fill="white"/>
<defs>
<linearGradient id="paint0_linear_5_19030" x1="15.2994" y1="32.548" x2="32.512" y2="15.3363" gradientUnits="userSpaceOnUse">
<stop stop-color="#FAAD4F"/>
<stop offset="0.35" stop-color="#DD2A7B"/>
<stop offset="0.62" stop-color="#9537B0"/>
<stop offset="1" stop-color="#515BD4"/>
</linearGradient>
</defs>
</svg>
