<svg width="731" height="47" viewBox="0 0 731 47" fill="none" xmlns="http://www.w3.org/2000/svg">
<path fill-rule="evenodd" clip-rule="evenodd" d="M40.7351 5.68914C39.2165 4.17057 37.3068 3.04511 35.1936 2.49934C33.9045 1.95458 30.0879 1.19354 23.2126 1.19354C16.3374 1.19354 12.5208 1.95458 11.2307 2.49934C9.11749 3.04511 7.2078 4.17057 5.68923 5.68914C4.17166 7.20771 3.0452 9.11739 2.50043 11.2306C1.95467 12.5207 1.19363 16.3853 1.19363 23.2116C1.19363 30.0378 1.95467 33.9044 2.50043 35.1935C3.0452 37.3067 4.17166 39.2164 5.68923 40.735C7.2078 42.2525 9.11749 43.379 11.2307 43.9248C12.5208 44.4705 16.2559 45.2306 23.2126 45.2306C30.1694 45.2306 33.9045 44.4705 35.1936 43.9248C37.3068 43.379 39.2165 42.2525 40.7351 40.735C42.2536 39.2164 43.3791 37.3067 43.9249 35.1935C44.4706 33.9044 45.2307 30.0245 45.2307 23.2116C45.2307 16.3986 44.4706 12.5207 43.9249 11.2306C43.3791 9.11739 42.2536 7.20771 40.7351 5.68914Z" fill="white"/>
<path d="M23.2131 0.596357C26.6716 0.596375 29.3707 0.788574 31.3753 1.05084C33.3226 1.30561 34.6464 1.63199 35.3767 1.93049C37.5842 2.50734 39.5745 3.68489 41.1569 5.26728C42.7383 6.84867 43.9145 8.83773 44.4918 11.0436C44.7916 11.775 45.1194 13.1164 45.3743 15.0734C45.6364 17.0852 45.8278 19.7838 45.8278 23.2111C45.8278 26.6387 45.6364 29.3384 45.3743 31.3507C45.1196 33.3064 44.7914 34.6471 44.4918 35.3785C43.9509 37.4465 42.8842 39.3241 41.4501 40.8538L41.1569 41.1568C39.5755 42.7372 37.586 43.9145 35.3796 44.4917C33.9374 45.0838 30.1089 45.8277 23.2131 45.8278C16.3154 45.8278 12.486 45.0838 11.0437 44.4917C8.9763 43.9507 7.09952 42.8828 5.57036 41.45L5.26737 41.1568C3.68677 39.5752 2.50867 37.5855 1.93253 35.3785C1.633 34.6474 1.30587 33.3104 1.05093 31.3566C0.788574 29.3458 0.596449 26.6455 0.596449 23.2111C0.596467 19.7769 0.788584 17.0778 1.05093 15.0675C1.306 13.1131 1.63296 11.7759 1.93253 11.0446C2.50876 8.83801 3.68699 6.8487 5.26737 5.26728L5.57036 4.97406C7.10069 3.53943 8.97872 2.47111 11.0476 1.93049C11.7782 1.63203 13.1024 1.30564 15.05 1.05084C17.0548 0.78857 19.7545 0.596357 23.2131 0.596357Z" stroke="black" stroke-opacity="0.07" stroke-width="1.19255"/>
<path d="M29.1656 12.2794V18.5402L15.6517 19.0113H11.7025V15.9673C11.7025 15.0019 12.3914 14.1741 13.3407 13.9989L27.983 11.2952C28.5982 11.1816 29.1656 11.6539 29.1656 12.2794Z" fill="#FFBF1B"/>
<path d="M29.1656 12.2794V18.5402L15.6517 19.0113H11.7025V15.9673C11.7025 15.0019 12.3914 14.1741 13.3407 13.9989L27.983 11.2952C28.5982 11.1816 29.1656 11.6539 29.1656 12.2794Z" fill="black" fill-opacity="0.2"/>
<path d="M28.0287 11.5411C28.4898 11.4561 28.915 11.8102 28.9152 12.279V18.2978L15.6433 18.761H11.9527V15.9677C11.9527 15.123 12.5559 14.3979 13.3865 14.2446L28.0287 11.5411Z" stroke="black" stroke-opacity="0.1" stroke-width="0.5"/>
<path d="M32.269 14.5767V17.7506L13.018 18.3662V17.3357C13.018 16.844 13.3752 16.4251 13.8608 16.3474L31.1101 13.5884C31.7182 13.4911 32.269 13.9609 32.269 14.5767Z" fill="#FFBF1B"/>
<path d="M32.269 14.5767V17.7506L13.018 18.3662V17.3357C13.018 16.844 13.3752 16.4251 13.8608 16.3474L31.1101 13.5884C31.7182 13.4911 32.269 13.9609 32.269 14.5767Z" fill="black" fill-opacity="0.2"/>
<path d="M32.269 14.5767V17.7506L13.018 18.3662V17.3357C13.018 16.844 13.3752 16.4251 13.8608 16.3474L31.1101 13.5884C31.7182 13.4911 32.269 13.9609 32.269 14.5767Z" fill="black" fill-opacity="0.2"/>
<path d="M31.1495 13.835C31.6055 13.7621 32.0184 14.115 32.0184 14.5769V17.5071L13.2682 18.1072V17.336C13.2682 16.9672 13.5364 16.6524 13.9006 16.5942L31.1495 13.835Z" stroke="black" stroke-opacity="0.1" stroke-width="0.5"/>
<path d="M11.7025 15.4692C11.7025 16.1904 12.2871 16.7751 13.0084 16.7751H33.721C34.2737 16.7751 34.7218 17.2232 34.7218 17.776V32.3455C34.7218 32.8983 34.2737 33.3464 33.721 33.3464H12.7033C12.1506 33.3464 11.7025 32.8983 11.7025 32.3455V15.4692Z" fill="#FFBF1B"/>
<path d="M11.9527 16.6098C12.2302 16.8668 12.6002 17.0252 13.0083 17.0252H33.721C34.1355 17.0252 34.4716 17.3613 34.4716 17.7758V32.3457C34.4715 32.7602 34.1355 33.0963 33.721 33.0963H12.7033C12.2888 33.0963 11.9528 32.7602 11.9527 32.3457V16.6098Z" stroke="black" stroke-opacity="0.1" stroke-width="0.5"/>
<rect x="30.218" y="23.2121" width="4.85418" height="3.32604" rx="1" fill="#CC9916"/>
<rect x="30.468" y="23.4621" width="4.35418" height="2.82604" rx="0.75" stroke="black" stroke-opacity="0.1" stroke-width="0.5"/>
<path fill-rule="evenodd" clip-rule="evenodd" d="M116.799 5.68914C115.28 4.17057 113.371 3.04511 111.258 2.49934C109.968 1.95458 106.152 1.19354 99.2766 1.19354C92.4014 1.19354 88.5848 1.95458 87.2947 2.49934C85.1815 3.04511 83.2718 4.17057 81.7532 5.68914C80.2356 7.20771 79.1092 9.11739 78.5644 11.2306C78.0186 12.5207 77.2576 16.3853 77.2576 23.2116C77.2576 30.0378 78.0186 33.9044 78.5644 35.1935C79.1092 37.3067 80.2356 39.2164 81.7532 40.735C83.2718 42.2525 85.1815 43.379 87.2947 43.9248C88.5848 44.4705 92.3199 45.2306 99.2766 45.2306C106.233 45.2306 109.968 44.4705 111.258 43.9248C113.371 43.379 115.28 42.2525 116.799 40.735C118.318 39.2164 119.443 37.3067 119.989 35.1935C120.535 33.9044 121.295 30.0245 121.295 23.2116C121.295 16.3986 120.535 12.5207 119.989 11.2306C119.443 9.11739 118.318 7.20771 116.799 5.68914Z" fill="white"/>
<path d="M99.2771 0.596357C102.736 0.596375 105.435 0.788574 107.439 1.05084C109.387 1.30561 110.71 1.63198 111.441 1.93049C113.648 2.50734 115.639 3.68489 117.221 5.26728C118.802 6.84867 119.978 8.83773 120.556 11.0436C120.856 11.775 121.183 13.1164 121.438 15.0734C121.7 17.0852 121.892 19.7838 121.892 23.2111C121.892 26.6387 121.7 29.3384 121.438 31.3507C121.184 33.3064 120.855 34.6471 120.556 35.3785C120.015 37.4465 118.948 39.3241 117.514 40.8538L117.221 41.1568C115.639 42.7372 113.65 43.9145 111.444 44.4917C110.001 45.0838 106.173 45.8277 99.2771 45.8278C92.3793 45.8278 88.55 45.0838 87.1077 44.4917C85.0403 43.9507 83.1635 42.8828 81.6343 41.45L81.3313 41.1568C79.7507 39.5752 78.5726 37.5855 77.9965 35.3785C77.697 34.6474 77.3698 33.3104 77.1149 31.3566C76.8525 29.3458 76.6604 26.6455 76.6604 23.2111C76.6604 19.7769 76.8526 17.0778 77.1149 15.0675C77.37 13.1131 77.6969 11.7759 77.9965 11.0446C78.5727 8.83801 79.751 6.8487 81.3313 5.26728L81.6343 4.97406C83.1647 3.53943 85.0427 2.47111 87.1116 1.93049C87.8422 1.63203 89.1664 1.30564 91.114 1.05084C93.1188 0.78857 95.8184 0.596357 99.2771 0.596357Z" stroke="black" stroke-opacity="0.07" stroke-width="1.19255"/>
<path d="M103.788 10.9134V17.1742L90.2738 17.6453H86.3245V14.6013C86.3245 13.636 87.0135 12.8081 87.9628 12.6329L102.605 9.92922C103.22 9.81564 103.788 10.2879 103.788 10.9134Z" fill="#FFBF1B"/>
<path d="M103.788 10.9134V17.1742L90.2738 17.6453H86.3245V14.6013C86.3245 13.636 87.0135 12.8081 87.9628 12.6329L102.605 9.92922C103.22 9.81564 103.788 10.2879 103.788 10.9134Z" fill="black" fill-opacity="0.2"/>
<path d="M102.651 10.1751C103.112 10.0902 103.537 10.4442 103.537 10.913V16.9318L90.2654 17.3951H86.5748V14.6017C86.5748 13.757 87.178 13.0319 88.0086 12.8786L102.651 10.1751Z" stroke="black" stroke-opacity="0.1" stroke-width="0.5"/>
<path d="M106.891 13.2107V16.3846L87.6401 17.0003V15.9697C87.6401 15.478 87.9973 15.0591 88.4829 14.9815L105.732 12.2224C106.34 12.1251 106.891 12.5949 106.891 13.2107Z" fill="#FFBF1B"/>
<path d="M106.891 13.2107V16.3846L87.6401 17.0003V15.9697C87.6401 15.478 87.9973 15.0591 88.4829 14.9815L105.732 12.2224C106.34 12.1251 106.891 12.5949 106.891 13.2107Z" fill="black" fill-opacity="0.2"/>
<path d="M106.891 13.2107V16.3846L87.6401 17.0003V15.9697C87.6401 15.478 87.9973 15.0591 88.4829 14.9815L105.732 12.2224C106.34 12.1251 106.891 12.5949 106.891 13.2107Z" fill="black" fill-opacity="0.2"/>
<path d="M105.772 12.469C106.228 12.3961 106.64 12.749 106.64 13.2109V16.1411L87.8903 16.7412V15.97C87.8903 15.6012 88.1585 15.2864 88.5227 15.2282L105.772 12.469Z" stroke="black" stroke-opacity="0.1" stroke-width="0.5"/>
<mask id="path-17-inside-1_5_16898" fill="white">
<path d="M86.3245 14.1032C86.3245 14.8244 86.9092 15.409 87.6303 15.409H108.343C108.896 15.409 109.344 15.8572 109.344 16.4099V25.0822C108.374 24.4841 107.233 24.14 106.013 24.14C102.478 24.14 99.6121 27.0335 99.6121 30.6025C99.6121 31.0756 99.664 31.5364 99.7597 31.9806H87.3254C86.7727 31.9806 86.3247 31.5324 86.3245 30.9797V14.1032Z"/>
</mask>
<path d="M86.3245 14.1032C86.3245 14.8244 86.9092 15.409 87.6303 15.409H108.343C108.896 15.409 109.344 15.8572 109.344 16.4099V25.0822C108.374 24.4841 107.233 24.14 106.013 24.14C102.478 24.14 99.6121 27.0335 99.6121 30.6025C99.6121 31.0756 99.664 31.5364 99.7597 31.9806H87.3254C86.7727 31.9806 86.3247 31.5324 86.3245 30.9797V14.1032Z" fill="#FFBF1B"/>
<path d="M87.6303 15.409L87.6303 15.9094H87.6303V15.409ZM109.344 16.4099H109.844V16.4098L109.344 16.4099ZM109.344 25.0822L109.081 25.5082L109.844 25.9785V25.0822H109.344ZM106.013 24.14L106.013 23.6396H106.013V24.14ZM99.6121 30.6025H99.1117V30.6025L99.6121 30.6025ZM99.7597 31.9806V32.481H100.379L100.249 31.8752L99.7597 31.9806ZM86.3245 30.9797H85.8241V30.9798L86.3245 30.9797ZM86.3245 14.1032H85.8241C85.8241 15.1008 86.6328 15.9094 87.6303 15.9094L87.6303 15.409L87.6304 14.9086C87.1855 14.9086 86.825 14.548 86.825 14.1032H86.3245ZM87.6303 15.409V15.9094H108.343V15.409V14.9086H87.6303V15.409ZM108.343 15.409V15.9094C108.619 15.9094 108.843 16.1335 108.843 16.4099L109.344 16.4099L109.844 16.4098C109.844 15.5808 109.172 14.9086 108.343 14.9086V15.409ZM109.344 16.4099H108.843V25.0822H109.344H109.844V16.4099H109.344ZM109.344 25.0822L109.606 24.6562C108.56 24.0109 107.328 23.6396 106.013 23.6396L106.013 24.14L106.013 24.6404C107.138 24.6405 108.188 24.9574 109.081 25.5082L109.344 25.0822ZM106.013 24.14V23.6396C102.197 23.6396 99.1117 26.7617 99.1117 30.6025H99.6121H100.113C100.113 27.3054 102.759 24.6404 106.013 24.6404V24.14ZM99.6121 30.6025L99.1117 30.6025C99.1117 31.1123 99.1677 31.6084 99.2705 32.0859L99.7597 31.9806L100.249 31.8752C100.16 31.4643 100.113 31.0388 100.113 30.6024L99.6121 30.6025ZM99.7597 31.9806V31.4801H87.3254V31.9806V32.481H99.7597V31.9806ZM87.3254 31.9806V31.4801C87.0492 31.4801 86.825 31.2561 86.825 30.9796L86.3245 30.9797L85.8241 30.9798C85.8243 31.8087 86.4962 32.481 87.3254 32.481V31.9806ZM86.3245 30.9797H86.825V14.1032H86.3245H85.8241V30.9797H86.3245Z" fill="black" fill-opacity="0.1" mask="url(#path-17-inside-1_5_16898)"/>
<path fill-rule="evenodd" clip-rule="evenodd" d="M109.231 27.5135C110.92 29.2184 110.92 31.983 109.231 33.6883C107.542 35.393 104.803 35.393 103.114 33.6883C101.425 31.983 101.425 29.2184 103.114 27.5135C104.804 25.8076 107.542 25.8079 109.231 27.5135Z" stroke="black" stroke-width="2" stroke-linecap="round"/>
<path d="M109.344 33.8024L112.228 36.7132" stroke="black" stroke-width="2" stroke-linecap="round"/>
<path fill-rule="evenodd" clip-rule="evenodd" d="M192.863 5.68914C191.344 4.17057 189.435 3.04511 187.322 2.49934C186.032 1.95458 182.216 1.19354 175.341 1.19354C168.465 1.19354 164.649 1.95458 163.359 2.49934C161.245 3.04511 159.336 4.17057 157.817 5.68914C156.3 7.20771 155.173 9.11739 154.628 11.2306C154.083 12.5207 153.322 16.3853 153.322 23.2116C153.322 30.0378 154.083 33.9044 154.628 35.1935C155.173 37.3067 156.3 39.2164 157.817 40.735C159.336 42.2525 161.245 43.379 163.359 43.9248C164.649 44.4705 168.384 45.2306 175.341 45.2306C182.297 45.2306 186.032 44.4705 187.322 43.9248C189.435 43.379 191.344 42.2525 192.863 40.735C194.382 39.2164 195.507 37.3067 196.053 35.1935C196.599 33.9044 197.359 30.0245 197.359 23.2116C197.359 16.3986 196.599 12.5207 196.053 11.2306C195.507 9.11739 194.382 7.20771 192.863 5.68914Z" fill="white"/>
<path d="M175.341 0.596357C178.8 0.596375 181.499 0.788574 183.503 1.05084C185.45 1.30561 186.774 1.63199 187.505 1.93049C189.712 2.50734 191.702 3.68489 193.285 5.26728C194.866 6.84867 196.042 8.83773 196.62 11.0436C196.92 11.775 197.247 13.1164 197.502 15.0734C197.764 17.0852 197.956 19.7838 197.956 23.2111C197.956 26.6387 197.764 29.3384 197.502 31.3507C197.248 33.3064 196.919 34.6471 196.62 35.3785C196.079 37.4465 195.012 39.3241 193.578 40.8538L193.285 41.1568C191.703 42.7372 189.714 43.9145 187.508 44.4917C186.065 45.0838 182.237 45.8277 175.341 45.8278C168.443 45.8278 164.614 45.0838 163.172 44.4917C161.104 43.9507 159.227 42.8828 157.698 41.45L157.395 41.1568C155.815 39.5752 154.637 37.5855 154.06 35.3785C153.761 34.6474 153.434 33.3104 153.179 31.3566C152.917 29.3458 152.724 26.6455 152.724 23.2111C152.724 19.7769 152.917 17.0778 153.179 15.0675C153.434 13.1131 153.761 11.7759 154.06 11.0446C154.637 8.83801 155.815 6.8487 157.395 5.26728L157.698 4.97406C159.229 3.53943 161.107 2.47111 163.176 1.93049C163.906 1.63203 165.23 1.30564 167.178 1.05084C169.183 0.78857 171.882 0.596357 175.341 0.596357Z" stroke="black" stroke-opacity="0.07" stroke-width="1.19255"/>
<g clip-path="url(#clip0_5_16898)">
<mask id="path-23-inside-2_5_16898" fill="white">
<path d="M182.879 12.1627C183.257 12.1627 183.565 12.4716 183.565 12.8528V24.1503C182.876 23.8827 182.128 23.734 181.345 23.734C177.96 23.734 175.215 26.4787 175.215 29.8641C175.215 31.125 175.596 32.2968 176.249 33.2713H167.019C166.64 33.2713 166.333 32.9616 166.333 32.5803V12.8528C166.333 12.4716 166.64 12.1627 167.019 12.1627H182.879Z"/>
</mask>
<path d="M182.879 12.1627C183.257 12.1627 183.565 12.4716 183.565 12.8528V24.1503C182.876 23.8827 182.128 23.734 181.345 23.734C177.96 23.734 175.215 26.4787 175.215 29.8641C175.215 31.125 175.596 32.2968 176.249 33.2713H167.019C166.64 33.2713 166.333 32.9616 166.333 32.5803V12.8528C166.333 12.4716 166.64 12.1627 167.019 12.1627H182.879Z" fill="#CAD1DC"/>
<path d="M183.565 12.8528H184.065V12.8524L183.565 12.8528ZM183.565 24.1503L183.383 24.6168L184.065 24.8818V24.1503H183.565ZM181.345 23.734L181.345 23.2336H181.345V23.734ZM175.215 29.8641H174.715V29.8642L175.215 29.8641ZM176.249 33.2713V33.7717H177.187L176.665 32.9928L176.249 33.2713ZM167.019 33.2713L167.019 33.7717H167.019V33.2713ZM166.333 12.8528L165.832 12.8524V12.8528H166.333ZM167.019 12.1627V11.6623H167.019L167.019 12.1627ZM182.879 12.1627V12.6631C182.978 12.6631 183.064 12.7452 183.064 12.8531L183.565 12.8528L184.065 12.8524C184.065 12.1981 183.537 11.6623 182.879 11.6623V12.1627ZM183.565 12.8528H183.064V24.1503H183.565H184.065V12.8528H183.565ZM183.565 24.1503L183.746 23.6839C183.002 23.3945 182.192 23.2336 181.345 23.2336L181.345 23.734L181.345 24.2344C182.064 24.2344 182.751 24.3709 183.383 24.6168L183.565 24.1503ZM181.345 23.734V23.2336C177.683 23.2336 174.715 26.2023 174.715 29.8641H175.215H175.715C175.715 26.7551 178.236 24.2344 181.345 24.2344V23.734ZM175.215 29.8641L174.715 29.8642C174.715 31.2274 175.127 32.4957 175.833 33.5498L176.249 33.2713L176.665 32.9928C176.065 32.098 175.715 31.0227 175.715 29.8641L175.215 29.8641ZM176.249 33.2713V32.7709H167.019V33.2713V33.7717H176.249V33.2713ZM167.019 33.2713L167.019 32.7709C166.92 32.7709 166.833 32.6887 166.833 32.5803H166.333H165.832C165.832 33.2345 166.36 33.7717 167.019 33.7717L167.019 33.2713ZM166.333 32.5803H166.833V12.8528H166.333H165.832V32.5803H166.333ZM166.333 12.8528L166.833 12.8531C166.833 12.7452 166.919 12.6631 167.019 12.6631L167.019 12.1627L167.019 11.6623C166.361 11.6623 165.832 12.1981 165.832 12.8524L166.333 12.8528ZM167.019 12.1627V12.6631H182.879V12.1627V11.6623H167.019V12.1627Z" fill="black" fill-opacity="0.1" mask="url(#path-23-inside-2_5_16898)"/>
<path d="M169.459 16.3141C169.459 15.8804 169.808 15.5288 170.239 15.5288H180.126C180.557 15.5288 180.906 15.8804 180.906 16.3141C180.906 16.7478 180.557 17.0993 180.126 17.0993H170.239C169.808 17.0993 169.459 16.7478 169.459 16.3141Z" fill="black" fill-opacity="0.2"/>
<path d="M169.459 19.9118C169.459 19.4781 169.808 19.1266 170.239 19.1266H174.597C175.028 19.1266 175.377 19.4781 175.377 19.9118C175.377 20.3455 175.028 20.6971 174.597 20.6971H170.239C169.808 20.6971 169.459 20.3455 169.459 19.9118Z" fill="black" fill-opacity="0.2"/>
<path d="M181.345 34.8683C184.109 34.8683 186.349 32.6279 186.349 29.8641C186.349 27.1004 184.109 24.8599 181.345 24.8599C178.581 24.8599 176.341 27.1004 176.341 29.8641C176.341 32.6279 178.581 34.8683 181.345 34.8683Z" fill="#CAD1DC"/>
<path d="M181.345 25.1101C183.971 25.1101 186.099 27.2386 186.099 29.8641C186.099 32.4897 183.971 34.6181 181.345 34.6181C178.72 34.6181 176.591 32.4897 176.591 29.8641C176.591 27.2386 178.72 25.1101 181.345 25.1101Z" stroke="black" stroke-opacity="0.1" stroke-width="0.5" stroke-linecap="round" stroke-linejoin="round"/>
<path d="M179.645 28.1988C179.665 28.1988 179.683 28.2117 179.688 28.23L180.209 30.3969C180.218 30.4366 180.278 30.44 180.292 30.4018L181.048 28.3307C181.076 28.2517 181.152 28.1988 181.236 28.1988H181.454C181.538 28.1989 181.614 28.2518 181.643 28.3307L182.398 30.4018C182.413 30.4399 182.472 30.4366 182.481 30.3969L183.002 28.23C183.007 28.2117 183.025 28.1988 183.045 28.1988H183.828C183.856 28.1992 183.876 28.2236 183.87 28.2486L183.534 29.6218H183.963C184.052 29.622 184.125 29.6947 184.125 29.7841V30.2962C184.125 30.3856 184.052 30.4583 183.963 30.4585H183.329L182.982 31.8737C182.977 31.892 182.96 31.9058 182.94 31.906H182.123C182.104 31.9059 182.088 31.894 182.082 31.8776L181.384 29.9385C181.379 29.9268 181.37 29.919 181.36 29.9151C181.34 29.9089 181.315 29.9155 181.307 29.9385L180.609 31.8776C180.603 31.894 180.586 31.9059 180.568 31.906H179.751C179.73 31.906 179.713 31.8921 179.709 31.8737L179.362 30.4585H178.727C178.638 30.4585 178.565 30.3857 178.565 30.2962V29.7841C178.565 29.6946 178.638 29.6218 178.727 29.6218H179.156L178.82 28.2486C178.814 28.2234 178.834 28.199 178.862 28.1988H179.645Z" fill="black"/>
</g>
<path fill-rule="evenodd" clip-rule="evenodd" d="M268.927 5.68914C267.408 4.17057 265.499 3.04511 263.385 2.49934C262.096 1.95458 258.28 1.19354 251.405 1.19354C244.529 1.19354 240.713 1.95458 239.423 2.49934C237.309 3.04511 235.4 4.17057 233.881 5.68914C232.364 7.20771 231.237 9.11739 230.692 11.2306C230.147 12.5207 229.386 16.3853 229.386 23.2116C229.386 30.0378 230.147 33.9044 230.692 35.1935C231.237 37.3067 232.364 39.2164 233.881 40.735C235.4 42.2525 237.309 43.379 239.423 43.9248C240.713 44.4705 244.448 45.2306 251.405 45.2306C258.361 45.2306 262.096 44.4705 263.385 43.9248C265.499 43.379 267.408 42.2525 268.927 40.735C270.446 39.2164 271.571 37.3067 272.117 35.1935C272.663 33.9044 273.423 30.0245 273.423 23.2116C273.423 16.3986 272.663 12.5207 272.117 11.2306C271.571 9.11739 270.446 7.20771 268.927 5.68914Z" fill="white"/>
<path d="M251.405 0.596357C254.864 0.596375 257.563 0.788574 259.567 1.05084C261.514 1.30561 262.838 1.63199 263.569 1.93049C265.776 2.50734 267.766 3.68489 269.349 5.26728C270.93 6.84867 272.106 8.83773 272.684 11.0436C272.983 11.775 273.311 13.1164 273.566 15.0734C273.828 17.0852 274.02 19.7838 274.02 23.2111C274.02 26.6387 273.828 29.3384 273.566 31.3507C273.312 33.3064 272.983 34.6471 272.684 35.3785C272.143 37.4465 271.076 39.3241 269.642 40.8538L269.349 41.1568C267.767 42.7372 265.778 43.9145 263.572 44.4917C262.129 45.0838 258.301 45.8277 251.405 45.8278C244.507 45.8278 240.678 45.0838 239.236 44.4917C237.168 43.9507 235.291 42.8828 233.762 41.45L233.459 41.1568C231.879 39.5752 230.701 37.5855 230.124 35.3785C229.825 34.6474 229.498 33.3104 229.243 31.3566C228.98 29.3458 228.788 26.6455 228.788 23.2111C228.788 19.7769 228.98 17.0778 229.243 15.0675C229.498 13.1131 229.825 11.7759 230.124 11.0446C230.701 8.83801 231.879 6.8487 233.459 5.26728L233.762 4.97406C235.293 3.53943 237.171 2.47111 239.24 1.93049C239.97 1.63203 241.294 1.30564 243.242 1.05084C245.247 0.78857 247.946 0.596357 251.405 0.596357Z" stroke="black" stroke-opacity="0.07" stroke-width="1.19255"/>
<g clip-path="url(#clip1_5_16898)">
<mask id="path-32-inside-3_5_16898" fill="white">
<path d="M259.079 11.9174C259.458 11.9174 259.765 12.2263 259.765 12.6074V23.6108C259.027 23.3073 258.218 23.1388 257.37 23.1388C253.888 23.1388 251.065 25.9618 251.065 29.4439C251.065 30.7746 251.479 32.0085 252.183 33.026H243.219C242.84 33.026 242.533 32.7163 242.533 32.335V12.6074C242.533 12.2263 242.84 11.9174 243.219 11.9174H259.079Z"/>
</mask>
<path d="M259.079 11.9174C259.458 11.9174 259.765 12.2263 259.765 12.6074V23.6108C259.027 23.3073 258.218 23.1388 257.37 23.1388C253.888 23.1388 251.065 25.9618 251.065 29.4439C251.065 30.7746 251.479 32.0085 252.183 33.026H243.219C242.84 33.026 242.533 32.7163 242.533 32.335V12.6074C242.533 12.2263 242.84 11.9174 243.219 11.9174H259.079Z" fill="#FFBF1B"/>
<path d="M259.765 12.6074H260.266V12.6071L259.765 12.6074ZM259.765 23.6108L259.575 24.0737L260.266 24.3575V23.6108H259.765ZM257.37 23.1388L257.371 22.6383H257.37V23.1388ZM251.065 29.4439H250.565V29.4439L251.065 29.4439ZM252.183 33.026V33.5264H253.137L252.594 32.7413L252.183 33.026ZM243.219 33.026L243.219 33.5264H243.219V33.026ZM242.533 12.6074L242.032 12.6071V12.6074H242.533ZM243.219 11.9174V11.417H243.219L243.219 11.9174ZM259.079 11.9174V12.4178C259.179 12.4178 259.265 12.4999 259.265 12.6077L259.765 12.6074L260.266 12.6071C260.265 11.9527 259.737 11.417 259.079 11.417V11.9174ZM259.765 12.6074H259.265V23.6108H259.765H260.266V12.6074H259.765ZM259.765 23.6108L259.955 23.148C259.158 22.8203 258.285 22.6384 257.371 22.6383L257.37 23.1388L257.37 23.6392C258.151 23.6392 258.895 23.7943 259.575 24.0737L259.765 23.6108ZM257.37 23.1388V22.6383C253.612 22.6383 250.565 25.6854 250.565 29.4439H251.065H251.566C251.566 26.2382 254.165 23.6392 257.37 23.6392V23.1388ZM251.065 29.4439L250.565 29.4439C250.565 30.8798 251.011 32.2125 251.771 33.3107L252.183 33.026L252.594 32.7413C251.946 31.8045 251.566 30.6694 251.566 29.4438L251.065 29.4439ZM252.183 33.026V32.5256H243.219V33.026V33.5264H252.183V33.026ZM243.219 33.026L243.219 32.5256C243.12 32.5255 243.033 32.4434 243.033 32.335H242.533H242.032C242.032 32.9892 242.56 33.5264 243.219 33.5264L243.219 33.026ZM242.533 32.335H243.033V12.6074H242.533H242.032V32.335H242.533ZM242.533 12.6074L243.033 12.6077C243.033 12.4999 243.119 12.4178 243.219 12.4178L243.219 11.9174L243.219 11.417C242.561 11.417 242.033 11.9527 242.032 12.6071L242.533 12.6074ZM243.219 11.9174V12.4178H259.079V11.9174V11.417H243.219V11.9174Z" fill="black" fill-opacity="0.1" mask="url(#path-32-inside-3_5_16898)"/>
<path d="M248.396 15.806C248.428 15.8061 248.457 15.8271 248.464 15.8568L249.308 19.3675C249.323 19.4319 249.42 19.4368 249.443 19.3744L250.697 15.9379C250.726 15.8589 250.801 15.806 250.885 15.806H251.413C251.497 15.8061 251.572 15.859 251.601 15.9379L252.854 19.3744C252.877 19.4367 252.974 19.4317 252.989 19.3675L253.834 15.8568C253.841 15.8271 253.87 15.806 253.902 15.806H255.171C255.216 15.8062 255.249 15.8453 255.239 15.8861L254.695 18.1106H255.49C255.58 18.1107 255.653 18.1835 255.653 18.2729V19.304C255.653 19.3934 255.58 19.4662 255.49 19.4663H254.363L253.801 21.7602C253.793 21.7899 253.765 21.8109 253.732 21.811H252.409C252.379 21.811 252.352 21.7927 252.342 21.766L251.212 18.6247C251.201 18.5964 251.175 18.5825 251.149 18.5817C251.122 18.5825 251.097 18.5962 251.086 18.6247L249.956 21.766C249.946 21.7927 249.919 21.811 249.889 21.811H248.566C248.533 21.811 248.505 21.7899 248.497 21.7602L247.935 19.4663H246.807C246.718 19.4663 246.645 19.3935 246.645 19.304V18.2729C246.645 18.1834 246.718 18.1106 246.807 18.1106H247.603L247.059 15.8861C247.049 15.8452 247.082 15.8061 247.127 15.806H248.396Z" fill="black"/>
</g>
<path fill-rule="evenodd" clip-rule="evenodd" d="M260.751 26.5605C262.441 28.2654 262.441 31.0301 260.751 32.7353C259.063 34.44 256.324 34.44 254.635 32.7353C252.946 31.0301 252.946 28.2654 254.635 26.5605C256.324 24.8546 259.063 24.8549 260.751 26.5605Z" stroke="black" stroke-width="2" stroke-linecap="round"/>
<path d="M260.865 32.8494L263.748 35.7603" stroke="black" stroke-width="2" stroke-linecap="round"/>
<path fill-rule="evenodd" clip-rule="evenodd" d="M344.991 5.68914C343.472 4.17057 341.563 3.04511 339.449 2.49934C338.16 1.95458 334.344 1.19354 327.469 1.19354C320.593 1.19354 316.777 1.95458 315.487 2.49934C313.373 3.04511 311.464 4.17057 309.945 5.68914C308.428 7.20771 307.301 9.11739 306.756 11.2306C306.211 12.5207 305.449 16.3853 305.449 23.2116C305.449 30.0378 306.211 33.9044 306.756 35.1935C307.301 37.3067 308.428 39.2164 309.945 40.735C311.464 42.2525 313.373 43.379 315.487 43.9248C316.777 44.4705 320.512 45.2306 327.469 45.2306C334.425 45.2306 338.16 44.4705 339.449 43.9248C341.563 43.379 343.472 42.2525 344.991 40.735C346.51 39.2164 347.635 37.3067 348.181 35.1935C348.726 33.9044 349.487 30.0245 349.487 23.2116C349.487 16.3986 348.726 12.5207 348.181 11.2306C347.635 9.11739 346.51 7.20771 344.991 5.68914Z" fill="white"/>
<path d="M327.469 0.596357C330.927 0.596375 333.627 0.788574 335.631 1.05084C337.578 1.30561 338.902 1.63199 339.633 1.93049C341.84 2.50734 343.83 3.68489 345.413 5.26728C346.994 6.84867 348.17 8.83773 348.748 11.0436C349.047 11.775 349.375 13.1164 349.63 15.0734C349.892 17.0852 350.084 19.7838 350.084 23.2111C350.084 26.6387 349.892 29.3384 349.63 31.3507C349.376 33.3064 349.047 34.6471 348.748 35.3785C348.207 37.4465 347.14 39.3241 345.706 40.8538L345.413 41.1568C343.831 42.7372 341.842 43.9145 339.635 44.4917C338.193 45.0838 334.365 45.8277 327.469 45.8278C320.571 45.8278 316.742 45.0838 315.3 44.4917C313.232 43.9507 311.355 42.8828 309.826 41.45L309.523 41.1568C307.943 39.5752 306.765 37.5855 306.188 35.3785C305.889 34.6474 305.562 33.3104 305.307 31.3566C305.044 29.3458 304.852 26.6455 304.852 23.2111C304.852 19.7769 305.044 17.0778 305.307 15.0675C305.562 13.1131 305.889 11.7759 306.188 11.0446C306.765 8.83801 307.943 6.8487 309.523 5.26728L309.826 4.97406C311.357 3.53943 313.235 2.47111 315.303 1.93049C316.034 1.63203 317.358 1.30564 319.306 1.05084C321.311 0.78857 324.01 0.596357 327.469 0.596357Z" stroke="black" stroke-opacity="0.07" stroke-width="1.19255"/>
<g clip-path="url(#clip2_5_16898)">
<path d="M338.794 14.4361C339.344 14.4361 339.795 14.8865 339.795 15.437V23.3303C338.851 22.801 337.765 22.4986 336.609 22.4986C332.982 22.4987 330.042 25.4674 330.042 29.1291C330.042 30.3401 330.365 31.4743 330.927 32.4513H318.777C317.116 32.4513 315.775 31.1101 315.775 29.4487V15.437C315.775 14.8865 316.225 14.4361 316.775 14.4361H338.794Z" fill="#EDB219"/>
<path d="M339.029 14.4361C339.43 14.4361 339.764 14.7775 339.764 15.2092V23.3127C338.828 22.794 337.753 22.4986 336.609 22.4986C332.982 22.4987 330.042 25.4674 330.042 29.1291C330.042 30.3401 330.365 31.4743 330.927 32.4513H319.44C317.949 32.4513 316.745 31.1862 316.745 29.6198V15.2092C316.745 14.7875 317.07 14.4361 317.481 14.4361H339.029Z" fill="black" fill-opacity="0.1"/>
<mask id="path-41-inside-4_5_16898" fill="white">
<path d="M338.794 14.4361C339.344 14.4361 339.795 14.8865 339.795 15.437L338.734 22.8553C338.068 22.6253 337.353 22.4986 336.609 22.4986C332.982 22.4987 330.042 25.4674 330.042 29.1291C330.042 30.3401 330.365 31.4743 330.927 32.4513H315.775C314.113 32.4513 312.772 31.1101 312.772 29.4487L315.775 15.437C315.775 14.8865 316.225 14.4361 316.775 14.4361H338.794Z"/>
</mask>
<path d="M338.794 14.4361C339.344 14.4361 339.795 14.8865 339.795 15.437L338.734 22.8553C338.068 22.6253 337.353 22.4986 336.609 22.4986C332.982 22.4987 330.042 25.4674 330.042 29.1291C330.042 30.3401 330.365 31.4743 330.927 32.4513H315.775C314.113 32.4513 312.772 31.1101 312.772 29.4487L315.775 15.437C315.775 14.8865 316.225 14.4361 316.775 14.4361H338.794Z" fill="#FFBF1B"/>
<path d="M339.795 15.437L340.29 15.5078L340.295 15.4725V15.437H339.795ZM338.734 22.8553L338.571 23.3284L339.144 23.526L339.23 22.9261L338.734 22.8553ZM336.609 22.4986V21.9981H336.609L336.609 22.4986ZM330.042 29.1291H329.542V29.1292L330.042 29.1291ZM330.927 32.4513V32.9517H331.792L331.361 32.2019L330.927 32.4513ZM315.775 32.4513V32.9517V32.9517V32.4513ZM312.772 29.4487L312.283 29.3439L312.272 29.3957V29.4487H312.772ZM315.775 15.437L316.264 15.5418L316.275 15.49V15.437H315.775ZM338.794 14.4361V14.9365C339.068 14.9365 339.294 15.1629 339.294 15.437H339.795H340.295C340.295 14.6101 339.621 13.9357 338.794 13.9357V14.4361ZM339.795 15.437L339.299 15.3661L338.239 22.7845L338.734 22.8553L339.23 22.9261L340.29 15.5078L339.795 15.437ZM338.734 22.8553L338.898 22.3823C338.18 22.1347 337.411 21.9981 336.609 21.9981V22.4986V22.999C337.296 22.999 337.955 23.1159 338.571 23.3284L338.734 22.8553ZM336.609 22.4986L336.609 21.9981C332.701 21.9983 329.542 25.1956 329.542 29.1291H330.042H330.543C330.543 25.7392 333.263 22.9991 336.61 22.999L336.609 22.4986ZM330.042 29.1291L329.542 29.1292C329.542 30.4302 329.889 31.65 330.493 32.7007L330.927 32.4513L331.361 32.2019C330.841 31.2985 330.543 30.25 330.543 29.1291L330.042 29.1291ZM330.927 32.4513V31.9509H315.775V32.4513V32.9517H330.927V32.4513ZM315.775 32.4513V31.9509C314.39 31.9509 313.272 30.8338 313.272 29.4487H312.772H312.272C312.272 31.3865 313.837 32.9517 315.775 32.9517V32.4513ZM312.772 29.4487L313.261 29.5536L316.264 15.5418L315.775 15.437L315.285 15.3321L312.283 29.3439L312.772 29.4487ZM315.775 15.437H316.275C316.275 15.1629 316.501 14.9365 316.775 14.9365V14.4361V13.9357C315.949 13.9357 315.274 14.6101 315.274 15.437H315.775ZM316.775 14.4361V14.9365H338.794V14.4361V13.9357H316.775V14.4361Z" fill="black" fill-opacity="0.1" mask="url(#path-41-inside-4_5_16898)"/>
<path d="M322.214 21.8706L322.591 23.8376H321.655C321.612 23.8376 321.573 23.8656 321.56 23.9068L321.203 25.0055C321.182 25.0702 321.23 25.1366 321.298 25.1366H322.837L323.428 27.7992C323.438 27.845 323.478 27.8776 323.525 27.8776H324.276C324.315 27.8776 324.35 27.8554 324.366 27.8205L326.155 24.0546L326.95 27.7983C326.96 27.8445 327.001 27.8776 327.048 27.8776H327.84C327.878 27.8776 327.913 27.8558 327.93 27.8214L329.239 25.1366H330.509C330.548 25.1366 330.584 25.1137 330.6 25.0782L331.104 23.9794C331.134 23.9131 331.086 23.8376 331.013 23.8376H329.906L330.797 21.8935C330.827 21.8272 330.779 21.7517 330.706 21.7517H329.626C329.588 21.7517 329.553 21.7735 329.536 21.8079L327.778 25.4071L326.984 21.8301C326.974 21.7843 326.934 21.7517 326.887 21.7517H326.038C325.999 21.7517 325.964 21.7737 325.948 21.8082L324.208 25.4071L323.462 21.8314C323.452 21.785 323.411 21.7517 323.364 21.7517H322.312C322.249 21.7517 322.202 21.8089 322.214 21.8706Z" fill="black"/>
<path d="M315.774 15.437C315.774 14.8865 316.225 14.4361 316.775 14.4361H338.794C339.344 14.4361 339.795 14.8865 339.795 15.437L339.364 18.4395H315.134L315.774 15.437Z" fill="black" fill-opacity="0.1"/>
</g>
<path fill-rule="evenodd" clip-rule="evenodd" d="M339.668 26.0415C341.357 27.7464 341.357 30.5111 339.668 32.2163C337.979 33.921 335.24 33.921 333.551 32.2163C331.862 30.5111 331.862 27.7464 333.551 26.0415C335.241 24.3356 337.979 24.3359 339.668 26.0415Z" stroke="black" stroke-width="2" stroke-linecap="round"/>
<path d="M339.781 32.3304L342.665 35.2413" stroke="black" stroke-width="2" stroke-linecap="round"/>
<path fill-rule="evenodd" clip-rule="evenodd" d="M421.055 5.68914C419.536 4.17057 417.627 3.04511 415.513 2.49934C414.224 1.95458 410.408 1.19354 403.532 1.19354C396.657 1.19354 392.841 1.95458 391.551 2.49934C389.437 3.04511 387.528 4.17057 386.009 5.68914C384.491 7.20771 383.365 9.11739 382.82 11.2306C382.275 12.5207 381.513 16.3853 381.513 23.2116C381.513 30.0378 382.275 33.9044 382.82 35.1935C383.365 37.3067 384.491 39.2164 386.009 40.735C387.528 42.2525 389.437 43.379 391.551 43.9248C392.841 44.4705 396.576 45.2306 403.532 45.2306C410.489 45.2306 414.224 44.4705 415.513 43.9248C417.627 43.379 419.536 42.2525 421.055 40.735C422.573 39.2164 423.699 37.3067 424.245 35.1935C424.79 33.9044 425.551 30.0245 425.551 23.2116C425.551 16.3986 424.79 12.5207 424.245 11.2306C423.699 9.11739 422.573 7.20771 421.055 5.68914Z" fill="white"/>
<path d="M403.533 0.621769C406.991 0.621787 409.689 0.813171 411.692 1.07528C413.637 1.32971 414.957 1.65595 415.685 1.95297C417.89 2.52813 419.878 3.70416 421.459 5.28487C423.039 6.86438 424.213 8.85112 424.789 11.0544C425.088 11.783 425.415 13.1211 425.67 15.0763C425.932 17.0869 426.122 19.7845 426.122 23.2111C426.122 26.6379 425.932 29.3367 425.67 31.3478C425.415 33.3025 425.087 34.6403 424.789 35.3688C424.25 37.434 423.185 39.3095 421.752 40.8372L421.459 41.1392C419.88 42.7175 417.893 43.8935 415.69 44.4692C414.252 45.0593 410.428 45.8023 403.533 45.8023C396.638 45.8023 392.813 45.0592 391.374 44.4692C389.309 43.9297 387.434 42.8636 385.907 41.4325L385.605 41.1392C384.026 39.5597 382.849 37.5727 382.275 35.3688C381.977 34.6405 381.65 33.3057 381.395 31.3527C381.133 29.3432 380.942 26.6445 380.942 23.2111C380.942 19.778 381.133 17.0805 381.395 15.0714C381.65 13.1178 381.977 11.7827 382.275 11.0544C382.85 8.8508 384.027 6.86419 385.605 5.28487L385.907 4.99166C387.435 3.55872 389.312 2.49211 391.378 1.95297C392.106 1.6559 393.427 1.32983 395.373 1.07528C397.376 0.813159 400.075 0.621769 403.533 0.621769Z" stroke="black" stroke-opacity="0.07" stroke-width="1.14286"/>
<mask id="path-49-inside-5_5_16898" fill="white">
<path d="M413.91 13.3524C415.016 13.3524 415.912 14.2485 415.912 15.354V22.9297C415.11 22.5646 414.221 22.36 413.284 22.3599C409.748 22.3599 406.883 25.2535 406.883 28.8224C406.883 29.7262 407.067 30.5864 407.399 31.3675H392.892C391.787 31.3675 390.891 30.4713 390.891 29.3658V15.354C390.891 14.2485 391.787 13.3524 392.892 13.3524H413.91Z"/>
</mask>
<path d="M413.91 13.3524C415.016 13.3524 415.912 14.2485 415.912 15.354V22.9297C415.11 22.5646 414.221 22.36 413.284 22.3599C409.748 22.3599 406.883 25.2535 406.883 28.8224C406.883 29.7262 407.067 30.5864 407.399 31.3675H392.892C391.787 31.3675 390.891 30.4713 390.891 29.3658V15.354C390.891 14.2485 391.787 13.3524 392.892 13.3524H413.91Z" fill="#00DE5A"/>
<path d="M413.91 13.3524V12.8519V12.8519V13.3524ZM415.912 15.354H416.412V15.354L415.912 15.354ZM415.912 22.9297L415.704 23.3852L416.412 23.7075V22.9297H415.912ZM413.284 22.3599L413.284 21.8595H413.284V22.3599ZM406.883 28.8224H406.382V28.8224L406.883 28.8224ZM407.399 31.3675V31.8679H408.155L407.859 31.1718L407.399 31.3675ZM392.892 31.3675V30.8671V30.8671V31.3675ZM390.891 29.3658H390.39V29.3658H390.891ZM390.891 15.354L390.39 15.354V15.354H390.891ZM392.892 13.3524V12.8519V12.8519V13.3524ZM413.91 13.3524V13.8528C414.739 13.8528 415.411 14.5249 415.411 15.354L415.912 15.354L416.412 15.354C416.412 13.9722 415.292 12.8519 413.91 12.8519V13.3524ZM415.912 15.354H415.411V22.9297H415.912H416.412V15.354H415.912ZM415.912 22.9297L416.119 22.4743C415.254 22.0804 414.294 21.8595 413.284 21.8595L413.284 22.3599L413.284 22.8604C414.147 22.8604 414.966 23.0488 415.704 23.3852L415.912 22.9297ZM413.284 22.3599V21.8595C409.467 21.8595 406.382 24.9816 406.382 28.8224H406.883H407.383C407.383 25.5253 410.029 22.8604 413.284 22.8604V22.3599ZM406.883 28.8224L406.382 28.8224C406.382 29.7947 406.58 30.7214 406.938 31.5632L407.399 31.3675L407.859 31.1718C407.553 30.4514 407.383 29.6577 407.383 28.8224L406.883 28.8224ZM407.399 31.3675V30.8671H392.892V31.3675V31.8679H407.399V31.3675ZM392.892 31.3675V30.8671C392.063 30.8671 391.391 30.1949 391.391 29.3658H390.891H390.39C390.39 30.7477 391.511 31.8679 392.892 31.8679V31.3675ZM390.891 29.3658H391.391V15.354H390.891H390.39V29.3658H390.891ZM390.891 15.354L391.391 15.354C391.391 14.5249 392.063 13.8528 392.892 13.8528V13.3524V12.8519C391.511 12.8519 390.39 13.9722 390.39 15.354L390.891 15.354ZM392.892 13.3524V13.8528H413.91V13.3524V12.8519H392.892V13.3524Z" fill="black" fill-opacity="0.1" mask="url(#path-49-inside-5_5_16898)"/>
<path fill-rule="evenodd" clip-rule="evenodd" d="M416.501 25.7342C418.19 27.4392 418.19 30.2038 416.501 31.9091C414.812 33.6138 412.073 33.6138 410.384 31.9091C408.696 30.2038 408.696 27.4392 410.384 25.7342C412.074 24.0284 414.812 24.0287 416.501 25.7342Z" stroke="black" stroke-width="2" stroke-linecap="round"/>
<path d="M416.614 32.0231L419.498 34.934" stroke="black" stroke-width="2" stroke-linecap="round"/>
<rect x="390.891" y="16.3549" width="25.021" height="2.00168" fill="#00DE5A"/>
<rect x="390.891" y="16.3549" width="25.021" height="2.00168" fill="black" fill-opacity="0.1"/>
<path fill-rule="evenodd" clip-rule="evenodd" d="M497.119 5.68914C495.6 4.17057 493.691 3.04511 491.577 2.49934C490.288 1.95458 486.472 1.19354 479.596 1.19354C472.721 1.19354 468.905 1.95458 467.615 2.49934C465.501 3.04511 463.592 4.17057 462.073 5.68914C460.555 7.20771 459.429 9.11739 458.884 11.2306C458.338 12.5207 457.577 16.3853 457.577 23.2116C457.577 30.0378 458.338 33.9044 458.884 35.1935C459.429 37.3067 460.555 39.2164 462.073 40.735C463.592 42.2525 465.501 43.379 467.615 43.9248C468.905 44.4705 472.64 45.2306 479.596 45.2306C486.553 45.2306 490.288 44.4705 491.577 43.9248C493.691 43.379 495.6 42.2525 497.119 40.735C498.637 39.2164 499.763 37.3067 500.309 35.1935C500.854 33.9044 501.614 30.0245 501.614 23.2116C501.614 16.3986 500.854 12.5207 500.309 11.2306C499.763 9.11739 498.637 7.20771 497.119 5.68914Z" fill="white"/>
<path d="M479.597 0.621769C483.055 0.621787 485.753 0.813171 487.756 1.07528C489.701 1.32971 491.021 1.65596 491.749 1.95297C493.954 2.52813 495.942 3.70416 497.523 5.28487C499.103 6.86438 500.277 8.85112 500.853 11.0544C501.151 11.783 501.479 13.1211 501.734 15.0763C501.996 17.0869 502.186 19.7845 502.186 23.2111C502.186 26.6379 501.996 29.3367 501.734 31.3478C501.479 33.3025 501.151 34.6403 500.853 35.3688C500.278 37.5724 499.103 39.5595 497.523 41.1392C495.944 42.7175 493.957 43.8935 491.754 44.4692C490.316 45.0593 486.492 45.8023 479.597 45.8023C472.702 45.8023 468.877 45.0592 467.438 44.4692C465.373 43.9297 463.498 42.8636 461.971 41.4325L461.669 41.1392C460.09 39.5597 458.913 37.5727 458.339 35.3688C458.041 34.6405 457.714 33.3057 457.459 31.3527C457.197 29.3432 457.006 26.6445 457.006 23.2111C457.006 19.778 457.197 17.0805 457.459 15.0714C457.714 13.1178 458.041 11.7827 458.339 11.0544C458.914 8.8508 460.09 6.86419 461.669 5.28487L461.971 4.99166C463.499 3.55872 465.376 2.49211 467.442 1.95297C468.17 1.6559 469.491 1.32983 471.437 1.07528C473.44 0.813159 476.139 0.621769 479.597 0.621769Z" stroke="black" stroke-opacity="0.07" stroke-width="1.14286"/>
<mask id="path-56-inside-6_5_16898" fill="white">
<path d="M489.974 13.3524C491.08 13.3524 491.976 14.2485 491.976 15.354V22.9297C491.174 22.5646 490.284 22.36 489.348 22.3599C485.812 22.3599 482.947 25.2535 482.947 28.8224C482.947 29.7262 483.131 30.5864 483.463 31.3675H468.956C467.851 31.3675 466.955 30.4713 466.955 29.3658V15.354C466.955 14.2485 467.851 13.3524 468.956 13.3524H489.974Z"/>
</mask>
<path d="M489.974 13.3524C491.08 13.3524 491.976 14.2485 491.976 15.354V22.9297C491.174 22.5646 490.284 22.36 489.348 22.3599C485.812 22.3599 482.947 25.2535 482.947 28.8224C482.947 29.7262 483.131 30.5864 483.463 31.3675H468.956C467.851 31.3675 466.955 30.4713 466.955 29.3658V15.354C466.955 14.2485 467.851 13.3524 468.956 13.3524H489.974Z" fill="#00DE5A"/>
<path d="M489.974 13.3524V12.8519V12.8519V13.3524ZM491.976 15.354H492.476V15.354L491.976 15.354ZM491.976 22.9297L491.768 23.3852L492.476 23.7075V22.9297H491.976ZM489.348 22.3599L489.348 21.8595H489.348V22.3599ZM482.947 28.8224H482.446V28.8224L482.947 28.8224ZM483.463 31.3675V31.8679H484.219L483.923 31.1718L483.463 31.3675ZM468.956 31.3675V30.8671V30.8671V31.3675ZM466.955 29.3658H466.454V29.3658H466.955ZM466.955 15.354L466.454 15.354V15.354H466.955ZM468.956 13.3524V12.8519V12.8519V13.3524ZM489.974 13.3524V13.8528C490.803 13.8528 491.475 14.5249 491.475 15.354L491.976 15.354L492.476 15.354C492.476 13.9722 491.356 12.8519 489.974 12.8519V13.3524ZM491.976 15.354H491.475V22.9297H491.976H492.476V15.354H491.976ZM491.976 22.9297L492.183 22.4743C491.318 22.0804 490.358 21.8595 489.348 21.8595L489.348 22.3599L489.348 22.8604C490.211 22.8604 491.03 23.0488 491.768 23.3852L491.976 22.9297ZM489.348 22.3599V21.8595C485.531 21.8595 482.446 24.9816 482.446 28.8224H482.947H483.447C483.447 25.5253 486.093 22.8604 489.348 22.8604V22.3599ZM482.947 28.8224L482.446 28.8224C482.446 29.7947 482.644 30.7214 483.002 31.5632L483.463 31.3675L483.923 31.1718C483.617 30.4514 483.447 29.6577 483.447 28.8224L482.947 28.8224ZM483.463 31.3675V30.8671H468.956V31.3675V31.8679H483.463V31.3675ZM468.956 31.3675V30.8671C468.127 30.8671 467.455 30.1949 467.455 29.3658H466.955H466.454C466.454 30.7477 467.575 31.8679 468.956 31.8679V31.3675ZM466.955 29.3658H467.455V15.354H466.955H466.454V29.3658H466.955ZM466.955 15.354L467.455 15.354C467.455 14.5249 468.127 13.8528 468.956 13.8528V13.3524V12.8519C467.575 12.8519 466.454 13.9722 466.454 15.354L466.955 15.354ZM468.956 13.3524V13.8528H489.974V13.3524V12.8519H468.956V13.3524Z" fill="black" fill-opacity="0.1" mask="url(#path-56-inside-6_5_16898)"/>
<path fill-rule="evenodd" clip-rule="evenodd" d="M474.68 28.8213H473.142L471.287 26.1299V28.8213H469.675V23.7926H471.213L473.069 26.484V23.7926H474.68V28.8213Z" fill="black"/>
<path fill-rule="evenodd" clip-rule="evenodd" d="M492.565 25.7342C494.254 27.4392 494.254 30.2038 492.565 31.9091C490.876 33.6138 488.137 33.6138 486.448 31.9091C484.759 30.2038 484.759 27.4392 486.448 25.7342C488.138 24.0284 490.876 24.0287 492.565 25.7342Z" stroke="black" stroke-width="2" stroke-linecap="round"/>
<path d="M492.678 32.0231L495.562 34.934" stroke="black" stroke-width="2" stroke-linecap="round"/>
<rect x="466.955" y="16.3549" width="25.021" height="2.00168" fill="#00DE5A"/>
<rect x="466.955" y="16.3549" width="25.021" height="2.00168" fill="black" fill-opacity="0.1"/>
<path fill-rule="evenodd" clip-rule="evenodd" d="M573.183 5.68914C571.664 4.17057 569.755 3.04511 567.641 2.49934C566.352 1.95458 562.536 1.19354 555.66 1.19354C548.785 1.19354 544.969 1.95458 543.678 2.49934C541.565 3.04511 539.656 4.17057 538.137 5.68914C536.619 7.20771 535.493 9.11739 534.948 11.2306C534.402 12.5207 533.641 16.3853 533.641 23.2116C533.641 30.0378 534.402 33.9044 534.948 35.1935C535.493 37.3067 536.619 39.2164 538.137 40.735C539.656 42.2525 541.565 43.379 543.678 43.9248C544.969 44.4705 548.704 45.2306 555.66 45.2306C562.617 45.2306 566.352 44.4705 567.641 43.9248C569.755 43.379 571.664 42.2525 573.183 40.735C574.701 39.2164 575.827 37.3067 576.373 35.1935C576.918 33.9044 577.678 30.0245 577.678 23.2116C577.678 16.3986 576.918 12.5207 576.373 11.2306C575.827 9.11739 574.701 7.20771 573.183 5.68914Z" fill="white"/>
<path d="M555.661 0.621769C559.119 0.621787 561.817 0.813171 563.82 1.07528C565.765 1.32971 567.085 1.65595 567.813 1.95297C570.018 2.52813 572.006 3.70416 573.587 5.28487C575.167 6.86438 576.341 8.85112 576.917 11.0544C577.215 11.783 577.543 13.1211 577.798 15.0763C578.06 17.0869 578.25 19.7845 578.25 23.2111C578.25 26.6379 578.06 29.3367 577.798 31.3478C577.543 33.3025 577.215 34.6403 576.917 35.3688C576.378 37.434 575.313 39.3095 573.88 40.8372L573.587 41.1392C572.008 42.7175 570.021 43.8935 567.818 44.4692C566.38 45.0593 562.555 45.8023 555.661 45.8023C548.766 45.8023 544.941 45.0592 543.502 44.4692C541.437 43.9297 539.562 42.8636 538.035 41.4325L537.733 41.1392C536.154 39.5597 534.977 37.5727 534.403 35.3688C534.105 34.6405 533.778 33.3057 533.523 31.3527C533.261 29.3432 533.07 26.6445 533.07 23.2111C533.07 19.778 533.261 17.0805 533.523 15.0714C533.778 13.1178 534.104 11.7827 534.403 11.0544C534.977 8.8508 536.154 6.86419 537.733 5.28487L538.035 4.99166C539.563 3.55872 541.44 2.49211 543.506 1.95297C544.234 1.6559 545.555 1.32983 547.501 1.07528C549.504 0.813159 552.203 0.621769 555.661 0.621769Z" stroke="black" stroke-opacity="0.07" stroke-width="1.14286"/>
<mask id="path-64-inside-7_5_16898" fill="white">
<path d="M563.529 12.8606C564.911 12.8606 566.031 13.9808 566.031 15.3627V22.1917H560.433C559.696 22.1917 559.212 22.9629 559.532 23.6274L560.179 24.9704C558.298 26.0097 557.023 28.014 557.023 30.3157V31.3028C557.023 31.8591 557.131 32.39 557.324 32.8774H547.542C546.145 32.8774 545.013 31.7453 545.013 30.3489V15.3627C545.013 13.9808 546.133 12.8606 547.515 12.8606H563.529Z"/>
</mask>
<path d="M563.529 12.8606C564.911 12.8606 566.031 13.9808 566.031 15.3627V22.1917H560.433C559.696 22.1917 559.212 22.9629 559.532 23.6274L560.179 24.9704C558.298 26.0097 557.023 28.014 557.023 30.3157V31.3028C557.023 31.8591 557.131 32.39 557.324 32.8774H547.542C546.145 32.8774 545.013 31.7453 545.013 30.3489V15.3627C545.013 13.9808 546.133 12.8606 547.515 12.8606H563.529Z" fill="#CAD1DC"/>
<path d="M563.529 12.8606V12.3602V12.3602V12.8606ZM566.031 22.1917V22.6921H566.531V22.1917H566.031ZM559.532 23.6274L559.983 23.4102L559.983 23.4101L559.532 23.6274ZM560.179 24.9704L560.421 25.4084L560.836 25.1796L560.63 24.7532L560.179 24.9704ZM557.023 30.3157L556.523 30.3157V30.3157H557.023ZM557.324 32.8774V33.3778H558.061L557.79 32.6928L557.324 32.8774ZM545.013 15.3627H544.513H545.013ZM547.515 12.8606V12.3602V12.8606ZM563.529 12.8606V13.361C564.634 13.361 565.531 14.2572 565.531 15.3627H566.031H566.531C566.531 13.7044 565.187 12.3602 563.529 12.3602V12.8606ZM566.031 15.3627H565.531V22.1917H566.031H566.531V15.3627H566.031ZM566.031 22.1917V21.6912H560.433V22.1917V22.6921H566.031V22.1917ZM560.433 22.1917V21.6912C559.326 21.6912 558.601 22.8484 559.082 23.8448L559.532 23.6274L559.983 23.4101C559.823 23.0775 560.065 22.6921 560.433 22.6921V22.1917ZM559.532 23.6274L559.081 23.8447L559.729 25.1876L560.179 24.9704L560.63 24.7532L559.983 23.4102L559.532 23.6274ZM560.179 24.9704L559.937 24.5323C557.903 25.6562 556.523 27.8246 556.523 30.3157L557.023 30.3157L557.524 30.3157C557.524 28.2034 558.693 26.3632 560.421 25.4084L560.179 24.9704ZM557.023 30.3157H556.523V31.3028H557.023H557.524V30.3157H557.023ZM557.023 31.3028H556.523C556.523 31.9242 556.643 32.5177 556.859 33.062L557.324 32.8774L557.79 32.6928C557.619 32.2624 557.524 31.794 557.524 31.3028H557.023ZM557.324 32.8774V32.377H547.542V32.8774V33.3778H557.324V32.8774ZM547.542 32.8774V32.377C546.422 32.377 545.514 31.469 545.514 30.3489H545.013H544.513C544.513 32.0217 545.869 33.3778 547.542 33.3778V32.8774ZM545.013 30.3489H545.514V15.3627H545.013H544.513V30.3489H545.013ZM545.013 15.3627H545.514C545.514 14.2572 546.41 13.361 547.515 13.361V12.8606V12.3602C545.857 12.3602 544.513 13.7044 544.513 15.3627H545.013ZM547.515 12.8606V13.361H563.529V12.8606V12.3602H547.515V12.8606Z" fill="black" fill-opacity="0.06" mask="url(#path-64-inside-7_5_16898)"/>
<path d="M558.024 18.8656H562.028" stroke="#959AA2" stroke-linecap="round"/>
<path d="M549.017 18.8656H553.02M551.015 16.8639L551.021 20.8673" stroke="#959AA2" stroke-linecap="round"/>
<path d="M549.588 25.4715L552.449 28.2721M552.417 25.4395L549.62 28.304" stroke="#959AA2" stroke-linecap="round"/>
<mask id="path-69-inside-8_5_16898" fill="white">
<path fill-rule="evenodd" clip-rule="evenodd" d="M561.886 25.5636L560.889 24.0277C560.661 23.6764 560.913 23.2121 561.332 23.2121H564.947C565.365 23.2121 565.618 23.6764 565.389 24.0277L564.392 25.5631C566.55 26.1188 568.145 28.0779 568.145 30.4095V31.219C568.145 33.1535 566.576 34.7217 564.642 34.7217H561.639C559.704 34.7217 558.136 33.1535 558.136 31.219V30.4095C558.136 28.0787 559.73 26.1201 561.886 25.5636Z"/>
</mask>
<path fill-rule="evenodd" clip-rule="evenodd" d="M561.886 25.5636L560.889 24.0277C560.661 23.6764 560.913 23.2121 561.332 23.2121H564.947C565.365 23.2121 565.618 23.6764 565.389 24.0277L564.392 25.5631C566.55 26.1188 568.145 28.0779 568.145 30.4095V31.219C568.145 33.1535 566.576 34.7217 564.642 34.7217H561.639C559.704 34.7217 558.136 33.1535 558.136 31.219V30.4095C558.136 28.0787 559.73 26.1201 561.886 25.5636Z" fill="#FFBF1B"/>
<path d="M561.886 25.5636L562.012 26.0482L562.685 25.8744L562.306 25.291L561.886 25.5636ZM560.889 24.0277L561.308 23.7551V23.7551L560.889 24.0277ZM565.389 24.0277L564.97 23.7551V23.7551L565.389 24.0277ZM564.392 25.5631L563.972 25.2905L563.593 25.8741L564.267 26.0477L564.392 25.5631ZM561.886 25.5636L562.306 25.291L561.308 23.7551L560.889 24.0277L560.469 24.3003L561.467 25.8362L561.886 25.5636ZM560.889 24.0277L561.308 23.7551C561.305 23.7503 561.304 23.7472 561.304 23.7458C561.303 23.7444 561.303 23.7431 561.303 23.7418C561.303 23.7388 561.304 23.7333 561.307 23.7269C561.311 23.7205 561.315 23.7169 561.318 23.7153C561.319 23.7146 561.32 23.714 561.321 23.7136C561.323 23.7132 561.326 23.7125 561.332 23.7125V23.2121V22.7116C560.516 22.7116 560.025 23.6161 560.469 24.3003L560.889 24.0277ZM561.332 23.2121V23.7125H564.947V23.2121V22.7116H561.332V23.2121ZM564.947 23.2121V23.7125C564.952 23.7125 564.955 23.7132 564.957 23.7136C564.958 23.714 564.959 23.7146 564.961 23.7153C564.963 23.7169 564.967 23.7205 564.971 23.7269C564.974 23.7333 564.975 23.7388 564.975 23.7418C564.975 23.7431 564.975 23.7444 564.974 23.7458C564.974 23.7472 564.973 23.7503 564.97 23.7551L565.389 24.0277L565.809 24.3003C566.253 23.6161 565.762 22.7116 564.947 22.7116V23.2121ZM565.389 24.0277L564.97 23.7551L563.972 25.2905L564.392 25.5631L564.812 25.8357L565.809 24.3003L565.389 24.0277ZM564.392 25.5631L564.267 26.0477C566.21 26.5479 567.644 28.3118 567.644 30.4095H568.145H568.645C568.645 27.8441 566.891 25.6897 564.517 25.0785L564.392 25.5631ZM568.145 30.4095H567.644V31.219H568.145H568.645V30.4095H568.145ZM568.145 31.219H567.644C567.644 32.8771 566.3 34.2213 564.642 34.2213V34.7217V35.2222C566.853 35.2222 568.645 33.4299 568.645 31.219H568.145ZM564.642 34.7217V34.2213H561.639V34.7217V35.2222H564.642V34.7217ZM561.639 34.7217V34.2213C559.981 34.2213 558.637 32.8771 558.637 31.219H558.136H557.636C557.636 33.4299 559.428 35.2222 561.639 35.2222V34.7217ZM558.136 31.219H558.637V30.4095H558.136H557.636V31.219H558.136ZM558.136 30.4095H558.637C558.637 28.3125 560.07 26.5491 562.012 26.0482L561.886 25.5636L561.761 25.0791C559.389 25.6912 557.636 27.845 557.636 30.4095H558.136Z" fill="black" fill-opacity="0.1" mask="url(#path-69-inside-8_5_16898)"/>
<path d="M561.762 28.9665C561.778 28.9666 561.793 28.9771 561.796 28.9919L562.219 30.7473C562.227 30.7793 562.275 30.7815 562.286 30.7502L562.889 29.0984C562.918 29.0195 562.993 28.9665 563.077 28.9665H563.201C563.285 28.9665 563.36 29.0195 563.389 29.0984L563.992 30.7502C564.003 30.7815 564.051 30.7793 564.059 30.7473L564.481 28.9919C564.485 28.9771 564.499 28.9666 564.516 28.9665H565.15C565.172 28.9665 565.189 28.9861 565.184 29.0066L564.911 30.1188H565.229C565.319 30.1188 565.391 30.1916 565.391 30.2811V30.6349C565.391 30.7241 565.318 30.7962 565.229 30.7962H564.746L564.465 31.9436C564.461 31.9584 564.447 31.969 564.43 31.969H563.769C563.754 31.969 563.74 31.9598 563.736 31.9465L563.171 30.3759C563.167 30.3657 563.159 30.3594 563.15 30.3563C563.133 30.3519 563.114 30.3575 563.107 30.3759L562.542 31.9465C562.537 31.9598 562.524 31.969 562.509 31.969H561.847C561.831 31.969 561.817 31.9584 561.813 31.9436L561.532 30.7962H561.05C560.96 30.7962 560.888 30.7241 560.887 30.6349V30.2811C560.887 30.1916 560.96 30.1188 561.05 30.1188H561.366L561.094 29.0066C561.089 28.9861 561.105 28.9665 561.128 28.9665H561.762Z" fill="black"/>
<rect x="561.192" y="24.8565" width="3.89216" height="1.09605" rx="0.547567" fill="#F7C000"/>
<rect x="561.192" y="24.8565" width="3.89216" height="1.09605" rx="0.547567" fill="black" fill-opacity="0.15"/>
<path fill-rule="evenodd" clip-rule="evenodd" d="M649.247 5.68914C647.728 4.17057 645.819 3.04511 643.705 2.49934C642.416 1.95458 638.6 1.19354 631.724 1.19354C624.849 1.19354 621.033 1.95458 619.742 2.49934C617.629 3.04511 615.72 4.17057 614.201 5.68914C612.683 7.20771 611.557 9.11739 611.012 11.2306C610.466 12.5207 609.705 16.3853 609.705 23.2116C609.705 30.0378 610.466 33.9044 611.012 35.1935C611.557 37.3067 612.683 39.2164 614.201 40.735C615.72 42.2525 617.629 43.379 619.742 43.9248C621.033 44.4705 624.768 45.2306 631.724 45.2306C638.681 45.2306 642.416 44.4705 643.705 43.9248C645.819 43.379 647.728 42.2525 649.247 40.735C650.765 39.2164 651.891 37.3067 652.437 35.1935C652.982 33.9044 653.742 30.0245 653.742 23.2116C653.742 16.3986 652.982 12.5207 652.437 11.2306C651.891 9.11739 650.765 7.20771 649.247 5.68914Z" fill="white"/>
<path d="M631.725 0.621769C635.182 0.621787 637.881 0.813171 639.884 1.07528C641.829 1.32971 643.149 1.65596 643.877 1.95297C646.082 2.52813 648.07 3.70416 649.651 5.28487C651.231 6.86438 652.405 8.85112 652.981 11.0544C653.279 11.783 653.607 13.1211 653.862 15.0763C654.124 17.0869 654.314 19.7845 654.314 23.2111C654.314 26.6379 654.124 29.3367 653.862 31.3478C653.607 33.3025 653.279 34.6403 652.981 35.3688C652.405 37.5724 651.231 39.5595 649.651 41.1392C648.072 42.7175 646.085 43.8935 643.882 44.4692C642.444 45.0593 638.619 45.8023 631.725 45.8023C624.83 45.8023 621.005 45.0592 619.566 44.4692C617.501 43.9297 615.626 42.8636 614.099 41.4325L613.797 41.1392C612.218 39.5597 611.041 37.5727 610.467 35.3688C610.169 34.6405 609.842 33.3057 609.587 31.3527C609.325 29.3432 609.134 26.6445 609.134 23.2111C609.134 19.778 609.325 17.0805 609.587 15.0714C609.842 13.1178 610.168 11.7827 610.467 11.0544C611.041 8.8508 612.218 6.86419 613.797 5.28487L614.099 4.99166C615.627 3.55872 617.504 2.49211 619.57 1.95297C620.298 1.6559 621.619 1.32983 623.565 1.07528C625.568 0.813159 628.267 0.621769 631.725 0.621769Z" stroke="black" stroke-opacity="0.07" stroke-width="1.14286"/>
<path d="M631.724 35.2222C638.357 35.2222 643.734 29.8451 643.734 23.2121C643.734 16.5791 638.357 11.202 631.724 11.202C625.091 11.202 619.714 16.5791 619.714 23.2121C619.714 29.8451 625.091 35.2222 631.724 35.2222Z" fill="#00DE5A"/>
<path d="M631.724 11.4522C638.219 11.4522 643.484 16.7172 643.484 23.2121C643.484 29.7069 638.219 34.9719 631.724 34.9719C625.229 34.9719 619.964 29.7069 619.964 23.2121C619.964 16.7172 625.229 11.4522 631.724 11.4522Z" stroke="black" stroke-opacity="0.1" stroke-width="0.5" stroke-linecap="round" stroke-linejoin="round"/>
<path d="M631.724 17.8201V23.4408L636.444 25.6987" stroke="black" stroke-width="2" stroke-linecap="square" stroke-linejoin="round"/>
<path fill-rule="evenodd" clip-rule="evenodd" d="M725.311 5.68914C723.792 4.17057 721.883 3.04511 719.769 2.49934C718.48 1.95458 714.664 1.19354 707.788 1.19354C700.913 1.19354 697.097 1.95458 695.806 2.49934C693.693 3.04511 691.784 4.17057 690.265 5.68914C688.747 7.20771 687.621 9.11739 687.076 11.2306C686.53 12.5207 685.769 16.3853 685.769 23.2116C685.769 30.0378 686.53 33.9044 687.076 35.1935C687.621 37.3067 688.747 39.2164 690.265 40.735C691.784 42.2525 693.693 43.379 695.806 43.9248C697.097 44.4705 700.832 45.2306 707.788 45.2306C714.745 45.2306 718.48 44.4705 719.769 43.9248C721.883 43.379 723.792 42.2525 725.311 40.735C726.829 39.2164 727.955 37.3067 728.501 35.1935C729.046 33.9044 729.806 30.0245 729.806 23.2116C729.806 16.3986 729.046 12.5207 728.501 11.2306C727.955 9.11739 726.829 7.20771 725.311 5.68914Z" fill="white"/>
<path d="M707.789 0.596357C711.247 0.596375 713.946 0.788574 715.951 1.05084C717.898 1.30561 719.222 1.63199 719.952 1.93049C722.16 2.50734 724.15 3.68489 725.733 5.26728C727.314 6.84867 728.49 8.83773 729.067 11.0436C729.367 11.775 729.695 13.1164 729.95 15.0734C730.212 17.0852 730.404 19.7838 730.404 23.2111C730.404 26.6387 730.212 29.3384 729.95 31.3507C729.695 33.3064 729.367 34.6471 729.067 35.3785C728.527 37.4465 727.46 39.3241 726.026 40.8538L725.733 41.1568C724.151 42.7372 722.162 43.9145 719.955 44.4917C718.513 45.0838 714.685 45.8277 707.789 45.8278C700.891 45.8278 697.062 45.0838 695.619 44.4917C693.552 43.9507 691.675 42.8828 690.146 41.45L689.843 41.1568C688.262 39.5752 687.084 37.5855 686.508 35.3785C686.209 34.6474 685.882 33.3104 685.627 31.3566C685.364 29.3458 685.172 26.6455 685.172 23.2111C685.172 19.7769 685.364 17.0778 685.627 15.0675C685.882 13.1131 686.209 11.7759 686.508 11.0446C687.084 8.83801 688.263 6.8487 689.843 5.26728L690.146 4.97406C691.676 3.53943 693.554 2.47111 695.623 1.93049C696.354 1.63203 697.678 1.30564 699.626 1.05084C701.631 0.78857 704.33 0.596357 707.789 0.596357Z" stroke="black" stroke-opacity="0.07" stroke-width="1.19255"/>
<path d="M707.887 35.3976C714.52 35.3976 719.897 30.0205 719.897 23.3875C719.897 16.7545 714.52 11.3774 707.887 11.3774C701.254 11.3774 695.877 16.7545 695.877 23.3875C695.877 30.0205 701.254 35.3976 707.887 35.3976Z" fill="#00DE5A"/>
<path d="M707.887 11.6276C714.382 11.6276 719.647 16.8927 719.647 23.3875C719.647 29.8823 714.382 35.1474 707.887 35.1474C701.392 35.1474 696.127 29.8823 696.127 23.3875C696.127 16.8927 701.392 11.6276 707.887 11.6276Z" stroke="black" stroke-opacity="0.1" stroke-width="0.5"/>
<path d="M711.729 22.4754V19.2308H709.824V24.5901L706.063 19.2308H704.045V22.4754H701.882V24.3157H704.045V27.5442H705.95V22.1849L709.711 27.5442H711.729V24.3157H713.892V22.4754H711.729Z" fill="black"/>
<path d="M705.933 19.481L709.619 24.7334L710.075 25.3824V19.481H711.479V22.7259H713.642V24.0659H711.479V27.2942H709.842L706.155 22.0408L705.7 21.3927V27.2942H704.295V24.0659H702.132V22.7259H704.295V19.481H705.933Z" stroke="black" stroke-opacity="0.1" stroke-width="0.5"/>
<defs>
<clipPath id="clip0_5_16898">
<rect width="25" height="23" fill="white" transform="translate(163.694 12.2028) scale(1.00084)"/>
</clipPath>
<clipPath id="clip1_5_16898">
<rect width="25" height="23" fill="white" transform="translate(239.894 11.9575) scale(1.00084)"/>
</clipPath>
<clipPath id="clip2_5_16898">
<rect width="28" height="28" fill="white" transform="translate(312.272 9.43191) scale(1.00084)"/>
</clipPath>
</defs>
</svg>
