<svg width="47" height="47" viewBox="0 0 47 47" fill="none" xmlns="http://www.w3.org/2000/svg">
<path fill-rule="evenodd" clip-rule="evenodd" d="M41.2402 5.7597C39.7028 4.2223 37.7694 3.08289 35.63 2.53035C34.3249 1.97883 30.461 1.20835 23.5005 1.20835C16.54 1.20835 12.6761 1.97883 11.37 2.53035C9.23055 3.08289 7.29718 4.2223 5.75978 5.7597C4.22339 7.2971 3.08297 9.23047 2.53144 11.3699C1.97891 12.676 1.20843 16.5885 1.20843 23.4994C1.20843 30.4103 1.97891 34.3249 2.53144 35.6299C3.08297 37.7694 4.22339 39.7027 5.75978 41.2401C7.29718 42.7765 9.23055 43.917 11.37 44.4695C12.6761 45.022 16.4575 45.7915 23.5005 45.7915C30.5435 45.7915 34.3249 45.022 35.63 44.4695C37.7694 43.917 39.7028 42.7765 41.2402 41.2401C42.7776 39.7027 43.917 37.7694 44.4696 35.6299C45.0221 34.3249 45.7916 30.3969 45.7916 23.4994C45.7916 16.602 45.0221 12.676 44.4696 11.3699C43.917 9.23047 42.7776 7.2971 41.2402 5.7597Z" fill="white"/>
<path d="M23.501 0.603764C27.0024 0.603782 29.7349 0.798365 31.7643 1.06388C33.7358 1.32182 35.0761 1.65223 35.8154 1.95444C38.0503 2.53844 40.0653 3.7306 41.6673 5.33261C43.2683 6.93361 44.4591 8.94734 45.0435 11.1806C45.347 11.9211 45.6789 13.279 45.937 15.2603C46.2023 17.2971 46.3961 20.0291 46.3962 23.4989C46.3962 26.969 46.2023 29.7023 45.937 31.7395C45.6792 33.7194 45.3469 35.0767 45.0435 35.8173C44.496 37.9109 43.416 39.8118 41.9642 41.3605L41.6673 41.6672C40.0663 43.2672 38.0521 44.4591 35.8183 45.0434C34.3583 45.6429 30.4823 46.396 23.501 46.3961C16.5177 46.3961 12.6409 45.6429 11.1807 45.0434C9.08762 44.4957 7.18756 43.4146 5.63944 41.9641L5.33269 41.6672C3.73249 40.066 2.53978 38.0516 1.9565 35.8173C1.65325 35.0771 1.32207 33.7235 1.06397 31.7455C0.798353 29.7097 0.603845 26.9759 0.603845 23.4989C0.603863 20.0222 0.798364 17.2896 1.06397 15.2544C1.3222 13.2757 1.65321 11.9219 1.9565 11.1816C2.53987 8.94762 3.73271 6.93364 5.33269 5.33261L5.63944 5.03576C7.18874 3.58334 9.09006 2.50177 11.1846 1.95444C11.9243 1.65228 13.2649 1.32184 15.2366 1.06388C17.2663 0.79836 19.9994 0.603764 23.501 0.603764Z" stroke="black" stroke-opacity="0.07" stroke-width="1.19255"/>
<mask id="path-3-inside-1_5_17104" fill="white">
<path fill-rule="evenodd" clip-rule="evenodd" d="M20.9612 16.6088L18.4047 12.6733C18.1737 12.3177 18.4289 11.8475 18.853 11.8475H28.142C28.5661 11.8475 28.8213 12.3177 28.5903 12.6733L26.0346 16.6077C30.4041 17.7331 33.6325 21.6998 33.6325 26.4207V28.2158C33.6325 32.0468 30.5269 35.1525 26.6959 35.1525H20.3041C16.4731 35.1525 13.3675 32.0468 13.3675 28.2158V26.4207C13.3675 21.7014 16.5938 17.7357 20.9612 16.6088Z"/>
</mask>
<path fill-rule="evenodd" clip-rule="evenodd" d="M20.9612 16.6088L18.4047 12.6733C18.1737 12.3177 18.4289 11.8475 18.853 11.8475H28.142C28.5661 11.8475 28.8213 12.3177 28.5903 12.6733L26.0346 16.6077C30.4041 17.7331 33.6325 21.6998 33.6325 26.4207V28.2158C33.6325 32.0468 30.5269 35.1525 26.6959 35.1525H20.3041C16.4731 35.1525 13.3675 32.0468 13.3675 28.2158V26.4207C13.3675 21.7014 16.5938 17.7357 20.9612 16.6088Z" fill="#FFBF1B"/>
<path d="M20.9612 16.6088L21.0877 17.0994L21.7697 16.9235L21.386 16.3329L20.9612 16.6088ZM18.4047 12.6733L18.8296 12.3973V12.3973L18.4047 12.6733ZM28.5903 12.6733L29.0151 12.9493L29.0151 12.9493L28.5903 12.6733ZM26.0346 16.6077L25.6097 16.3318L25.2259 16.9226L25.9082 17.0984L26.0346 16.6077ZM20.9612 16.6088L21.386 16.3329L18.8296 12.3973L18.4047 12.6733L17.9799 12.9493L20.5363 16.8848L20.9612 16.6088ZM18.4047 12.6733L18.8296 12.3973C18.8264 12.3924 18.8253 12.3893 18.8249 12.3879C18.8244 12.3864 18.8242 12.3852 18.8242 12.3838C18.8241 12.3808 18.8249 12.3752 18.8285 12.3688C18.832 12.3623 18.8362 12.3586 18.8388 12.357C18.8399 12.3562 18.8411 12.3557 18.8426 12.3553C18.8439 12.3549 18.8472 12.3541 18.853 12.3541V11.8475V11.3409C18.027 11.3409 17.5299 12.2566 17.9799 12.9493L18.4047 12.6733ZM18.853 11.8475V12.3541H28.142V11.8475V11.3409H18.853V11.8475ZM28.142 11.8475V12.3541C28.1478 12.3541 28.1511 12.3549 28.1524 12.3553C28.1539 12.3557 28.1551 12.3562 28.1562 12.357C28.1588 12.3586 28.163 12.3623 28.1665 12.3688C28.1701 12.3752 28.1709 12.3808 28.1708 12.3838C28.1708 12.3852 28.1706 12.3864 28.1701 12.3879C28.1697 12.3893 28.1686 12.3924 28.1654 12.3973L28.5903 12.6733L29.0151 12.9493C29.4651 12.2566 28.968 11.3409 28.142 11.3409V11.8475ZM28.5903 12.6733L28.1654 12.3973L25.6097 16.3318L26.0346 16.6077L26.4594 16.8837L29.0151 12.9493L28.5903 12.6733ZM26.0346 16.6077L25.9082 17.0984C30.0593 18.1674 33.1259 21.9366 33.1259 26.4207H33.6325H34.1392C34.1392 21.4631 30.7488 17.2987 26.1609 16.1171L26.0346 16.6077ZM33.6325 26.4207H33.1259V28.2158H33.6325H34.1392V26.4207H33.6325ZM33.6325 28.2158H33.1259C33.1259 31.767 30.2471 34.6458 26.6959 34.6458V35.1525V35.6591C30.8067 35.6591 34.1392 32.3266 34.1392 28.2158H33.6325ZM26.6959 35.1525V34.6458H20.3041V35.1525V35.6591H26.6959V35.1525ZM20.3041 35.1525V34.6458C16.7529 34.6458 13.8741 31.767 13.8741 28.2158H13.3675H12.8608C12.8608 32.3266 16.1933 35.6591 20.3041 35.6591V35.1525ZM13.3675 28.2158H13.8741V26.4207H13.3675H12.8608V28.2158H13.3675ZM13.3675 26.4207H13.8741C13.8741 21.9381 16.9386 18.1699 21.0877 17.0994L20.9612 16.6088L20.8346 16.1183C16.249 17.3014 12.8608 21.4647 12.8608 26.4207H13.3675Z" fill="black" fill-opacity="0.1" mask="url(#path-3-inside-1_5_17104)"/>
<path d="M20.7081 23.4999C20.7412 23.5001 20.77 23.5214 20.7774 23.5514L21.6313 27.1057C21.6471 27.1709 21.7457 27.1758 21.7689 27.1126L23.0384 23.6335C23.0676 23.5535 23.1432 23.4999 23.2284 23.4999H23.7627C23.8478 23.4999 23.9235 23.5535 23.9527 23.6335L25.2222 27.1126C25.2454 27.1758 25.344 27.1709 25.3598 27.1057L26.2137 23.5514C26.2211 23.5214 26.2499 23.5001 26.283 23.4999H27.5674C27.613 23.5 27.6468 23.5396 27.6366 23.5811L27.0855 25.8332H27.8909C27.9815 25.8332 28.0551 25.9069 28.0552 25.9974V27.0414C28.0552 27.132 27.9815 27.2056 27.8909 27.2056H26.749L26.1801 29.528C26.1726 29.5581 26.144 29.5794 26.1108 29.5794H24.771C24.7404 29.5794 24.7134 29.5609 24.7037 29.5339L23.5589 26.3537C23.5484 26.3248 23.5224 26.3109 23.4955 26.3101C23.4687 26.3109 23.4427 26.3248 23.4322 26.3537L22.2874 29.5339C22.2776 29.5609 22.2506 29.5794 22.2201 29.5794H20.8803C20.8471 29.5794 20.8185 29.5581 20.811 29.528L20.2421 27.2056H19.1002C19.0096 27.2056 18.9359 27.132 18.9359 27.0414V25.9974C18.936 25.9069 19.0096 25.8332 19.1002 25.8332H19.9056L19.3545 23.5811C19.3443 23.5396 19.3781 23.5 19.4237 23.4999H20.7081Z" fill="black"/>
<rect x="19.5551" y="15.177" width="7.88086" height="2.21933" rx="1.09515" fill="#F7C000"/>
<rect x="19.5551" y="15.177" width="7.88086" height="2.21933" rx="1.09515" fill="black" fill-opacity="0.15"/>
</svg>
