<svg width="47" height="47" viewBox="0 0 47 47" fill="none" xmlns="http://www.w3.org/2000/svg">
<path fill-rule="evenodd" clip-rule="evenodd" d="M41.2422 5.75777C39.7046 4.2202 37.771 3.08065 35.6313 2.52805C34.3261 1.97647 30.4618 1.20591 23.5005 1.20591C16.5392 1.20591 12.6748 1.97647 11.3686 2.52805C9.22888 3.08065 7.29529 4.2202 5.75772 5.75777C4.22115 7.29535 3.0806 9.22893 2.52901 11.3686C1.97641 12.6748 1.20585 16.5878 1.20585 23.4995C1.20585 30.4112 1.97641 34.3262 2.52901 35.6314C3.0806 37.7711 4.22115 39.7047 5.75772 41.2422C7.29529 42.7788 9.22888 43.9193 11.3686 44.4719C12.6748 45.0245 16.4567 45.7941 23.5005 45.7941C30.5442 45.7941 34.3261 45.0245 35.6313 44.4719C37.771 43.9193 39.7046 42.7788 41.2422 41.2422C42.7798 39.7047 43.9193 37.7711 44.4719 35.6314C45.0245 34.3262 45.7941 30.3977 45.7941 23.4995C45.7941 16.6013 45.0245 12.6748 44.4719 11.3686C43.9193 9.22893 42.7798 7.29535 41.2422 5.75777Z" fill="white"/>
<path d="M23.5009 0.60323C27.0027 0.603247 29.7356 0.796869 31.7652 1.06241C33.7364 1.32031 35.0764 1.65096 35.8157 1.95307C38.0509 2.53701 40.0661 3.72942 41.6683 5.33162C43.2702 6.93354 44.4618 8.94848 45.0459 11.1832C45.349 11.9244 45.6808 13.281 45.9385 15.2595C46.2038 17.2964 46.3967 20.0288 46.3967 23.499C46.3967 26.9695 46.2039 29.7031 45.9385 31.7405C45.6809 33.7184 45.349 35.0747 45.0459 35.8158C44.4619 38.0509 43.2705 40.0662 41.6683 41.6684C40.0666 43.2691 38.0516 44.4618 35.8167 45.0459C34.3548 45.6452 30.4789 46.3967 23.5009 46.3968C16.5209 46.3968 12.6442 45.6452 11.1822 45.0459C8.94766 44.4618 6.93308 43.2688 5.33156 41.6684C3.73067 40.0664 2.53702 38.0512 1.954 35.8158C1.65104 35.075 1.3202 33.7217 1.06235 31.7455C0.796745 29.7096 0.603172 26.9762 0.603172 23.499C0.60319 20.0219 0.79673 17.289 1.06235 15.2535C1.32032 13.277 1.65103 11.924 1.954 11.1832C2.53711 8.94815 3.73089 6.93334 5.33156 5.33162L5.63834 5.03473C7.18761 3.58236 9.0887 2.50042 11.1832 1.95307C11.9227 1.6509 13.2634 1.32043 15.2356 1.06241C17.2655 0.796858 19.9989 0.60323 23.5009 0.60323Z" stroke="black" stroke-opacity="0.07" stroke-width="1.19"/>
<path d="M35.8224 18.7383L34.2633 19.3093V22.8919L36.5397 19.6762C36.8903 19.181 36.3921 18.5297 35.8224 18.7383Z" fill="#FFBF1B" stroke="#EDB219" stroke-width="0.5" stroke-linecap="round" stroke-linejoin="round"/>
<mask id="path-4-inside-1_5_17081" fill="white">
<path fill-rule="evenodd" clip-rule="evenodd" d="M14.3885 12.4648C15.7781 12.4648 17.1516 12.7998 18.3846 13.4405L18.6637 13.585C18.7177 13.6132 18.7589 13.6528 18.7933 13.6959C20.2637 13.1383 21.8995 12.825 23.6236 12.825C30.02 12.8252 35.2051 17.1049 35.2051 22.3837C35.2051 25.2754 33.647 27.8641 31.1883 29.6168L30.2412 33.7455H26.6014L26.0462 31.7297C25.2648 31.867 24.4547 31.9424 23.6236 31.9424C22.792 31.9424 21.981 31.8671 21.1991 31.7297L20.6449 33.7455H17.0051L16.058 29.6168C14.6373 28.604 13.5187 27.3126 12.8269 25.8434L12.6181 25.6623H11.9155C11.2948 25.6623 10.7702 25.202 10.6893 24.5866L10.338 21.9127C10.2518 21.2561 10.7253 20.6576 11.3841 20.5905C11.6563 20.5629 11.9105 20.4411 12.1025 20.2461L12.436 19.9067C12.9374 18.3605 13.897 16.9704 15.1872 15.8384C15.1007 15.7581 15.0328 15.6612 15.0051 15.5544C14.8072 14.7925 14.378 13.8189 14.0125 13.0793C13.8741 12.7995 14.0764 12.465 14.3885 12.4648Z"/>
</mask>
<path fill-rule="evenodd" clip-rule="evenodd" d="M14.3885 12.4648C15.7781 12.4648 17.1516 12.7998 18.3846 13.4405L18.6637 13.585C18.7177 13.6132 18.7589 13.6528 18.7933 13.6959C20.2637 13.1383 21.8995 12.825 23.6236 12.825C30.02 12.8252 35.2051 17.1049 35.2051 22.3837C35.2051 25.2754 33.647 27.8641 31.1883 29.6168L30.2412 33.7455H26.6014L26.0462 31.7297C25.2648 31.867 24.4547 31.9424 23.6236 31.9424C22.792 31.9424 21.981 31.8671 21.1991 31.7297L20.6449 33.7455H17.0051L16.058 29.6168C14.6373 28.604 13.5187 27.3126 12.8269 25.8434L12.6181 25.6623H11.9155C11.2948 25.6623 10.7702 25.202 10.6893 24.5866L10.338 21.9127C10.2518 21.2561 10.7253 20.6576 11.3841 20.5905C11.6563 20.5629 11.9105 20.4411 12.1025 20.2461L12.436 19.9067C12.9374 18.3605 13.897 16.9704 15.1872 15.8384C15.1007 15.7581 15.0328 15.6612 15.0051 15.5544C14.8072 14.7925 14.378 13.8189 14.0125 13.0793C13.8741 12.7995 14.0764 12.465 14.3885 12.4648Z" fill="#FFBF1B"/>
<path d="M14.3885 12.4648V11.9581L14.3882 11.9581L14.3885 12.4648ZM18.3846 13.4405L18.151 13.8901L18.1516 13.8905L18.3846 13.4405ZM18.6637 13.585L18.8976 13.1356L18.8966 13.1351L18.6637 13.585ZM18.7933 13.6959L18.3973 14.012L18.6277 14.3006L18.973 14.1696L18.7933 13.6959ZM23.6236 12.825L23.6236 12.3183H23.6236V12.825ZM35.2051 22.3837H35.7118V22.3837L35.2051 22.3837ZM31.1883 29.6168L30.8942 29.2042L30.7374 29.316L30.6944 29.5035L31.1883 29.6168ZM30.2412 33.7455V34.2522H30.6448L30.7351 33.8588L30.2412 33.7455ZM26.6014 33.7455L26.1129 33.88L26.2154 34.2522H26.6014V33.7455ZM26.0462 31.7297L26.5347 31.5951L26.4124 31.1509L25.9585 31.2306L26.0462 31.7297ZM23.6236 31.9424V32.4491H23.6236L23.6236 31.9424ZM21.1991 31.7297L21.2868 31.2306L20.8327 31.1508L20.7105 31.5953L21.1991 31.7297ZM20.6449 33.7455V34.2522H21.0311L21.1334 33.8798L20.6449 33.7455ZM17.0051 33.7455L16.5112 33.8588L16.6015 34.2522H17.0051V33.7455ZM16.058 29.6168L16.5519 29.5035L16.5088 29.316L16.3521 29.2042L16.058 29.6168ZM12.8269 25.8434L13.2853 25.6276L13.2397 25.5307L13.1589 25.4606L12.8269 25.8434ZM12.6181 25.6623L12.9501 25.2795L12.8072 25.1556H12.6181V25.6623ZM11.9155 25.6623L11.9155 26.169H11.9155V25.6623ZM10.6893 24.5866L11.1917 24.5206L11.1917 24.5206L10.6893 24.5866ZM10.338 21.9127L9.83565 21.9786L9.83566 21.9787L10.338 21.9127ZM11.3841 20.5905L11.3329 20.0864L11.3328 20.0864L11.3841 20.5905ZM12.1025 20.2461L12.4635 20.6017L12.4639 20.6012L12.1025 20.2461ZM12.436 19.9067L12.7974 20.2618L12.8811 20.1766L12.918 20.063L12.436 19.9067ZM15.1872 15.8384L15.5213 16.2192L15.943 15.8492L15.5321 15.4673L15.1872 15.8384ZM15.0051 15.5544L15.4955 15.427L15.4955 15.427L15.0051 15.5544ZM14.0125 13.0793L14.4667 12.8548L14.4667 12.8548L14.0125 13.0793ZM14.3885 12.4648V12.9715C15.6969 12.9715 16.9903 13.287 18.151 13.8901L18.3846 13.4405L18.6182 12.9909C17.313 12.3126 15.8593 11.9581 14.3885 11.9581V12.4648ZM18.3846 13.4405L18.1516 13.8905L18.4307 14.035L18.6637 13.585L18.8966 13.1351L18.6176 12.9906L18.3846 13.4405ZM18.6637 13.585L18.4297 14.0345C18.4022 14.0201 18.3915 14.0047 18.3973 14.012L18.7933 13.6959L19.1893 13.3798C19.1264 13.3009 19.0333 13.2062 18.8976 13.1356L18.6637 13.585ZM18.7933 13.6959L18.973 14.1696C20.3858 13.6338 21.9608 13.3317 23.6236 13.3317V12.825V12.3183C21.8382 12.3183 20.1415 12.6427 18.6136 13.2221L18.7933 13.6959ZM23.6236 12.825L23.6236 13.3317C29.8355 13.3318 34.6984 17.4714 34.6984 22.3837L35.2051 22.3837L35.7118 22.3837C35.7118 16.7384 30.2045 12.3185 23.6236 12.3183L23.6236 12.825ZM35.2051 22.3837H34.6984C34.6984 25.082 33.2455 27.528 30.8942 29.2042L31.1883 29.6168L31.4824 30.0294C34.0484 28.2002 35.7118 25.4688 35.7118 22.3837H35.2051ZM31.1883 29.6168L30.6944 29.5035L29.7473 33.6322L30.2412 33.7455L30.7351 33.8588L31.6821 29.7301L31.1883 29.6168ZM30.2412 33.7455V33.2388H26.6014V33.7455V34.2522H30.2412V33.7455ZM26.6014 33.7455L27.0899 33.611L26.5347 31.5951L26.0462 31.7297L25.5577 31.8642L26.1129 33.88L26.6014 33.7455ZM26.0462 31.7297L25.9585 31.2306C25.2047 31.3631 24.424 31.4357 23.6236 31.4357L23.6236 31.9424L23.6236 32.4491C24.4854 32.4491 25.3248 32.3708 26.1339 32.2287L26.0462 31.7297ZM23.6236 31.9424V31.4357C22.8226 31.4357 22.041 31.3632 21.2868 31.2306L21.1991 31.7297L21.1113 32.2287C21.921 32.371 22.7614 32.4491 23.6236 32.4491V31.9424ZM21.1991 31.7297L20.7105 31.5953L20.1563 33.6112L20.6449 33.7455L21.1334 33.8798L21.6876 31.864L21.1991 31.7297ZM20.6449 33.7455V33.2388H17.0051V33.7455V34.2522H20.6449V33.7455ZM17.0051 33.7455L17.4989 33.6322L16.5519 29.5035L16.058 29.6168L15.5642 29.7301L16.5112 33.8588L17.0051 33.7455ZM16.058 29.6168L16.3521 29.2042C14.994 28.2361 13.9361 27.0097 13.2853 25.6276L12.8269 25.8434L12.3685 26.0593C13.1013 27.6155 14.2805 28.9719 15.7639 30.0294L16.058 29.6168ZM12.8269 25.8434L13.1589 25.4606L12.9501 25.2795L12.6181 25.6623L12.2861 26.0451L12.4949 26.2262L12.8269 25.8434ZM12.6181 25.6623V25.1556H11.9155V25.6623V26.169H12.6181V25.6623ZM11.9155 25.6623L11.9155 25.1556C11.5492 25.1556 11.2394 24.8839 11.1917 24.5206L10.6893 24.5866L10.187 24.6526C10.3009 25.5201 11.0404 26.169 11.9155 26.169L11.9155 25.6623ZM10.6893 24.5866L11.1917 24.5206L10.8404 21.8467L10.338 21.9127L9.83566 21.9787L10.187 24.6526L10.6893 24.5866ZM10.338 21.9127L10.8404 21.8467C10.7914 21.4732 11.0608 21.1327 11.4353 21.0946L11.3841 20.5905L11.3328 20.0864C10.3897 20.1824 9.71229 21.039 9.83565 21.9786L10.338 21.9127ZM11.3841 20.5905L11.4352 21.0946C11.8248 21.0551 12.1886 20.8808 12.4635 20.6017L12.1025 20.2461L11.7415 19.8906C11.6324 20.0014 11.4878 20.0707 11.3329 20.0864L11.3841 20.5905ZM12.1025 20.2461L12.4639 20.6012L12.7974 20.2618L12.436 19.9067L12.0746 19.5516L11.7411 19.891L12.1025 20.2461ZM12.436 19.9067L12.918 20.063C13.3881 18.6133 14.2917 17.2982 15.5213 16.2192L15.1872 15.8384L14.853 15.4575C13.5023 16.6426 12.4868 18.1077 11.954 19.7504L12.436 19.9067ZM15.1872 15.8384L15.5321 15.4673C15.5142 15.4506 15.5034 15.437 15.4977 15.4283C15.492 15.4197 15.4934 15.4191 15.4955 15.427L15.0051 15.5544L14.5146 15.6817C14.5737 15.9091 14.7088 16.0855 14.8422 16.2095L15.1872 15.8384ZM15.0051 15.5544L15.4955 15.427C15.284 14.6128 14.8355 13.601 14.4667 12.8548L14.0125 13.0793L13.5582 13.3038C13.9205 14.0368 14.3304 14.9723 14.5147 15.6818L15.0051 15.5544ZM14.0125 13.0793L14.4667 12.8548C14.4805 12.8827 14.4751 12.9131 14.4643 12.9308C14.4588 12.9399 14.4498 12.9499 14.4358 12.9581C14.4206 12.9671 14.4034 12.9715 14.3889 12.9715L14.3885 12.4648L14.3882 11.9581C13.69 11.9586 13.2582 12.6968 13.5582 13.3038L14.0125 13.0793Z" fill="black" fill-opacity="0.1" mask="url(#path-4-inside-1_5_17081)"/>
<ellipse cx="17.2561" cy="20.3081" rx="1.19487" ry="1.18555" fill="black"/>
<path d="M17.2557 19.3759C17.7776 19.3759 18.1978 19.7951 18.1978 20.3081C18.1978 20.8211 17.7776 21.2403 17.2557 21.2403C16.734 21.2401 16.3146 20.821 16.3146 20.3081C16.3146 19.7953 16.734 19.3761 17.2557 19.3759Z" stroke="black" stroke-opacity="0.1" stroke-width="0.5"/>
</svg>
