<svg width="731" height="47" viewBox="0 0 731 47" fill="none" xmlns="http://www.w3.org/2000/svg">
<path fill-rule="evenodd" clip-rule="evenodd" d="M40.7353 5.68958C39.2166 4.1709 37.3068 3.04536 35.1934 2.49955C33.9043 1.95475 30.0874 1.19366 23.2116 1.19366C16.3359 1.19366 12.519 1.95475 11.2288 2.49955C9.11546 3.04536 7.20563 4.1709 5.68695 5.68958C4.16927 7.20826 3.04273 9.11808 2.49793 11.2315C1.95212 12.5216 1.19103 16.3865 1.19103 23.2133C1.19103 30.04 1.95212 33.9069 2.49793 35.196C3.04273 37.3094 4.16927 39.2193 5.68695 40.7379C7.20563 42.2556 9.11546 43.3821 11.2288 43.9279C12.519 44.4738 16.2544 45.2339 23.2116 45.2339C30.1689 45.2339 33.9043 44.4738 35.1934 43.9279C37.3068 43.3821 39.2166 42.2556 40.7353 40.7379C42.254 39.2193 43.3795 37.3094 43.9253 35.196C44.4711 33.9069 45.2312 30.0267 45.2312 23.2133C45.2312 16.3998 44.4711 12.5216 43.9253 11.2315C43.3795 9.11808 42.254 7.20826 40.7353 5.68958Z" fill="white"/>
<path d="M23.2121 0.598386C26.6708 0.598403 29.3701 0.789646 31.3748 1.05192C33.3217 1.30665 34.6453 1.63323 35.3756 1.93163C37.5833 2.5084 39.5737 3.68616 41.1562 5.26866C42.7384 6.85089 43.9154 8.84107 44.4923 11.0484C44.7917 11.7804 45.1194 13.1204 45.3739 15.0745C45.636 17.0864 45.8265 19.7852 45.8265 23.2128C45.8265 26.6407 45.636 29.3406 45.3739 31.353C45.1195 33.3065 44.7916 34.6462 44.4923 35.3782C43.9155 37.5858 42.7387 39.5764 41.1562 41.1588C39.5742 42.7399 37.584 43.918 35.3765 44.4949C33.9325 45.0868 30.1043 45.8291 23.2121 45.8291C16.3179 45.8291 12.4888 45.0868 11.0447 44.4949C8.83769 43.9179 6.84787 42.7396 5.26604 41.1588C3.68482 39.5766 2.50584 37.5861 1.92998 35.3782C1.63075 34.6465 1.30397 33.3098 1.0493 31.3579C0.786953 29.3471 0.595759 26.6472 0.595759 23.2128C0.595776 19.7784 0.786939 17.079 1.0493 15.0686C1.30409 13.1164 1.63074 11.7801 1.92998 11.0484C2.50593 8.84075 3.68504 6.8507 5.26604 5.26866L5.56905 4.97543C7.09928 3.54091 8.977 2.47226 11.0457 1.93163C11.7761 1.63318 13.1004 1.30678 15.0484 1.05192C17.0533 0.789634 19.7532 0.598386 23.2121 0.598386Z" stroke="black" stroke-opacity="0.07" stroke-width="1.19"/>
<mask id="path-3-inside-1_5_17130" fill="white">
<path d="M31.6045 12.2037C32.0056 12.2037 32.3308 12.5302 32.3308 12.9329V33.4242L32.1861 33.7233C32.0375 34.0295 31.6334 34.1013 31.3885 33.8651L30.2908 32.8036C30.0984 32.6174 29.7933 32.6156 29.5988 32.7997L28.3789 33.954C27.9988 34.3138 27.4058 34.3205 27.0183 33.9687L25.7163 32.786C25.5211 32.6087 25.2218 32.6135 25.0321 32.7967L23.8602 33.9296C23.4767 34.3005 22.8694 34.3059 22.48 33.9413L21.2523 32.7909C21.0599 32.6108 20.7605 32.6107 20.5681 32.7909L19.3297 33.9511C18.9447 34.3116 18.3461 34.3116 17.9612 33.9511L16.7541 32.8212C16.549 32.6291 16.2258 32.6431 16.0386 32.8524L14.9653 34.0537C14.659 34.3961 14.0915 34.1788 14.0915 33.7194V12.9329C14.0915 12.5302 14.4166 12.2037 14.8177 12.2037H31.6045Z"/>
</mask>
<path d="M31.6045 12.2037C32.0056 12.2037 32.3308 12.5302 32.3308 12.9329V33.4242L32.1861 33.7233C32.0375 34.0295 31.6334 34.1013 31.3885 33.8651L30.2908 32.8036C30.0984 32.6174 29.7933 32.6156 29.5988 32.7997L28.3789 33.954C27.9988 34.3138 27.4058 34.3205 27.0183 33.9687L25.7163 32.786C25.5211 32.6087 25.2218 32.6135 25.0321 32.7967L23.8602 33.9296C23.4767 34.3005 22.8694 34.3059 22.48 33.9413L21.2523 32.7909C21.0599 32.6108 20.7605 32.6107 20.5681 32.7909L19.3297 33.9511C18.9447 34.3116 18.3461 34.3116 17.9612 33.9511L16.7541 32.8212C16.549 32.6291 16.2258 32.6431 16.0386 32.8524L14.9653 34.0537C14.659 34.3961 14.0915 34.1788 14.0915 33.7194V12.9329C14.0915 12.5302 14.4166 12.2037 14.8177 12.2037H31.6045Z" fill="#CAD1DC"/>
<path d="M32.3308 12.9329H32.8312V12.9329L32.3308 12.9329ZM32.3308 33.4242L32.7813 33.6421L32.8312 33.5389V33.4242H32.3308ZM32.1861 33.7233L32.6364 33.9419L32.6366 33.9412L32.1861 33.7233ZM31.3885 33.8651L31.0406 34.2248L31.041 34.2252L31.3885 33.8651ZM30.2908 32.8036L30.6387 32.4438L30.6387 32.4438L30.2908 32.8036ZM29.5988 32.7997L29.2548 32.4361L29.2548 32.4362L29.5988 32.7997ZM28.3789 33.954L28.0349 33.5905L28.0349 33.5905L28.3789 33.954ZM27.0183 33.9687L26.6818 34.3391L26.6819 34.3392L27.0183 33.9687ZM25.7163 32.786L26.0528 32.4155L26.0528 32.4154L25.7163 32.786ZM25.0321 32.7967L24.6844 32.4368L24.6843 32.4369L25.0321 32.7967ZM23.8602 33.9296L23.5123 33.5698L23.5122 33.5699L23.8602 33.9296ZM22.48 33.9413L22.1378 34.3065L22.1379 34.3066L22.48 33.9413ZM21.2523 32.7909L21.5945 32.4257L21.5942 32.4254L21.2523 32.7909ZM20.5681 32.7909L20.2261 32.4255L20.2259 32.4256L20.5681 32.7909ZM19.3297 33.9511L19.6718 34.3164L19.6718 34.3163L19.3297 33.9511ZM17.9612 33.9511L18.3033 33.5858L18.3032 33.5857L17.9612 33.9511ZM16.7541 32.8212L16.412 33.1864L16.4121 33.1865L16.7541 32.8212ZM16.0386 32.8524L15.6655 32.5188L15.6654 32.519L16.0386 32.8524ZM14.9653 34.0537L15.3383 34.3874L15.3385 34.3872L14.9653 34.0537ZM14.0915 12.9329L13.591 12.9329V12.9329H14.0915ZM31.6045 12.2037V12.7042C31.7273 12.7042 31.8303 12.8047 31.8303 12.9329L32.3308 12.9329L32.8312 12.9329C32.8312 12.2557 32.2839 11.7032 31.6045 11.7032V12.2037ZM32.3308 12.9329H31.8303V33.4242H32.3308H32.8312V12.9329H32.3308ZM32.3308 33.4242L31.8803 33.2063L31.7356 33.5054L32.1861 33.7233L32.6366 33.9412L32.7813 33.6421L32.3308 33.4242ZM32.1861 33.7233L31.7359 33.5048L31.736 33.5049L31.3885 33.8651L31.041 34.2252C31.5309 34.6979 32.3393 34.554 32.6364 33.9419L32.1861 33.7233ZM31.3885 33.8651L31.7364 33.5053L30.6387 32.4438L30.2908 32.8036L29.9429 33.1633L31.0406 34.2248L31.3885 33.8651ZM30.2908 32.8036L30.6387 32.4438C30.254 32.0717 29.644 32.0679 29.2548 32.4361L29.5988 32.7997L29.9427 33.1632L29.9429 33.1633L30.2908 32.8036ZM29.5988 32.7997L29.2548 32.4362L28.0349 33.5905L28.3789 33.954L28.7229 34.3175L29.9428 33.1632L29.5988 32.7997ZM28.3789 33.954L28.0349 33.5905C27.8445 33.7708 27.5481 33.7737 27.3547 33.5981L27.0183 33.9687L26.6819 34.3392C27.2636 34.8672 28.1531 34.8568 28.7229 34.3175L28.3789 33.954ZM27.0183 33.9687L27.3548 33.5983L26.0528 32.4155L25.7163 32.786L25.3798 33.1564L26.6818 34.3391L27.0183 33.9687ZM25.7163 32.786L26.0528 32.4154C25.6621 32.0607 25.0634 32.0707 24.6844 32.4368L25.0321 32.7967L25.3798 33.1567L25.3799 33.1565L25.7163 32.786ZM25.0321 32.7967L24.6843 32.4369L23.5123 33.5698L23.8602 33.9296L24.208 34.2894L25.3799 33.1565L25.0321 32.7967ZM23.8602 33.9296L23.5122 33.5699C23.3201 33.7557 23.0164 33.758 22.822 33.576L22.48 33.9413L22.1379 34.3066C22.7225 34.8539 23.6332 34.8453 24.2081 34.2893L23.8602 33.9296ZM22.48 33.9413L22.8222 33.5761L21.5945 32.4257L21.2523 32.7909L20.9101 33.156L22.1378 34.3065L22.48 33.9413ZM21.2523 32.7909L21.5942 32.4254C21.2095 32.0655 20.611 32.0651 20.2261 32.4255L20.5681 32.7909L20.9101 33.1562L20.9104 33.1563L21.2523 32.7909ZM20.5681 32.7909L20.2259 32.4256L18.9875 33.5859L19.3297 33.9511L19.6718 34.3163L20.9102 33.1561L20.5681 32.7909ZM19.3297 33.9511L18.9875 33.5858C18.7951 33.7661 18.4958 33.7661 18.3033 33.5858L17.9612 33.9511L17.6191 34.3164C18.1965 34.8571 19.0944 34.8571 19.6718 34.3164L19.3297 33.9511ZM17.9612 33.9511L18.3032 33.5857L17.0961 32.4558L16.7541 32.8212L16.4121 33.1865L17.6192 34.3165L17.9612 33.9511ZM16.7541 32.8212L17.0962 32.4559C16.6866 32.0723 16.0405 32.0995 15.6655 32.5188L16.0386 32.8524L16.4116 33.1861L16.412 33.1864L16.7541 32.8212ZM16.0386 32.8524L15.6654 32.519L14.5921 33.7203L14.9653 34.0537L15.3385 34.3872L16.4118 33.1859L16.0386 32.8524ZM14.9653 34.0537L14.5923 33.7201L14.5919 33.7194H14.0915H13.591C13.591 34.6372 14.725 35.073 15.3383 34.3874L14.9653 34.0537ZM14.0915 33.7194H14.5919V12.9329H14.0915H13.591V33.7194H14.0915ZM14.0915 12.9329L14.5919 12.9329C14.5919 12.8047 14.6949 12.7042 14.8177 12.7042V12.2037V11.7032C14.1383 11.7032 13.591 12.2557 13.591 12.9329L14.0915 12.9329ZM14.8177 12.2037V12.7042H31.6045V12.2037V11.7032H14.8177V12.2037Z" fill="black" fill-opacity="0.1" mask="url(#path-3-inside-1_5_17130)"/>
<rect x="18.1447" y="16.3708" width="10.133" height="1.77327" fill="black"/>
<rect x="18.1447" y="19.836" width="5.06648" height="1.77327" fill="black"/>
<path fill-rule="evenodd" clip-rule="evenodd" d="M116.805 5.68958C115.286 4.1709 113.376 3.04536 111.263 2.49955C109.974 1.95475 106.157 1.19366 99.2811 1.19366C92.4053 1.19366 88.5884 1.95475 87.2983 2.49955C85.1849 3.04536 83.2751 4.1709 81.7564 5.68958C80.2387 7.20826 79.1122 9.11808 78.5674 11.2315C78.0216 12.5216 77.2605 16.3865 77.2605 23.2133C77.2605 30.04 78.0216 33.9069 78.5674 35.1961C79.1122 37.3094 80.2387 39.2193 81.7564 40.7379C83.2751 42.2556 85.1849 43.3821 87.2983 43.928C88.5884 44.4738 92.3238 45.2339 99.2811 45.2339C106.238 45.2339 109.974 44.4738 111.263 43.928C113.376 43.3821 115.286 42.2556 116.805 40.7379C118.323 39.2193 119.449 37.3094 119.995 35.1961C120.541 33.9069 121.301 30.0267 121.301 23.2133C121.301 16.3998 120.541 12.5216 119.995 11.2315C119.449 9.11808 118.323 7.20826 116.805 5.68958Z" fill="white"/>
<path d="M99.2815 0.621844C102.739 0.621862 105.438 0.81326 107.441 1.07538C109.386 1.32983 110.707 1.65611 111.434 1.95314C113.64 2.52834 115.628 3.70446 117.209 5.28528C118.789 6.8649 119.964 8.85179 120.539 11.0552C120.838 11.7839 121.165 13.122 121.42 15.0774C121.682 17.0882 121.872 19.786 121.872 23.2128C121.872 26.6399 121.682 29.3388 121.42 31.3501C121.165 33.3049 120.838 34.6428 120.539 35.3713C119.964 37.5751 118.789 39.5624 117.209 41.1422C115.63 42.7206 113.643 43.8967 111.439 44.4724C110.001 45.0626 106.177 45.8056 99.2815 45.8057C92.3858 45.8057 88.5606 45.0625 87.122 44.4724C85.0569 43.9328 83.1816 42.8667 81.6541 41.4355L81.3521 41.1422C79.7735 39.5626 78.5966 37.5754 78.0219 35.3713C77.7236 34.643 77.397 33.3081 77.1422 31.355C76.88 29.3453 76.6887 26.6464 76.6887 23.2128C76.6887 19.7794 76.88 17.0817 77.1422 15.0725C77.3972 13.1188 77.7236 11.7836 78.0219 11.0552C78.5966 8.85147 79.7737 6.86472 81.3521 5.28528L81.6541 4.99204C83.1828 3.559 85.0593 2.49232 87.1259 1.95314C87.8538 1.65605 89.1749 1.32996 91.1208 1.07538C93.1245 0.813248 95.8234 0.621844 99.2815 0.621844Z" stroke="black" stroke-opacity="0.07" stroke-width="1.14286"/>
<path d="M99.38 35.5149C106.013 35.5149 111.391 30.1374 111.391 23.5039C111.391 16.8705 106.013 11.493 99.38 11.493C92.7465 11.493 87.3691 16.8705 87.3691 23.5039C87.3691 30.1374 92.7465 35.5149 99.38 35.5149Z" fill="#00DE5A"/>
<path d="M99.38 11.7432C105.875 11.7432 111.141 17.0087 111.141 23.5039C111.141 29.9992 105.875 35.2647 99.38 35.2647C92.8847 35.2647 87.6193 29.9992 87.6193 23.5039C87.6193 17.0087 92.8847 11.7432 99.38 11.7432Z" stroke="black" stroke-opacity="0.1" stroke-width="0.5"/>
<path d="M99.4411 22.9305L102.05 19.3501H103.747V22.5845H105.385V24.4212H103.747V27.6575H101.875V22.5444L99.4528 25.8912L97.019 22.5327V27.6575H95.1589V24.4212H93.375V22.5845H95.1589V19.3501H96.8548L99.4411 22.9305Z" fill="black"/>
<path fill-rule="evenodd" clip-rule="evenodd" d="M192.874 5.68958C191.356 4.1709 189.446 3.04536 187.332 2.49955C186.043 1.95475 182.226 1.19366 175.35 1.19366C168.475 1.19366 164.658 1.95475 163.368 2.49955C161.254 3.04536 159.345 4.1709 157.826 5.68958C156.308 7.20826 155.182 9.11808 154.637 11.2315C154.091 12.5216 153.33 16.3865 153.33 23.2133C153.33 30.04 154.091 33.9069 154.637 35.1961C155.182 37.3094 156.308 39.2193 157.826 40.7379C159.345 42.2556 161.254 43.3821 163.368 43.928C164.658 44.4738 168.393 45.2339 175.35 45.2339C182.308 45.2339 186.043 44.4738 187.332 43.928C189.446 43.3821 191.356 42.2556 192.874 40.7379C194.393 39.2193 195.518 37.3094 196.064 35.1961C196.61 33.9069 197.37 30.0267 197.37 23.2133C197.37 16.3998 196.61 12.5216 196.064 11.2315C195.518 9.11808 194.393 7.20826 192.874 5.68958Z" fill="white"/>
<path d="M175.351 0.621844C178.809 0.621862 181.507 0.81326 183.511 1.07538C185.456 1.32983 186.776 1.65611 187.504 1.95314C189.709 2.52834 191.698 3.70446 193.278 5.28528C194.858 6.8649 196.033 8.85179 196.609 11.0552C196.907 11.7839 197.235 13.122 197.489 15.0774C197.751 17.0882 197.942 19.786 197.942 23.2128C197.942 26.6399 197.751 29.3388 197.489 31.3501C197.235 33.3049 196.907 34.6428 196.609 35.3713C196.033 37.5751 194.858 39.5624 193.278 41.1422C191.699 42.7206 189.712 43.8967 187.509 44.4724C186.071 45.0626 182.246 45.8056 175.351 45.8057C168.455 45.8057 164.63 45.0625 163.191 44.4724C161.126 43.9328 159.251 42.8667 157.724 41.4355L157.422 41.1422C155.843 39.5626 154.666 37.5754 154.091 35.3713C153.793 34.643 153.466 33.3081 153.212 31.355C152.949 29.3453 152.758 26.6464 152.758 23.2128C152.758 19.7794 152.949 17.0817 153.212 15.0725C153.467 13.1188 153.793 11.7836 154.091 11.0552C154.666 8.85147 155.843 6.86472 157.422 5.28528L157.724 4.99204C159.252 3.559 161.129 2.49232 163.195 1.95314C163.923 1.65605 165.244 1.32996 167.19 1.07538C169.194 0.813248 171.893 0.621844 175.351 0.621844Z" stroke="black" stroke-opacity="0.07" stroke-width="1.14286"/>
<path d="M181.304 12.1968V18.4579L167.789 18.9291H163.839V15.8849C163.839 14.9195 164.528 14.0916 165.478 13.9163L180.121 11.2125C180.736 11.0989 181.304 11.5712 181.304 12.1968Z" fill="#00DE5A"/>
<path d="M181.304 12.1968V18.4579L167.789 18.9291H163.839V15.8849C163.839 14.9195 164.528 14.0916 165.478 13.9163L180.121 11.2125C180.736 11.0989 181.304 11.5712 181.304 12.1968Z" fill="black" fill-opacity="0.2"/>
<path d="M180.167 11.4584C180.628 11.3734 181.053 11.7275 181.053 12.1964V18.2155L167.781 18.6789H164.09V15.8853C164.09 15.0406 164.693 14.3154 165.524 14.162L180.167 11.4584Z" stroke="black" stroke-opacity="0.1" stroke-width="0.5"/>
<path d="M184.408 14.4942V17.6684L165.155 18.284V17.2534C165.155 16.7617 165.512 16.3428 165.998 16.2651L183.249 13.5058C183.857 13.4086 184.408 13.8783 184.408 14.4942Z" fill="#00DE5A"/>
<path d="M184.408 14.4942V17.6684L165.155 18.284V17.2534C165.155 16.7617 165.512 16.3428 165.998 16.2651L183.249 13.5058C183.857 13.4086 184.408 13.8783 184.408 14.4942Z" fill="black" fill-opacity="0.2"/>
<path d="M184.408 14.4942V17.6684L165.155 18.284V17.2534C165.155 16.7617 165.512 16.3428 165.998 16.2651L183.249 13.5058C183.857 13.4086 184.408 13.8783 184.408 14.4942Z" fill="black" fill-opacity="0.2"/>
<path d="M183.288 13.7525C183.744 13.6795 184.157 14.0325 184.157 14.4944V17.4248L165.405 18.0249V17.2537C165.405 16.8849 165.674 16.5701 166.038 16.5118L183.288 13.7525Z" stroke="black" stroke-opacity="0.1" stroke-width="0.5"/>
<path d="M163.839 15.3868C163.839 16.1081 164.424 16.6928 165.145 16.6928H185.86C186.412 16.6928 186.861 17.1409 186.861 17.6937V32.2643C186.861 32.8171 186.412 33.2652 185.86 33.2652H164.84C164.288 33.2652 163.839 32.8171 163.839 32.2643V15.3868Z" fill="#00DE5A"/>
<path d="M164.09 16.5275C164.367 16.7845 164.737 16.9429 165.145 16.9429H185.86C186.274 16.9429 186.61 17.279 186.61 17.6936V32.2645C186.61 32.679 186.274 33.0152 185.86 33.0152H164.84C164.426 33.0152 164.09 32.679 164.09 32.2645V16.5275Z" stroke="black" stroke-opacity="0.1" stroke-width="0.5"/>
<rect x="182.356" y="23.1302" width="4.85453" height="3.32628" rx="1" fill="#00B248"/>
<rect x="182.606" y="23.3802" width="4.35453" height="2.82628" rx="0.75" stroke="black" stroke-opacity="0.1" stroke-width="0.5"/>
<path fill-rule="evenodd" clip-rule="evenodd" d="M268.944 5.68958C267.425 4.1709 265.515 3.04536 263.402 2.49955C262.113 1.95475 258.296 1.19366 251.42 1.19366C244.544 1.19366 240.727 1.95475 239.437 2.49955C237.324 3.04536 235.414 4.1709 233.895 5.68958C232.378 7.20826 231.251 9.11808 230.706 11.2315C230.16 12.5216 229.399 16.3865 229.399 23.2133C229.399 30.04 230.16 33.9069 230.706 35.1961C231.251 37.3094 232.378 39.2193 233.895 40.7379C235.414 42.2556 237.324 43.3821 239.437 43.928C240.727 44.4738 244.463 45.2339 251.42 45.2339C258.377 45.2339 262.113 44.4738 263.402 43.928C265.515 43.3821 267.425 42.2556 268.944 40.7379C270.462 39.2193 271.588 37.3094 272.134 35.1961C272.679 33.9069 273.44 30.0267 273.44 23.2133C273.44 16.3998 272.679 12.5216 272.134 11.2315C271.588 9.11808 270.462 7.20826 268.944 5.68958Z" fill="white"/>
<path d="M251.42 0.621844C254.878 0.621862 257.577 0.81326 259.58 1.07538C261.525 1.32983 262.845 1.65611 263.573 1.95314C265.779 2.52834 267.767 3.70446 269.348 5.28528C270.928 6.8649 272.102 8.85179 272.678 11.0552C272.977 11.7839 273.304 13.122 273.559 15.0774C273.821 17.0882 274.011 19.786 274.011 23.2128C274.011 26.6399 273.821 29.3388 273.559 31.3501C273.304 33.3049 272.976 34.6428 272.678 35.3713C272.102 37.5751 270.928 39.5624 269.348 41.1422C267.768 42.7206 265.782 43.8967 263.578 44.4724C262.14 45.0626 258.315 45.8056 251.42 45.8057C244.525 45.8057 240.699 45.0625 239.261 44.4724C237.196 43.9328 235.32 42.8667 233.793 41.4355L233.491 41.1422C231.912 39.5626 230.735 37.5754 230.161 35.3713C229.863 34.643 229.536 33.3081 229.281 31.355C229.019 29.3453 228.828 26.6464 228.828 23.2128C228.828 19.7794 229.019 17.0817 229.281 15.0725C229.536 13.1188 229.862 11.7836 230.161 11.0552C230.736 8.85147 231.913 6.86472 233.491 5.28528L233.793 4.99204C235.322 3.559 237.198 2.49232 239.265 1.95314C239.993 1.65605 241.314 1.32996 243.26 1.07538C245.263 0.813248 247.962 0.621844 251.42 0.621844Z" stroke="black" stroke-opacity="0.07" stroke-width="1.14286"/>
<path fill-rule="evenodd" clip-rule="evenodd" d="M242.759 14.3839C242.056 14.6717 241.592 15.3953 241.592 16.2038V21.6239C241.592 28.8185 244.731 31.996 249.608 34.7441C250.742 35.3849 252.097 35.3849 253.232 34.7441C258.107 31.996 261.247 28.8185 261.247 21.6239V16.2038C261.247 15.3953 260.784 14.6722 260.082 14.3844C258.366 13.6815 255.145 12.363 253.152 11.545C252.594 11.317 252.007 11.2028 251.42 11.2028C250.832 11.2028 250.245 11.3175 249.687 11.5459L242.759 14.3839Z" fill="#00DE5A"/>
<path d="M251.42 11.4638C251.904 11.4638 252.388 11.5463 252.855 11.7111L253.053 11.7863C255.047 12.6044 258.267 13.923 259.983 14.6258C260.579 14.8701 260.986 15.4918 260.986 16.2034V21.6244C260.986 25.1814 260.21 27.7197 258.852 29.7041C257.491 31.693 255.528 33.1509 253.104 34.517C252.049 35.1129 250.791 35.1129 249.736 34.517C247.311 33.151 245.348 31.6929 243.987 29.7041C242.629 27.7197 241.853 25.1814 241.853 21.6244V16.2034C241.853 15.4923 242.261 14.8703 242.857 14.6258L249.785 11.7873C250.313 11.5716 250.866 11.4638 251.42 11.4638Z" stroke="black" stroke-opacity="0.1" stroke-width="0.521739"/>
<path d="M247.605 22.3426L250.441 25.3125C250.482 25.3553 250.551 25.3535 250.59 25.3086L255.234 19.8972" stroke="black" stroke-width="2" stroke-linecap="square"/>
<path fill-rule="evenodd" clip-rule="evenodd" d="M345.013 5.68958C343.494 4.1709 341.585 3.04536 339.471 2.49955C338.182 1.95475 334.365 1.19366 327.489 1.19366C320.614 1.19366 316.797 1.95475 315.507 2.49955C313.393 3.04536 311.483 4.1709 309.965 5.68958C308.447 7.20826 307.32 9.11808 306.776 11.2315C306.23 12.5216 305.469 16.3865 305.469 23.2133C305.469 30.04 306.23 33.9069 306.776 35.1961C307.32 37.3094 308.447 39.2193 309.965 40.7379C311.483 42.2556 313.393 43.3821 315.507 43.928C316.797 44.4738 320.532 45.2339 327.489 45.2339C334.447 45.2339 338.182 44.4738 339.471 43.928C341.585 43.3821 343.494 42.2556 345.013 40.7379C346.532 39.2193 347.657 37.3094 348.203 35.1961C348.749 33.9069 349.509 30.0267 349.509 23.2133C349.509 16.3998 348.749 12.5216 348.203 11.2315C347.657 9.11808 346.532 7.20826 345.013 5.68958Z" fill="white"/>
<path d="M327.49 0.621844C330.948 0.621862 333.646 0.81326 335.65 1.07538C337.594 1.32983 338.915 1.65611 339.643 1.95314C341.848 2.52834 343.837 3.70446 345.417 5.28528C346.997 6.8649 348.172 8.85179 348.748 11.0552C349.046 11.7839 349.373 13.122 349.628 15.0774C349.89 17.0882 350.081 19.786 350.081 23.2128C350.081 26.6399 349.89 29.3388 349.628 31.3501C349.374 33.3049 349.046 34.6428 348.748 35.3713C348.172 37.5751 346.997 39.5624 345.417 41.1422C343.838 42.7206 341.851 43.8967 339.647 44.4724C338.21 45.0626 334.385 45.8056 327.49 45.8057C320.594 45.8057 316.769 45.0625 315.33 44.4724C313.265 43.9328 311.39 42.8667 309.862 41.4355L309.56 41.1422C307.982 39.5626 306.805 37.5754 306.23 35.3713C305.932 34.643 305.605 33.3081 305.35 31.355C305.088 29.3453 304.897 26.6464 304.897 23.2128C304.897 19.7794 305.088 17.0817 305.35 15.0725C305.605 13.1188 305.932 11.7836 306.23 11.0552C306.805 8.85147 307.982 6.86472 309.56 5.28528L309.862 4.99204C311.391 3.559 313.268 2.49232 315.334 1.95314C316.062 1.65605 317.383 1.32996 319.329 1.07538C321.333 0.813248 324.032 0.621844 327.49 0.621844Z" stroke="black" stroke-opacity="0.07" stroke-width="1.14286"/>
<path fill-rule="evenodd" clip-rule="evenodd" d="M338.242 12.4603C337.31 11.5284 336.138 10.8377 334.842 10.5028C334.051 10.1685 331.708 9.70142 327.489 9.70142C323.27 9.70142 320.928 10.1685 320.136 10.5028C318.839 10.8377 317.667 11.5284 316.735 12.4603C315.804 13.3922 315.113 14.5641 314.778 15.861C314.444 16.6527 313.977 19.0243 313.977 23.2134C313.977 27.4026 314.444 29.7754 314.778 30.5665C315.113 31.8634 315.804 33.0353 316.735 33.9672C317.667 34.8985 318.839 35.5898 320.136 35.9247C320.928 36.2597 323.22 36.7261 327.489 36.7261C331.758 36.7261 334.051 36.2597 334.842 35.9247C336.138 35.5898 337.31 34.8985 338.242 33.9672C339.174 33.0353 339.865 31.8634 340.2 30.5665C340.535 29.7754 341.001 27.3944 341.001 23.2134C341.001 19.0325 340.535 16.6527 340.2 15.861C339.865 14.5641 339.174 13.3922 338.242 12.4603Z" fill="black"/>
<path d="M327.489 12.5222C333.393 12.5222 338.18 17.3089 338.18 23.2136C338.18 29.1184 333.393 33.905 327.489 33.905C321.584 33.9049 316.797 29.1183 316.797 23.2136C316.797 17.3089 321.584 12.5223 327.489 12.5222Z" fill="#00DE5A"/>
<path d="M327.489 12.5222C333.393 12.5222 338.18 17.3089 338.18 23.2136C338.18 29.1184 333.393 33.905 327.489 33.905C321.584 33.9049 316.797 29.1183 316.797 23.2136C316.797 17.3089 321.584 12.5223 327.489 12.5222Z" stroke="#00DE5A" stroke-width="0.5"/>
<path d="M327.489 12.5222C333.393 12.5222 338.18 17.3089 338.18 23.2136C338.18 29.1184 333.393 33.905 327.489 33.905C321.584 33.9049 316.797 29.1183 316.797 23.2136C316.797 17.3089 321.584 12.5223 327.489 12.5222Z" stroke="black" stroke-opacity="0.1" stroke-width="0.5"/>
<path d="M334.778 20.7215L333.457 23.7124L331.975 20.7215H330.83L332.932 24.8711L332.07 26.8112H333.174L335.882 20.7215H334.778ZM330.197 25.3427H329.106V24.9115C328.715 25.2483 328.243 25.437 327.677 25.437C326.371 25.437 325.36 24.3726 325.36 23.0253C325.36 21.6781 326.371 20.6137 327.677 20.6137C328.243 20.6137 328.715 20.8023 329.106 21.1392V20.708H330.197V25.3427ZM329.24 23.0253C329.24 22.1496 328.634 21.4895 327.826 21.4895C327.017 21.4895 326.411 22.1496 326.411 23.0253C326.411 23.9011 327.017 24.5612 327.826 24.5612C328.634 24.5612 329.24 23.9011 329.24 23.0253ZM319.971 26.8112H321.103V24.9519C321.48 25.2618 321.938 25.437 322.49 25.437C323.797 25.437 324.808 24.3726 324.808 23.0253C324.808 21.6781 323.797 20.6137 322.49 20.6137C321.925 20.6137 321.453 20.8023 321.062 21.1392V20.708H319.971V26.8112ZM322.342 21.4895C323.151 21.4895 323.757 22.1496 323.757 23.0253C323.757 23.9011 323.151 24.5612 322.342 24.5612C321.534 24.5612 320.928 23.9011 320.928 23.0253C320.928 22.1631 321.534 21.4895 322.342 21.4895Z" fill="black"/>
<path fill-rule="evenodd" clip-rule="evenodd" d="M421.082 5.68958C419.564 4.1709 417.654 3.04536 415.541 2.49955C414.251 1.95475 410.435 1.19366 403.559 1.19366C396.683 1.19366 392.866 1.95475 391.576 2.49955C389.463 3.04536 387.553 4.1709 386.034 5.68958C384.516 7.20826 383.39 9.11808 382.845 11.2315C382.299 12.5216 381.538 16.3865 381.538 23.2133C381.538 30.04 382.299 33.9069 382.845 35.1961C383.39 37.3094 384.516 39.2193 386.034 40.7379C387.553 42.2556 389.463 43.3821 391.576 43.928C392.866 44.4738 396.602 45.2339 403.559 45.2339C410.516 45.2339 414.251 44.4738 415.541 43.928C417.654 43.3821 419.564 42.2556 421.082 40.7379C422.601 39.2193 423.727 37.3094 424.272 35.1961C424.818 33.9069 425.578 30.0267 425.578 23.2133C425.578 16.3998 424.818 12.5216 424.272 11.2315C423.727 9.11808 422.601 7.20826 421.082 5.68958Z" fill="white"/>
<path d="M403.559 0.621844C407.017 0.621862 409.716 0.81326 411.719 1.07538C413.664 1.32983 414.984 1.6561 415.712 1.95314C417.917 2.52835 419.906 3.70446 421.487 5.28528C423.066 6.8649 424.241 8.85179 424.817 11.0552C425.115 11.7839 425.443 13.122 425.698 15.0774C425.96 17.0882 426.15 19.786 426.15 23.2128C426.15 26.6399 425.96 29.3388 425.698 31.3501C425.443 33.3049 425.115 34.6428 424.817 35.3713C424.241 37.5751 423.067 39.5624 421.487 41.1422C419.907 42.7206 417.92 43.8967 415.717 44.4724C414.279 45.0626 410.454 45.8056 403.559 45.8057C396.664 45.8057 392.838 45.0625 391.4 44.4724C389.335 43.9328 387.459 42.8667 385.932 41.4355L385.63 41.1422C384.051 39.5626 382.874 37.5754 382.3 35.3713C382.001 34.643 381.675 33.3081 381.42 31.355C381.158 29.3453 380.966 26.6464 380.966 23.2128C380.966 19.7794 381.158 17.0817 381.42 15.0725C381.675 13.1188 382.001 11.7836 382.3 11.0552C382.874 8.85147 384.051 6.86472 385.63 5.28528L385.932 4.99204C387.461 3.559 389.337 2.49232 391.404 1.95314C392.132 1.65605 393.453 1.32996 395.399 1.07538C397.402 0.813248 400.101 0.621844 403.559 0.621844Z" stroke="black" stroke-opacity="0.07" stroke-width="1.14286"/>
<path d="M403.558 35.2247C410.192 35.2247 415.569 29.8472 415.569 23.2138C415.569 16.5803 410.192 11.2028 403.558 11.2028C396.925 11.2028 391.547 16.5803 391.547 23.2138C391.547 29.8472 396.925 35.2247 403.558 35.2247Z" fill="#004998"/>
<path d="M403.558 11.453C410.054 11.453 415.319 16.7185 415.319 23.2138C415.319 29.709 410.054 34.9745 403.558 34.9745C397.063 34.9745 391.798 29.709 391.798 23.2138C391.798 16.7185 397.063 11.453 403.558 11.453Z" stroke="black" stroke-opacity="0.1" stroke-width="0.5" stroke-linecap="round" stroke-linejoin="round"/>
<path d="M397.857 26.6541L397.801 26.6918C398.939 28.7969 401.097 30.2202 403.56 30.2202C407.221 30.2202 410.188 27.0814 410.188 23.2138C410.188 22.1487 409.749 21.2532 409.225 20.5714C408.532 19.6666 407.547 19.233 406.562 19.2267C405.749 19.2204 404.912 19.4938 404.319 20.0279C403.645 20.6406 403.494 21.4292 403.318 22.7079C403.127 24.1092 402.001 25.0769 400.552 25.0769C398.676 25.0769 397.515 23.9207 397.593 22.1518C397.6 22.0293 397.612 21.9067 397.631 21.7873C397.986 19.698 400.225 17.5458 403.598 17.5521C405.859 17.5521 407.559 18.0611 409.26 19.7734L409.316 19.7357C408.177 17.6306 406.022 16.2074 403.557 16.2074C399.899 16.2074 396.928 19.3461 396.928 23.2138C396.928 24.2789 397.368 25.1743 397.892 25.8561C398.582 26.7609 399.57 27.1914 400.555 27.2008C401.367 27.2102 402.205 26.9337 402.798 26.3996C403.472 25.787 403.623 24.9983 403.798 23.7196C403.99 22.3183 405.119 21.3506 406.565 21.3506C408.444 21.3506 409.605 22.5068 409.526 24.2757C409.52 24.3982 409.508 24.5208 409.489 24.6402C409.128 26.7295 406.898 28.8817 403.519 28.8754C401.257 28.8754 399.557 28.3664 397.857 26.6541Z" fill="white"/>
<path fill-rule="evenodd" clip-rule="evenodd" d="M497.152 5.68958C495.633 4.1709 493.723 3.04536 491.61 2.49955C490.321 1.95475 486.504 1.19366 479.628 1.19366C472.752 1.19366 468.936 1.95475 467.645 2.49955C465.532 3.04536 463.622 4.1709 462.104 5.68958C460.586 7.20826 459.459 9.11808 458.915 11.2315C458.369 12.5216 457.608 16.3865 457.608 23.2133C457.608 30.04 458.369 33.9069 458.915 35.1961C459.459 37.3094 460.586 39.2193 462.104 40.7379C463.622 42.2556 465.532 43.3821 467.645 43.928C468.936 44.4738 472.671 45.2339 479.628 45.2339C486.585 45.2339 490.321 44.4738 491.61 43.928C493.723 43.3821 495.633 42.2556 497.152 40.7379C498.671 39.2193 499.796 37.3094 500.342 35.1961C500.888 33.9069 501.648 30.0267 501.648 23.2133C501.648 16.3998 500.888 12.5216 500.342 11.2315C499.796 9.11808 498.671 7.20826 497.152 5.68958Z" fill="white"/>
<path d="M479.629 0.596431C483.087 0.596448 485.787 0.788661 487.791 1.05095C489.739 1.30574 491.063 1.63213 491.793 1.93066C494.001 2.50755 495.991 3.68519 497.574 5.26769C499.155 6.8492 500.332 8.83839 500.909 11.0444C501.209 11.7759 501.537 13.1173 501.792 15.0745C502.054 17.0865 502.245 19.7852 502.245 23.2128C502.245 26.6406 502.054 29.3406 501.792 31.353C501.537 33.3088 501.209 34.6496 500.909 35.3811C500.368 37.4493 499.301 39.3269 497.867 40.8568L497.574 41.1598C495.992 42.7403 494.003 43.9177 491.796 44.4949C490.354 45.0871 486.525 45.831 479.629 45.8311C472.73 45.8311 468.901 45.0871 467.458 44.4949C465.391 43.9538 463.514 42.886 461.985 41.4531L461.682 41.1598C460.101 39.5781 458.923 37.5882 458.347 35.3811C458.047 34.6499 457.72 33.3128 457.465 31.3589C457.203 29.3479 457.01 26.6474 457.01 23.2128C457.01 19.7783 457.203 17.0791 457.465 15.0686C457.72 13.114 458.047 11.7767 458.347 11.0454C458.923 8.83868 460.101 6.84922 461.682 5.26769L461.985 4.97445C463.515 3.53972 465.393 2.47132 467.462 1.93066C468.193 1.63217 469.517 1.30576 471.465 1.05095C473.47 0.788657 476.17 0.596431 479.629 0.596431Z" stroke="black" stroke-opacity="0.07" stroke-width="1.19255"/>
<mask id="path-39-inside-2_5_17130" fill="white">
<path d="M490.05 14.6122C491.204 14.6122 492.139 15.5474 492.139 16.701V20.3469C490.545 20.3469 489.252 21.6303 489.252 23.2138C489.252 24.6983 490.388 25.9192 491.844 26.066L492.139 26.0806V29.7265C492.139 30.8801 491.204 31.8153 490.05 31.8154H469.205C468.052 31.8153 467.116 30.8801 467.116 29.7265V26.0806C468.711 26.0806 470.004 24.7973 470.004 23.2138C470.004 21.7292 468.867 20.5084 467.412 20.3615L467.116 20.3469V16.701C467.116 15.5474 468.052 14.6122 469.205 14.6122H490.05Z"/>
</mask>
<path d="M490.05 14.6122C491.204 14.6122 492.139 15.5474 492.139 16.701V20.3469C490.545 20.3469 489.252 21.6303 489.252 23.2138C489.252 24.6983 490.388 25.9192 491.844 26.066L492.139 26.0806V29.7265C492.139 30.8801 491.204 31.8153 490.05 31.8154H469.205C468.052 31.8153 467.116 30.8801 467.116 29.7265V26.0806C468.711 26.0806 470.004 24.7973 470.004 23.2138C470.004 21.7292 468.867 20.5084 467.412 20.3615L467.116 20.3469V16.701C467.116 15.5474 468.052 14.6122 469.205 14.6122H490.05Z" fill="#00DE5A"/>
<path d="M490.05 14.6122L490.05 14.0899H490.05V14.6122ZM492.139 16.701H492.661V16.701L492.139 16.701ZM492.139 20.3469V20.8691H492.661V20.3469H492.139ZM489.252 23.2138L488.73 23.2138V23.2138H489.252ZM491.844 26.066L491.792 26.5855L491.805 26.5869L491.818 26.5875L491.844 26.066ZM492.139 26.0806H492.661V25.5837L492.165 25.5591L492.139 26.0806ZM492.139 29.7265L492.661 29.7265V29.7265H492.139ZM490.05 31.8154V32.3376H490.05L490.05 31.8154ZM469.205 31.8154L469.205 32.3376H469.205V31.8154ZM467.116 29.7265H466.594V29.7265L467.116 29.7265ZM467.116 26.0806V25.5584H466.594V26.0806H467.116ZM470.004 23.2138H470.526L470.526 23.2138L470.004 23.2138ZM467.412 20.3615L467.464 19.842L467.451 19.8406L467.437 19.84L467.412 20.3615ZM467.116 20.3469H466.594V20.8438L467.09 20.8685L467.116 20.3469ZM467.116 16.701L466.594 16.701V16.701H467.116ZM469.205 14.6122V14.0899H469.205L469.205 14.6122ZM490.05 14.6122L490.05 15.1344C490.916 15.1344 491.617 15.8358 491.617 16.701L492.139 16.701L492.661 16.701C492.661 15.2589 491.492 14.09 490.05 14.0899L490.05 14.6122ZM492.139 16.701H491.617V20.3469H492.139H492.661V16.701H492.139ZM492.139 20.3469V19.8247C490.26 19.8247 488.73 21.3383 488.73 23.2138L489.252 23.2138L489.774 23.2138C489.774 21.9222 490.829 20.8691 492.139 20.8691V20.3469ZM489.252 23.2138H488.73C488.73 24.9722 490.075 26.4124 491.792 26.5855L491.844 26.066L491.896 25.5464C490.701 25.4259 489.774 24.4245 489.774 23.2138H489.252ZM491.844 26.066L491.818 26.5875L492.113 26.6022L492.139 26.0806L492.165 25.5591L491.87 25.5444L491.844 26.066ZM492.139 26.0806H491.617V29.7265H492.139H492.661V26.0806H492.139ZM492.139 29.7265L491.617 29.7265C491.617 30.5917 490.916 31.2931 490.05 31.2931L490.05 31.8154L490.05 32.3376C491.492 32.3375 492.661 31.1686 492.661 29.7265L492.139 29.7265ZM490.05 31.8154V31.2931H469.205V31.8154V32.3376H490.05V31.8154ZM469.205 31.8154L469.205 31.2931C468.34 31.2931 467.639 30.5917 467.639 29.7265L467.116 29.7265L466.594 29.7265C466.594 31.1686 467.763 32.3375 469.205 32.3376L469.205 31.8154ZM467.116 29.7265H467.639V26.0806H467.116H466.594V29.7265H467.116ZM467.116 26.0806V26.6028C468.996 26.6028 470.526 25.0892 470.526 23.2138H470.004H469.481C469.481 24.5053 468.426 25.5584 467.116 25.5584V26.0806ZM470.004 23.2138L470.526 23.2138C470.526 21.4554 469.181 20.0151 467.464 19.842L467.412 20.3615L467.359 20.8811C468.554 21.0016 469.481 22.0031 469.481 23.2138L470.004 23.2138ZM467.412 20.3615L467.437 19.84L467.142 19.8253L467.116 20.3469L467.09 20.8685L467.386 20.8831L467.412 20.3615ZM467.116 20.3469H467.639V16.701H467.116H466.594V20.3469H467.116ZM467.116 16.701L467.639 16.701C467.639 15.8358 468.34 15.1344 469.205 15.1344L469.205 14.6122L469.205 14.0899C467.763 14.09 466.594 15.2589 466.594 16.701L467.116 16.701ZM469.205 14.6122V15.1344H490.05V14.6122V14.0899H469.205V14.6122Z" fill="black" fill-opacity="0.07" mask="url(#path-39-inside-2_5_17130)"/>
<path fill-rule="evenodd" clip-rule="evenodd" d="M482.217 24.4072C482.875 24.4075 483.408 24.9426 483.408 25.6027C483.408 26.2626 482.875 26.7978 482.217 26.7981C481.56 26.7981 481.026 26.2627 481.026 25.6027C481.026 24.9424 481.56 24.4072 482.217 24.4072ZM483.057 20.8239L477.197 26.7042L476.099 25.6017L481.958 19.7213L483.057 20.8239ZM477.039 19.6294C477.697 19.6296 478.229 20.1649 478.229 20.8249C478.229 21.485 477.697 22.0201 477.039 22.0203C476.381 22.0203 475.847 21.4851 475.847 20.8249C475.848 20.1648 476.381 19.6294 477.039 19.6294Z" fill="black"/>
<path fill-rule="evenodd" clip-rule="evenodd" d="M573.221 5.68958C571.703 4.1709 569.793 3.04536 567.679 2.49955C566.39 1.95475 562.573 1.19366 555.698 1.19366C548.822 1.19366 545.005 1.95475 543.715 2.49955C541.601 3.04536 539.692 4.1709 538.173 5.68958C536.655 7.20826 535.529 9.11808 534.984 11.2315C534.438 12.5216 533.677 16.3865 533.677 23.2133C533.677 30.04 534.438 33.9069 534.984 35.196C535.529 37.3094 536.655 39.2193 538.173 40.7379C539.692 42.2556 541.601 43.3821 543.715 43.9279C545.005 44.4738 548.74 45.2339 555.698 45.2339C562.655 45.2339 566.39 44.4738 567.679 43.9279C569.793 43.3821 571.703 42.2556 573.221 40.7379C574.74 39.2193 575.866 37.3094 576.411 35.196C576.957 33.9069 577.717 30.0267 577.717 23.2133C577.717 16.3998 576.957 12.5216 576.411 11.2315C575.866 9.11808 574.74 7.20826 573.221 5.68958Z" fill="white"/>
<path d="M555.698 0.596431C559.157 0.596448 561.856 0.788661 563.861 1.05095C565.808 1.30574 567.132 1.63213 567.863 1.93066C570.07 2.50755 572.061 3.68519 573.643 5.26769C575.225 6.8492 576.401 8.83839 576.978 11.0444C577.278 11.7759 577.606 13.1173 577.861 15.0745C578.123 17.0865 578.314 19.7852 578.314 23.2128C578.314 26.6406 578.123 29.3406 577.861 31.353C577.606 33.3088 577.278 34.6496 576.978 35.3811C576.437 37.4492 575.371 39.3269 573.936 40.8568L573.643 41.1598C572.062 42.7403 570.072 43.9177 567.865 44.4949C566.423 45.0871 562.594 45.831 555.698 45.8311C548.8 45.8311 544.97 45.0871 543.528 44.4949C541.46 43.9538 539.583 42.886 538.054 41.4531L537.751 41.1598C536.17 39.5781 534.992 37.5882 534.416 35.3811C534.116 34.6499 533.789 33.3128 533.534 31.3589C533.272 29.3479 533.08 26.6474 533.08 23.2128C533.08 19.7783 533.272 17.0791 533.534 15.0686C533.789 13.114 534.116 11.7767 534.416 11.0454C534.992 8.83868 536.171 6.84922 537.751 5.26769L538.054 4.97445C539.585 3.53972 541.463 2.47132 543.532 1.93066C544.262 1.63217 545.587 1.30576 547.534 1.05095C549.539 0.788657 552.239 0.596431 555.698 0.596431Z" stroke="black" stroke-opacity="0.07" stroke-width="1.19255"/>
<path d="M552.752 8.82489C553.226 8.29707 554.005 8.22327 554.491 8.66005L566.319 19.294C566.805 19.7308 566.814 20.5128 566.34 21.0406L561.045 26.9302C560.571 27.458 559.792 27.5318 559.306 27.0951L547.478 16.4611C546.992 16.0243 546.982 15.2423 547.457 14.7145L552.752 8.82489Z" fill="#02D1FF"/>
<path d="M552.752 8.82489C553.226 8.29707 554.005 8.22327 554.491 8.66005L566.319 19.294C566.805 19.7308 566.814 20.5128 566.34 21.0406L561.045 26.9302C560.571 27.458 559.792 27.5318 559.306 27.0951L547.478 16.4611C546.992 16.0243 546.982 15.2423 547.457 14.7145L552.752 8.82489Z" fill="#00DE5A"/>
<path d="M552.752 8.82489C553.226 8.29707 554.005 8.22327 554.491 8.66005L566.319 19.294C566.805 19.7308 566.814 20.5128 566.34 21.0406L561.045 26.9302C560.571 27.458 559.792 27.5318 559.306 27.0951L547.478 16.4611C546.992 16.0243 546.982 15.2423 547.457 14.7145L552.752 8.82489Z" fill="black" fill-opacity="0.4"/>
<path d="M554.323 8.84597L566.152 19.48C566.521 19.8116 566.549 20.4333 566.153 20.8732L560.859 26.7625C560.463 27.2024 559.842 27.2405 559.473 26.9089L547.645 16.2749C547.276 15.9433 547.248 15.3215 547.643 14.8817L552.938 8.99235C553.333 8.55256 553.954 8.51453 554.323 8.84597Z" stroke="black" stroke-opacity="0.1" stroke-width="0.5"/>
<path d="M547.194 11.5119C547.477 10.8613 548.191 10.545 548.788 10.8054L565.323 18.0157C565.92 18.2761 566.174 19.0146 565.89 19.6652L562.232 28.0538C561.948 28.7044 561.234 29.0207 560.637 28.7603L544.103 21.5501C543.506 21.2897 543.252 20.5511 543.535 19.9006L547.194 11.5119Z" fill="#FFDB5A"/>
<path d="M547.194 11.5119C547.477 10.8613 548.191 10.545 548.788 10.8054L565.323 18.0157C565.92 18.2761 566.174 19.0146 565.89 19.6652L562.232 28.0538C561.948 28.7044 561.234 29.0207 560.637 28.7603L544.103 21.5501C543.506 21.2897 543.252 20.5511 543.535 19.9006L547.194 11.5119Z" fill="#00DE5A"/>
<path d="M547.194 11.5119C547.477 10.8613 548.191 10.545 548.788 10.8054L565.323 18.0157C565.92 18.2761 566.174 19.0146 565.89 19.6652L562.232 28.0538C561.948 28.7044 561.234 29.0207 560.637 28.7603L544.103 21.5501C543.506 21.2897 543.252 20.5511 543.535 19.9006L547.194 11.5119Z" fill="black" fill-opacity="0.2"/>
<path d="M548.689 11.0349L565.223 18.2452C565.675 18.4425 565.897 19.0225 565.66 19.5652L562.002 27.9532C561.766 28.4959 561.19 28.7279 560.737 28.5309L544.203 21.3206C543.751 21.1233 543.528 20.543 543.765 20.0002L547.423 11.6121C547.659 11.0693 548.236 10.8376 548.689 11.0349Z" stroke="black" stroke-opacity="0.1" stroke-width="0.5"/>
<mask id="path-48-inside-3_5_17130" fill="white">
<path d="M566.284 16.286C567.437 16.2861 568.373 17.2213 568.373 18.3749V22.0208C566.778 22.0208 565.485 23.3041 565.485 24.8876C565.485 26.3722 566.621 27.5931 568.077 27.7399L568.373 27.7545V31.4004C568.373 32.554 567.437 33.4892 566.284 33.4892H545.439C544.285 33.4892 543.35 32.554 543.35 31.4004V27.7545C544.944 27.7545 546.237 26.4712 546.237 24.8876C546.237 23.4031 545.101 22.1823 543.645 22.0354L543.35 22.0208V18.3749C543.35 17.2213 544.285 16.2861 545.439 16.286H566.284Z"/>
</mask>
<path d="M566.284 16.286C567.437 16.2861 568.373 17.2213 568.373 18.3749V22.0208C566.778 22.0208 565.485 23.3041 565.485 24.8876C565.485 26.3722 566.621 27.5931 568.077 27.7399L568.373 27.7545V31.4004C568.373 32.554 567.437 33.4892 566.284 33.4892H545.439C544.285 33.4892 543.35 32.554 543.35 31.4004V27.7545C544.944 27.7545 546.237 26.4712 546.237 24.8876C546.237 23.4031 545.101 22.1823 543.645 22.0354L543.35 22.0208V18.3749C543.35 17.2213 544.285 16.2861 545.439 16.286H566.284Z" fill="#00DE5A"/>
<path d="M566.284 16.286L566.284 15.7638H566.284V16.286ZM568.373 18.3749H568.895V18.3749L568.373 18.3749ZM568.373 22.0208V22.543H568.895V22.0208H568.373ZM565.485 24.8876L564.963 24.8876V24.8876H565.485ZM568.077 27.7399L568.025 28.2594L568.038 28.2608L568.051 28.2614L568.077 27.7399ZM568.373 27.7545H568.895V27.2576L568.398 27.2329L568.373 27.7545ZM568.373 31.4004L568.895 31.4004V31.4004H568.373ZM566.284 33.4892V34.0115H566.284L566.284 33.4892ZM545.439 33.4892L545.439 34.0115H545.439V33.4892ZM543.35 31.4004H542.827V31.4004L543.35 31.4004ZM543.35 27.7545V27.2323H542.827V27.7545H543.35ZM546.237 24.8876H546.759L546.759 24.8876L546.237 24.8876ZM543.645 22.0354L543.697 21.5159L543.684 21.5145L543.671 21.5139L543.645 22.0354ZM543.35 22.0208H542.827V22.5177L543.324 22.5423L543.35 22.0208ZM543.35 18.3749L542.827 18.3749V18.3749H543.35ZM545.439 16.286V15.7638H545.439L545.439 16.286ZM566.284 16.286L566.284 16.8083C567.149 16.8083 567.85 17.5097 567.85 18.3749L568.373 18.3749L568.895 18.3749C568.895 16.9328 567.726 15.7639 566.284 15.7638L566.284 16.286ZM568.373 18.3749H567.85V22.0208H568.373H568.895V18.3749H568.373ZM568.373 22.0208V21.4986C566.493 21.4986 564.963 23.0122 564.963 24.8876L565.485 24.8876L566.007 24.8876C566.007 23.5961 567.063 22.543 568.373 22.543V22.0208ZM565.485 24.8876H564.963C564.963 26.646 566.308 28.0863 568.025 28.2594L568.077 27.7399L568.13 27.2203C566.935 27.0998 566.007 26.0984 566.007 24.8876H565.485ZM568.077 27.7399L568.051 28.2614L568.347 28.2761L568.373 27.7545L568.398 27.2329L568.103 27.2183L568.077 27.7399ZM568.373 27.7545H567.85V31.4004H568.373H568.895V27.7545H568.373ZM568.373 31.4004L567.85 31.4004C567.85 32.2656 567.149 32.967 566.284 32.967L566.284 33.4892L566.284 34.0115C567.726 34.0114 568.895 32.8425 568.895 31.4004L568.373 31.4004ZM566.284 33.4892V32.967H545.439V33.4892V34.0115H566.284V33.4892ZM545.439 33.4892L545.439 32.967C544.573 32.967 543.872 32.2656 543.872 31.4004L543.35 31.4004L542.827 31.4004C542.828 32.8425 543.997 34.0114 545.439 34.0115L545.439 33.4892ZM543.35 31.4004H543.872V27.7545H543.35H542.827V31.4004H543.35ZM543.35 27.7545V28.2767C545.229 28.2767 546.759 26.7631 546.759 24.8876H546.237H545.715C545.715 26.1792 544.659 27.2323 543.35 27.2323V27.7545ZM546.237 24.8876L546.759 24.8876C546.759 23.1293 545.414 21.689 543.697 21.5159L543.645 22.0354L543.593 22.555C544.787 22.6755 545.715 23.677 545.715 24.8876L546.237 24.8876ZM543.645 22.0354L543.671 21.5139L543.376 21.4992L543.35 22.0208L543.324 22.5423L543.619 22.557L543.645 22.0354ZM543.35 22.0208H543.872V18.3749H543.35H542.827V22.0208H543.35ZM543.35 18.3749L543.872 18.3749C543.872 17.5097 544.573 16.8083 545.439 16.8083L545.439 16.286L545.439 15.7638C543.997 15.7639 542.828 16.9328 542.827 18.3749L543.35 18.3749ZM545.439 16.286V16.8083H566.284V16.286V15.7638H545.439V16.286Z" fill="black" fill-opacity="0.07" mask="url(#path-48-inside-3_5_17130)"/>
<path fill-rule="evenodd" clip-rule="evenodd" d="M558.451 26.0811C559.109 26.0814 559.641 26.6165 559.641 27.2765C559.641 27.9365 559.108 28.4717 558.451 28.472C557.793 28.472 557.26 27.9366 557.259 27.2765C557.259 26.6163 557.793 26.0811 558.451 26.0811ZM559.291 22.4978L553.431 28.3781L552.332 27.2756L558.192 21.3952L559.291 22.4978ZM553.272 21.3033C553.93 21.3035 554.463 21.8388 554.463 22.4987C554.463 23.1589 553.93 23.694 553.272 23.6942C552.614 23.6942 552.081 23.159 552.081 22.4987C552.081 21.8387 552.615 21.3033 553.272 21.3033Z" fill="black"/>
<path fill-rule="evenodd" clip-rule="evenodd" d="M649.291 5.68958C647.772 4.1709 645.862 3.04536 643.749 2.49955C642.46 1.95475 638.643 1.19366 631.767 1.19366C624.891 1.19366 621.074 1.95475 619.784 2.49955C617.671 3.04536 615.761 4.1709 614.242 5.68958C612.725 7.20826 611.598 9.11808 611.053 11.2315C610.508 12.5216 609.747 16.3865 609.747 23.2133C609.747 30.04 610.508 33.9069 611.053 35.196C611.598 37.3094 612.725 39.2193 614.242 40.7379C615.761 42.2556 617.671 43.3821 619.784 43.9279C621.074 44.4738 624.81 45.2339 631.767 45.2339C638.724 45.2339 642.46 44.4738 643.749 43.9279C645.862 43.3821 647.772 42.2556 649.291 40.7379C650.809 39.2193 651.935 37.3094 652.481 35.196C653.027 33.9069 653.787 30.0267 653.787 23.2133C653.787 16.3998 653.027 12.5216 652.481 11.2315C651.935 9.11808 650.809 7.20826 649.291 5.68958Z" fill="white"/>
<path d="M631.768 0.596431C635.226 0.596448 637.926 0.788661 639.93 1.05095C641.878 1.30574 643.202 1.63213 643.932 1.93066C646.14 2.50755 648.13 3.68519 649.713 5.26769C651.294 6.8492 652.47 8.83839 653.048 11.0444C653.348 11.7759 653.675 13.1173 653.93 15.0745C654.192 17.0865 654.384 19.7852 654.384 23.2128C654.384 26.6406 654.192 29.3406 653.93 31.353C653.676 33.3088 653.347 34.6496 653.048 35.3811C652.507 37.4492 651.44 39.3269 650.006 40.8568L649.713 41.1598C648.131 42.7403 646.141 43.9177 643.935 44.4949C642.493 45.0871 638.664 45.831 631.768 45.8311C624.869 45.8311 621.04 45.0871 619.597 44.4949C617.53 43.9538 615.653 42.886 614.124 41.4531L613.821 41.1598C612.24 39.5781 611.062 37.5882 610.485 35.3811C610.186 34.6499 609.859 33.3128 609.604 31.3589C609.341 29.3479 609.149 26.6474 609.149 23.2128C609.149 19.7783 609.341 17.0791 609.604 15.0686C609.859 13.114 610.186 11.7767 610.485 11.0454C611.062 8.83868 612.24 6.84922 613.821 5.26769L614.124 4.97445C615.654 3.53972 617.532 2.47132 619.601 1.93066C620.332 1.63217 621.656 1.30576 623.604 1.05095C625.609 0.788657 628.309 0.596431 631.768 0.596431Z" stroke="black" stroke-opacity="0.07" stroke-width="1.19255"/>
<path d="M631.094 10.3116C631.476 9.96544 632.058 9.96544 632.439 10.3116L635.161 12.7811C635.355 12.9572 635.61 13.0501 635.872 13.04L639.545 12.8978C640.06 12.8779 640.505 13.252 640.575 13.7624L641.073 17.4038C641.108 17.6634 641.244 17.8987 641.451 18.0593L644.356 20.311C644.763 20.6266 644.864 21.1998 644.59 21.6357L642.63 24.745C642.49 24.9667 642.443 25.2343 642.499 25.4904L643.276 29.0824C643.385 29.5859 643.094 30.0899 642.604 30.2473L639.104 31.3697C638.855 31.4498 638.647 31.6244 638.524 31.8563L636.811 35.1078C636.571 35.5636 636.024 35.7626 635.547 35.5678L632.145 34.1782C631.902 34.0791 631.631 34.0791 631.388 34.1782L627.986 35.5678C627.509 35.7626 626.962 35.5636 626.722 35.1078L625.009 31.8563C624.887 31.6244 624.678 31.4498 624.429 31.3697L620.929 30.2473C620.439 30.0899 620.148 29.5859 620.257 29.0824L621.034 25.4904C621.09 25.2343 621.043 24.9667 620.903 24.745L618.944 21.6357C618.669 21.1998 618.77 20.6266 619.177 20.311L622.082 18.0593C622.289 17.8987 622.425 17.6634 622.46 17.4038L622.958 13.7624C623.028 13.252 623.474 12.8779 623.988 12.8978L627.661 13.04C627.923 13.0501 628.178 12.9572 628.372 12.7811L631.094 10.3116Z" fill="#00DE5A"/>
<path d="M631.262 10.4971C631.548 10.2374 631.985 10.2374 632.271 10.4971L634.993 12.9661C635.236 13.1861 635.554 13.3023 635.882 13.2897L639.554 13.1479C639.94 13.133 640.275 13.4133 640.327 13.796L640.825 17.438C640.869 17.7623 641.039 18.0565 641.298 18.2571L644.203 20.5091C644.508 20.7459 644.584 21.1754 644.378 21.5022L642.419 24.6115C642.244 24.8885 642.185 25.223 642.254 25.543L643.032 29.1352C643.114 29.5128 642.895 29.891 642.527 30.009L639.028 31.1311C638.716 31.2312 638.456 31.4503 638.303 31.7401L636.59 34.9911C636.41 35.3329 636 35.4821 635.642 35.3361L632.24 33.9462C631.937 33.8224 631.597 33.8224 631.294 33.9462L627.891 35.3361C627.533 35.4821 627.123 35.3329 626.943 34.9911L625.23 31.7401C625.078 31.4503 624.817 31.2312 624.505 31.1311L621.006 30.009C620.638 29.891 620.42 29.5128 620.501 29.1352L621.279 25.543C621.349 25.223 621.289 24.8885 621.114 24.6115L619.155 21.5022C618.95 21.1754 619.025 20.7459 619.33 20.5091L622.235 18.2571C622.494 18.0565 622.664 17.7623 622.709 17.438L623.206 13.796C623.259 13.4133 623.593 13.133 623.979 13.1479L627.652 13.2897C627.979 13.3023 628.298 13.1861 628.54 12.9661L631.262 10.4971Z" stroke="black" stroke-opacity="0.1" stroke-width="0.5"/>
<path d="M629.734 28.0157C629.64 28.1493 629.487 28.2289 629.324 28.2289H627.501C627.34 28.2289 627.245 28.0467 627.337 27.914L633.982 18.4118C634.076 18.2779 634.229 18.1982 634.393 18.1982H636.229C636.391 18.1982 636.486 18.3806 636.393 18.5133L629.734 28.0157Z" fill="black"/>
<circle cx="635.791" cy="26.0725" r="1.53549" fill="black"/>
<circle cx="628.23" cy="20.2448" r="1.53549" fill="black"/>
<path fill-rule="evenodd" clip-rule="evenodd" d="M725.36 5.68958C723.842 4.1709 721.932 3.04536 719.818 2.49955C718.529 1.95475 714.712 1.19366 707.837 1.19366C700.961 1.19366 697.144 1.95475 695.854 2.49955C693.74 3.04536 691.831 4.1709 690.312 5.68958C688.794 7.20826 687.668 9.11808 687.123 11.2315C686.577 12.5216 685.816 16.3865 685.816 23.2133C685.816 30.04 686.577 33.9069 687.123 35.1961C687.668 37.3094 688.794 39.2193 690.312 40.7379C691.831 42.2556 693.74 43.3821 695.854 43.928C697.144 44.4738 700.879 45.2339 707.837 45.2339C714.794 45.2339 718.529 44.4738 719.818 43.928C721.932 43.3821 723.842 42.2556 725.36 40.7379C726.879 39.2193 728.004 37.3094 728.55 35.1961C729.096 33.9069 729.856 30.0267 729.856 23.2133C729.856 16.3998 729.096 12.5216 728.55 11.2315C728.004 9.11808 726.879 7.20826 725.36 5.68958Z" fill="white"/>
<path d="M707.837 0.621844C711.295 0.621862 713.993 0.81326 715.997 1.07538C717.942 1.32983 719.262 1.65611 719.99 1.95314C722.195 2.52834 724.184 3.70446 725.765 5.28528C727.344 6.8649 728.519 8.85179 729.095 11.0552C729.393 11.7839 729.721 13.122 729.975 15.0774C730.237 17.0882 730.428 19.786 730.428 23.2128C730.428 26.6399 730.237 29.3388 729.975 31.3501C729.721 33.3049 729.393 34.6428 729.095 35.3713C728.519 37.5751 727.344 39.5624 725.765 41.1422C724.185 42.7206 722.198 43.8967 719.995 44.4724C718.557 45.0626 714.732 45.8056 707.837 45.8057C700.941 45.8057 697.116 45.0625 695.677 44.4724C693.612 43.9328 691.737 42.8667 690.21 41.4355L689.908 41.1422C688.329 39.5626 687.152 37.5754 686.577 35.3713C686.279 34.643 685.952 33.3081 685.698 31.355C685.435 29.3453 685.244 26.6464 685.244 23.2128C685.244 19.7794 685.435 17.0817 685.698 15.0725C685.953 13.1188 686.279 11.7836 686.577 11.0552C687.152 8.85147 688.329 6.86472 689.908 5.28528L690.21 4.99204C691.738 3.559 693.615 2.49232 695.681 1.95314C696.409 1.65605 697.73 1.32996 699.676 1.07538C701.68 0.813248 704.379 0.621844 707.837 0.621844Z" stroke="black" stroke-opacity="0.07" stroke-width="1.14286"/>
<path fill-rule="evenodd" clip-rule="evenodd" d="M725.36 5.68958C723.842 4.1709 721.932 3.04536 719.818 2.49955C718.529 1.95475 714.712 1.19366 707.837 1.19366C700.961 1.19366 697.144 1.95475 695.854 2.49955C693.74 3.04536 691.831 4.1709 690.312 5.68958C688.794 7.20826 687.668 9.11808 687.123 11.2315C686.577 12.5216 685.816 16.3865 685.816 23.2133C685.816 30.04 686.577 33.9069 687.123 35.1961C687.668 37.3094 688.794 39.2193 690.312 40.7379C691.831 42.2556 693.74 43.3821 695.854 43.928C697.144 44.4738 700.879 45.2339 707.837 45.2339C714.794 45.2339 718.529 44.4738 719.818 43.928C721.932 43.3821 723.842 42.2556 725.36 40.7379C726.879 39.2193 728.004 37.3094 728.55 35.1961C729.096 33.9069 729.856 30.0267 729.856 23.2133C729.856 16.3998 729.096 12.5216 728.55 11.2315C728.004 9.11808 726.879 7.20826 725.36 5.68958Z" fill="white"/>
<path d="M707.837 0.621844C711.295 0.621862 713.993 0.81326 715.997 1.07538C717.942 1.32983 719.262 1.65611 719.99 1.95314C722.195 2.52834 724.184 3.70446 725.765 5.28528C727.344 6.8649 728.519 8.85179 729.095 11.0552C729.393 11.7839 729.721 13.122 729.975 15.0774C730.237 17.0882 730.428 19.786 730.428 23.2128C730.428 26.6399 730.237 29.3388 729.975 31.3501C729.721 33.3049 729.393 34.6428 729.095 35.3713C728.519 37.5751 727.344 39.5624 725.765 41.1422C724.185 42.7206 722.198 43.8967 719.995 44.4724C718.557 45.0626 714.732 45.8056 707.837 45.8057C700.941 45.8057 697.116 45.0625 695.677 44.4724C693.612 43.9328 691.737 42.8667 690.21 41.4355L689.908 41.1422C688.329 39.5626 687.152 37.5754 686.577 35.3713C686.279 34.643 685.952 33.3081 685.698 31.355C685.435 29.3453 685.244 26.6464 685.244 23.2128C685.244 19.7794 685.435 17.0817 685.698 15.0725C685.953 13.1188 686.279 11.7836 686.577 11.0552C687.152 8.85147 688.329 6.86472 689.908 5.28528L690.21 4.99204C691.738 3.559 693.615 2.49232 695.681 1.95314C696.409 1.65605 697.73 1.32996 699.676 1.07538C701.68 0.813248 704.379 0.621844 707.837 0.621844Z" stroke="black" stroke-opacity="0.07" stroke-width="1.14286"/>
<mask id="path-62-inside-4_5_17130" fill="white">
<path d="M716.229 12.2037C716.631 12.2037 716.956 12.5302 716.956 12.9329V33.4242L716.811 33.7233C716.662 34.0295 716.258 34.1013 716.013 33.8651L714.916 32.8036C714.723 32.6174 714.418 32.6156 714.224 32.7997L713.004 33.954C712.624 34.3138 712.031 34.3205 711.643 33.9687L710.341 32.786C710.146 32.6087 709.847 32.6135 709.657 32.7967L708.485 33.9296C708.102 34.3005 707.494 34.3059 707.105 33.9413L705.877 32.7909C705.685 32.6108 705.385 32.6107 705.193 32.7909L703.955 33.9511C703.57 34.3116 702.971 34.3116 702.586 33.9511L701.379 32.8212C701.174 32.6291 700.851 32.6431 700.663 32.8524L699.59 34.0537C699.284 34.3961 698.716 34.1788 698.716 33.7194V12.9329C698.716 12.5302 699.042 12.2037 699.443 12.2037H716.229Z"/>
</mask>
<path d="M716.229 12.2037C716.631 12.2037 716.956 12.5302 716.956 12.9329V33.4242L716.811 33.7233C716.662 34.0295 716.258 34.1013 716.013 33.8651L714.916 32.8036C714.723 32.6174 714.418 32.6156 714.224 32.7997L713.004 33.954C712.624 34.3138 712.031 34.3205 711.643 33.9687L710.341 32.786C710.146 32.6087 709.847 32.6135 709.657 32.7967L708.485 33.9296C708.102 34.3005 707.494 34.3059 707.105 33.9413L705.877 32.7909C705.685 32.6108 705.385 32.6107 705.193 32.7909L703.955 33.9511C703.57 34.3116 702.971 34.3116 702.586 33.9511L701.379 32.8212C701.174 32.6291 700.851 32.6431 700.663 32.8524L699.59 34.0537C699.284 34.3961 698.716 34.1788 698.716 33.7194V12.9329C698.716 12.5302 699.042 12.2037 699.443 12.2037H716.229Z" fill="#CAD1DC"/>
<path d="M716.956 12.9329H717.456V12.9329L716.956 12.9329ZM716.956 33.4242L717.406 33.6421L717.456 33.5389V33.4242H716.956ZM716.811 33.7233L717.261 33.9419L717.262 33.9412L716.811 33.7233ZM716.013 33.8651L715.666 34.2248L715.666 34.2252L716.013 33.8651ZM714.916 32.8036L715.264 32.4438L715.264 32.4438L714.916 32.8036ZM714.224 32.7997L713.88 32.4361L713.88 32.4362L714.224 32.7997ZM713.004 33.954L712.66 33.5905L712.66 33.5905L713.004 33.954ZM711.643 33.9687L711.307 34.3391L711.307 34.3392L711.643 33.9687ZM710.341 32.786L710.678 32.4155L710.678 32.4154L710.341 32.786ZM709.657 32.7967L709.309 32.4368L709.309 32.4369L709.657 32.7967ZM708.485 33.9296L708.137 33.5698L708.137 33.5699L708.485 33.9296ZM707.105 33.9413L706.763 34.3065L706.763 34.3066L707.105 33.9413ZM705.877 32.7909L706.219 32.4257L706.219 32.4254L705.877 32.7909ZM705.193 32.7909L704.851 32.4255L704.851 32.4256L705.193 32.7909ZM703.955 33.9511L704.297 34.3164L704.297 34.3163L703.955 33.9511ZM702.586 33.9511L702.928 33.5858L702.928 33.5857L702.586 33.9511ZM701.379 32.8212L701.037 33.1864L701.037 33.1865L701.379 32.8212ZM700.663 32.8524L700.29 32.5188L700.29 32.519L700.663 32.8524ZM699.59 34.0537L699.963 34.3874L699.963 34.3872L699.59 34.0537ZM698.716 12.9329L698.216 12.9329V12.9329H698.716ZM716.229 12.2037V12.7042C716.352 12.7042 716.455 12.8047 716.455 12.9329L716.956 12.9329L717.456 12.9329C717.456 12.2557 716.909 11.7032 716.229 11.7032V12.2037ZM716.956 12.9329H716.455V33.4242H716.956H717.456V12.9329H716.956ZM716.956 33.4242L716.505 33.2063L716.36 33.5054L716.811 33.7233L717.262 33.9412L717.406 33.6421L716.956 33.4242ZM716.811 33.7233L716.361 33.5048L716.361 33.5049L716.013 33.8651L715.666 34.2252C716.156 34.6979 716.964 34.554 717.261 33.9419L716.811 33.7233ZM716.013 33.8651L716.361 33.5053L715.264 32.4438L714.916 32.8036L714.568 33.1633L715.666 34.2248L716.013 33.8651ZM714.916 32.8036L715.264 32.4438C714.879 32.0717 714.269 32.0679 713.88 32.4361L714.224 32.7997L714.568 33.1632L714.568 33.1633L714.916 32.8036ZM714.224 32.7997L713.88 32.4362L712.66 33.5905L713.004 33.954L713.348 34.3175L714.568 33.1632L714.224 32.7997ZM713.004 33.954L712.66 33.5905C712.469 33.7708 712.173 33.7737 711.98 33.5981L711.643 33.9687L711.307 34.3392C711.888 34.8672 712.778 34.8568 713.348 34.3175L713.004 33.954ZM711.643 33.9687L711.98 33.5983L710.678 32.4155L710.341 32.786L710.005 33.1564L711.307 34.3391L711.643 33.9687ZM710.341 32.786L710.678 32.4154C710.287 32.0607 709.688 32.0707 709.309 32.4368L709.657 32.7967L710.005 33.1567L710.005 33.1565L710.341 32.786ZM709.657 32.7967L709.309 32.4369L708.137 33.5698L708.485 33.9296L708.833 34.2894L710.005 33.1565L709.657 32.7967ZM708.485 33.9296L708.137 33.5699C707.945 33.7557 707.641 33.758 707.447 33.576L707.105 33.9413L706.763 34.3066C707.347 34.8539 708.258 34.8453 708.833 34.2893L708.485 33.9296ZM707.105 33.9413L707.447 33.5761L706.219 32.4257L705.877 32.7909L705.535 33.156L706.763 34.3065L707.105 33.9413ZM705.877 32.7909L706.219 32.4254C705.834 32.0655 705.236 32.0651 704.851 32.4255L705.193 32.7909L705.535 33.1562L705.535 33.1563L705.877 32.7909ZM705.193 32.7909L704.851 32.4256L703.612 33.5859L703.955 33.9511L704.297 34.3163L705.535 33.1561L705.193 32.7909ZM703.955 33.9511L703.612 33.5858C703.42 33.7661 703.121 33.7661 702.928 33.5858L702.586 33.9511L702.244 34.3164C702.821 34.8571 703.719 34.8571 704.297 34.3164L703.955 33.9511ZM702.586 33.9511L702.928 33.5857L701.721 32.4558L701.379 32.8212L701.037 33.1865L702.244 34.3165L702.586 33.9511ZM701.379 32.8212L701.721 32.4559C701.312 32.0723 700.665 32.0995 700.29 32.5188L700.663 32.8524L701.037 33.1861L701.037 33.1864L701.379 32.8212ZM700.663 32.8524L700.29 32.519L699.217 33.7203L699.59 34.0537L699.963 34.3872L701.037 33.1859L700.663 32.8524ZM699.59 34.0537L699.217 33.7201L699.217 33.7194H698.716H698.216C698.216 34.6372 699.35 35.073 699.963 34.3874L699.59 34.0537ZM698.716 33.7194H699.217V12.9329H698.716H698.216V33.7194H698.716ZM698.716 12.9329L699.217 12.9329C699.217 12.8047 699.32 12.7042 699.443 12.7042V12.2037V11.7032C698.763 11.7032 698.216 12.2557 698.216 12.9329L698.716 12.9329ZM699.443 12.2037V12.7042H716.229V12.2037V11.7032H699.443V12.2037Z" fill="black" fill-opacity="0.1" mask="url(#path-62-inside-4_5_17130)"/>
<rect x="702.77" y="16.3708" width="10.133" height="1.77327" fill="black"/>
<rect x="702.77" y="19.836" width="5.06648" height="1.77327" fill="black"/>
</svg>
